{
copyright = "Copyright (c) 2015, Cadson Demak (info@cadsondemak.com)";
customParameters = (
{
name = vendorID;
value = CDK;
},
{
name = description;
value = "Copyright (c) 2015, Cadson Demak (info@cadsondemak.com)";
},
{
name = license;

glyphs = (
{
glyphname = A;
lastChange = "2015-12-01 09:49:17 +0000";
layers = (
{
layerId = "0B1DFD06-3317-40CA-B510-4969A0718C16";
name = Regular;
paths = (
{
closed = 1;
nodes = (
"221 0 LINE",
"221 26 LINE",
"203 26 LINE SMOOTH",
"175 26 OFFCURVE",
"144 42 OFFCURVE",
"155 73 CURVE SMOOTH",
"348 591 LINE",
"536 73 LINE SMOOTH",
"547 43 OFFCURVE",
"530 26 OFFCURVE",
"492 26 CURVE SMOOTH",
"475 26 LINE",
"475 0 LINE",
"728 0 LINE",
"728 26 LINE",
"710 26 LINE SMOOTH",
"686 26 OFFCURVE",
"657 38 OFFCURVE",
"648 61 CURVE SMOOTH",
"398 714 LINE",
"325 684 LINE",
"88 62 LINE SMOOTH",
"79 40 OFFCURVE",
"45 26 OFFCURVE",
"20 26 CURVE SMOOTH",
"5 26 LINE",
"5 0 LINE"
);
},
{
closed = 1;
nodes = (
"515 210 LINE",
"515 250 LINE",
"189 250 LINE",
"189 210 LINE"
);
}
);
width = 733;
}
);
leftKerningGroup = A;
note = A;
rightKerningGroup = A;
unicode = 0041;
},
{
glyphname = Aacute;
lastChange = "2015-12-01 09:49:19 +0000";
layers = (
{
layerId = "0B1DFD06-3317-40CA-B510-4969A0718C16";
name = Regular;
paths = (
{
closed = 1;
nodes = (
"221 0 LINE",
"221 26 LINE",
"203 26 LINE SMOOTH",
"175 26 OFFCURVE",
"144 42 OFFCURVE",
"155 73 CURVE SMOOTH",
"348 591 LINE",
"536 73 LINE SMOOTH",
"547 43 OFFCURVE",
"530 26 OFFCURVE",
"492 26 CURVE SMOOTH",
"475 26 LINE",
"475 0 LINE",
"728 0 LINE",
"728 26 LINE",
"710 26 LINE SMOOTH",
"686 26 OFFCURVE",
"657 38 OFFCURVE",
"648 61 CURVE SMOOTH",
"398 714 LINE",
"325 684 LINE",
"88 62 LINE SMOOTH",
"79 40 OFFCURVE",
"45 26 OFFCURVE",
"20 26 CURVE SMOOTH",
"5 26 LINE",
"5 0 LINE"
);
},
{
closed = 1;
nodes = (
"515 210 LINE",
"515 250 LINE",
"189 250 LINE",
"189 210 LINE"
);
},
{
closed = 1;
nodes = (
"430 865 LINE SMOOTH",
"452 877 OFFCURVE",
"464 890 OFFCURVE",
"464 907 CURVE SMOOTH",
"464 922 OFFCURVE",
"452 937 OFFCURVE",
"430 937 CURVE SMOOTH",
"409 937 OFFCURVE",
"394 921 OFFCURVE",
"386 914 CURVE SMOOTH",
"271 807 LINE",
"288 782 LINE"
);
}
);
width = 733;
}
);
leftKerningGroup = A;
note = Aacute;
rightKerningGroup = A;
unicode = 00C1;
},
{
glyphname = Abreve;
lastChange = "2015-12-01 09:49:20 +0000";
layers = (
{
layerId = "0B1DFD06-3317-40CA-B510-4969A0718C16";
name = Regular;
paths = (
{
closed = 1;
nodes = (
"221 0 LINE",
"221 26 LINE",
"203 26 LINE SMOOTH",
"175 26 OFFCURVE",
"144 42 OFFCURVE",
"155 73 CURVE SMOOTH",
"348 591 LINE",
"536 73 LINE SMOOTH",
"547 43 OFFCURVE",
"530 26 OFFCURVE",
"492 26 CURVE SMOOTH",
"475 26 LINE",
"475 0 LINE",
"728 0 LINE",
"728 26 LINE",
"710 26 LINE SMOOTH",
"686 26 OFFCURVE",
"657 38 OFFCURVE",
"648 61 CURVE SMOOTH",
"398 714 LINE",
"325 684 LINE",
"88 62 LINE SMOOTH",
"79 40 OFFCURVE",
"45 26 OFFCURVE",
"20 26 CURVE SMOOTH",
"5 26 LINE",
"5 0 LINE"
);
},
{
closed = 1;
nodes = (
"515 210 LINE",
"515 250 LINE",
"189 250 LINE",
"189 210 LINE"
);
},
{
closed = 1;
nodes = (
"466 776 OFFCURVE",
"508 832 OFFCURVE",
"512 907 CURVE",
"479 907 LINE",
"473 848 OFFCURVE",
"431 822 OFFCURVE",
"367 822 CURVE SMOOTH",
"303 822 OFFCURVE",
"260 848 OFFCURVE",
"253 907 CURVE",
"220 907 LINE",
"224 829 OFFCURVE",
"266 776 OFFCURVE",
"367 776 CURVE SMOOTH"
);
}
);
width = 733;
}
);
leftKerningGroup = A;
note = Abreve;
rightKerningGroup = A;
unicode = 0102;
},
{
glyphname = Abreveacute;
lastChange = "2015-12-01 09:49:19 +0000";
layers = (
{
layerId = "0B1DFD06-3317-40CA-B510-4969A0718C16";
name = Regular;
paths = (
{
closed = 1;
nodes = (
"221 0 LINE",
"221 26 LINE",
"203 26 LINE SMOOTH",
"175 26 OFFCURVE",
"144 42 OFFCURVE",
"155 73 CURVE SMOOTH",
"348 591 LINE",
"536 73 LINE SMOOTH",
"547 43 OFFCURVE",
"530 26 OFFCURVE",
"492 26 CURVE SMOOTH",
"475 26 LINE",
"475 0 LINE",
"728 0 LINE",
"728 26 LINE",
"710 26 LINE SMOOTH",
"686 26 OFFCURVE",
"657 38 OFFCURVE",
"648 61 CURVE SMOOTH",
"398 714 LINE",
"325 684 LINE",
"88 62 LINE SMOOTH",
"79 40 OFFCURVE",
"45 26 OFFCURVE",
"20 26 CURVE SMOOTH",
"5 26 LINE",
"5 0 LINE"
);
},
{
closed = 1;
nodes = (
"515 210 LINE",
"515 250 LINE",
"189 250 LINE",
"189 210 LINE"
);
},
{
closed = 1;
nodes = (
"466 778 OFFCURVE",
"507 834 OFFCURVE",
"511 909 CURVE",
"478 909 LINE",
"472 851 OFFCURVE",
"430 825 OFFCURVE",
"365 825 CURVE SMOOTH",
"301 825 OFFCURVE",
"258 851 OFFCURVE",
"252 909 CURVE",
"220 909 LINE",
"223 831 OFFCURVE",
"265 778 OFFCURVE",
"365 778 CURVE SMOOTH"
);
},
{
closed = 1;
nodes = (
"464 965 LINE SMOOTH",
"487 977 OFFCURVE",
"501 992 OFFCURVE",
"501 1008 CURVE SMOOTH",
"501 1022 OFFCURVE",
"489 1039 OFFCURVE",
"467 1039 CURVE SMOOTH",
"447 1039 OFFCURVE",
"430 1023 OFFCURVE",
"420 1013 CURVE SMOOTH",
"325 920 LINE",
"343 898 LINE"
);
}
);
width = 733;
}
);
leftKerningGroup = A;
note = Abreveacute;
rightKerningGroup = A;
unicode = 1EAE;
},
{
glyphname = Abrevedotbelow;
lastChange = "2015-12-01 09:49:19 +0000";
layers = (
{
layerId = "0B1DFD06-3317-40CA-B510-4969A0718C16";
name = Regular;
paths = (
{
closed = 1;
nodes = (
"221 0 LINE",
"221 26 LINE",
"203 26 LINE SMOOTH",
"175 26 OFFCURVE",
"144 42 OFFCURVE",
"155 73 CURVE SMOOTH",
"348 591 LINE",
"536 73 LINE SMOOTH",
"547 43 OFFCURVE",
"530 26 OFFCURVE",
"492 26 CURVE SMOOTH",
"475 26 LINE",
"475 0 LINE",
"728 0 LINE",
"728 26 LINE",
"710 26 LINE SMOOTH",
"686 26 OFFCURVE",
"657 38 OFFCURVE",
"648 61 CURVE SMOOTH",
"398 714 LINE",
"325 684 LINE",
"88 62 LINE SMOOTH",
"79 40 OFFCURVE",
"45 26 OFFCURVE",
"20 26 CURVE SMOOTH",
"5 26 LINE",
"5 0 LINE"
);
},
{
closed = 1;
nodes = (
"393 -159 OFFCURVE",
"411 -140 OFFCURVE",
"411 -112 CURVE SMOOTH",
"411 -84 OFFCURVE",
"393 -64 OFFCURVE",
"365 -64 CURVE SMOOTH",
"337 -64 OFFCURVE",
"318 -84 OFFCURVE",
"318 -112 CURVE SMOOTH",
"318 -140 OFFCURVE",
"337 -159 OFFCURVE",
"365 -159 CURVE SMOOTH"
);
},
{
closed = 1;
nodes = (
"515 210 LINE",
"515 250 LINE",
"189 250 LINE",
"189 210 LINE"
);
},
{
closed = 1;
nodes = (
"465 778 OFFCURVE",
"507 834 OFFCURVE",
"511 909 CURVE",
"478 909 LINE",
"472 850 OFFCURVE",
"430 824 OFFCURVE",
"366 824 CURVE SMOOTH",
"302 824 OFFCURVE",
"259 850 OFFCURVE",
"252 909 CURVE",
"219 909 LINE",
"223 831 OFFCURVE",
"265 778 OFFCURVE",
"366 778 CURVE SMOOTH"
);
}
);
width = 733;
}
);
leftKerningGroup = A;
note = Abrevedotbelow;
rightKerningGroup = A;
unicode = 1EB6;
},
{
glyphname = Abrevegrave;
lastChange = "2015-12-01 09:49:19 +0000";
layers = (
{
layerId = "0B1DFD06-3317-40CA-B510-4969A0718C16";
name = Regular;
paths = (
{
closed = 1;
nodes = (
"221 0 LINE",
"221 26 LINE",
"203 26 LINE SMOOTH",
"175 26 OFFCURVE",
"144 42 OFFCURVE",
"155 73 CURVE SMOOTH",
"348 591 LINE",
"536 73 LINE SMOOTH",
"547 43 OFFCURVE",
"530 26 OFFCURVE",
"492 26 CURVE SMOOTH",
"475 26 LINE",
"475 0 LINE",
"728 0 LINE",
"728 26 LINE",
"710 26 LINE SMOOTH",
"686 26 OFFCURVE",
"657 38 OFFCURVE",
"648 61 CURVE SMOOTH",
"398 714 LINE",
"325 684 LINE",
"88 62 LINE SMOOTH",
"79 40 OFFCURVE",
"45 26 OFFCURVE",
"20 26 CURVE SMOOTH",
"5 26 LINE",
"5 0 LINE"
);
},
{
closed = 1;
nodes = (
"515 210 LINE",
"515 250 LINE",
"189 250 LINE",
"189 210 LINE"
);
},
{
closed = 1;
nodes = (
"466 778 OFFCURVE",
"507 834 OFFCURVE",
"511 909 CURVE",
"478 909 LINE",
"472 851 OFFCURVE",
"429 825 OFFCURVE",
"365 825 CURVE SMOOTH",
"301 825 OFFCURVE",
"258 851 OFFCURVE",
"252 909 CURVE",
"220 909 LINE",
"223 831 OFFCURVE",
"265 778 OFFCURVE",
"365 778 CURVE SMOOTH"
);
},
{
closed = 1;
nodes = (
"398 920 LINE",
"302 1012 LINE",
"292 1023 OFFCURVE",
"276 1038 OFFCURVE",
"256 1038 CURVE SMOOTH",
"233 1038 OFFCURVE",
"223 1021 OFFCURVE",
"223 1007 CURVE SMOOTH",
"223 992 OFFCURVE",
"236 976 OFFCURVE",
"259 964 CURVE SMOOTH",
"381 897 LINE"
);
}
);
width = 733;
}
);
leftKerningGroup = A;
note = Abrevegrave;
rightKerningGroup = A;
unicode = 1EB0;
},
{
glyphname = Abrevehookabove;
lastChange = "2015-12-01 09:49:19 +0000";
layers = (
{
layerId = "0B1DFD06-3317-40CA-B510-4969A0718C16";
name = Regular;
paths = (
{
closed = 1;
nodes = (
"221 0 LINE",
"221 26 LINE",
"203 26 LINE SMOOTH",
"175 26 OFFCURVE",
"144 42 OFFCURVE",
"155 73 CURVE SMOOTH",
"348 591 LINE",
"536 73 LINE SMOOTH",
"547 43 OFFCURVE",
"530 26 OFFCURVE",
"492 26 CURVE SMOOTH",
"475 26 LINE",
"475 0 LINE",
"728 0 LINE",
"728 26 LINE",
"710 26 LINE SMOOTH",
"686 26 OFFCURVE",
"657 38 OFFCURVE",
"648 61 CURVE SMOOTH",
"398 714 LINE",
"325 684 LINE",
"88 62 LINE SMOOTH",
"79 40 OFFCURVE",
"45 26 OFFCURVE",
"20 26 CURVE SMOOTH",
"5 26 LINE",
"5 0 LINE"
);
},
{
closed = 1;
nodes = (
"515 210 LINE",
"515 250 LINE",
"189 250 LINE",
"189 210 LINE"
);
},
{
closed = 1;
nodes = (
"466 778 OFFCURVE",
"507 834 OFFCURVE",
"511 909 CURVE",
"478 909 LINE",
"472 851 OFFCURVE",
"430 825 OFFCURVE",
"365 825 CURVE SMOOTH",
"301 825 OFFCURVE",
"258 851 OFFCURVE",
"252 909 CURVE",
"220 909 LINE",
"223 831 OFFCURVE",
"265 778 OFFCURVE",
"365 778 CURVE SMOOTH"
);
},
{
closed = 1;
nodes = (
"396 900 LINE",
"377 907 OFFCURVE",
"367 914 OFFCURVE",
"367 928 CURVE SMOOTH",
"367 956 OFFCURVE",
"447 967 OFFCURVE",
"447 1012 CURVE SMOOTH",
"447 1049 OFFCURVE",
"405 1065 OFFCURVE",
"363 1065 CURVE SMOOTH",
"332 1065 OFFCURVE",
"287 1055 OFFCURVE",
"287 1024 CURVE SMOOTH",
"287 1012 OFFCURVE",
"298 1003 OFFCURVE",
"308 1003 CURVE SMOOTH",
"337 1003 OFFCURVE",
"324 1042 OFFCURVE",
"367 1042 CURVE SMOOTH",
"386 1042 OFFCURVE",
"397 1030 OFFCURVE",
"397 1015 CURVE SMOOTH",
"397 975 OFFCURVE",
"324 967 OFFCURVE",
"324 927 CURVE SMOOTH",
"324 903 OFFCURVE",
"340 882 OFFCURVE",
"387 882 CURVE"
);
}
);
width = 733;
}
);
leftKerningGroup = A;
note = Abrevehookabove;
rightKerningGroup = A;
unicode = 1EB2;
},
{
glyphname = Abrevetilde;
lastChange = "2015-12-01 09:49:19 +0000";
layers = (
{
layerId = "0B1DFD06-3317-40CA-B510-4969A0718C16";
name = Regular;
paths = (
{
closed = 1;
nodes = (
"221 0 LINE",
"221 26 LINE",
"203 26 LINE SMOOTH",
"175 26 OFFCURVE",
"144 42 OFFCURVE",
"155 73 CURVE SMOOTH",
"348 591 LINE",
"536 73 LINE SMOOTH",
"547 43 OFFCURVE",
"530 26 OFFCURVE",
"492 26 CURVE SMOOTH",
"475 26 LINE",
"475 0 LINE",
"728 0 LINE",
"728 26 LINE",
"710 26 LINE SMOOTH",
"686 26 OFFCURVE",
"657 38 OFFCURVE",
"648 61 CURVE SMOOTH",
"398 714 LINE",
"325 684 LINE",
"88 62 LINE SMOOTH",
"79 40 OFFCURVE",
"45 26 OFFCURVE",
"20 26 CURVE SMOOTH",
"5 26 LINE",
"5 0 LINE"
);
},
{
closed = 1;
nodes = (
"515 210 LINE",
"515 250 LINE",
"189 250 LINE",
"189 210 LINE"
);
},
{
closed = 1;
nodes = (
"466 778 OFFCURVE",
"507 834 OFFCURVE",
"511 909 CURVE",
"478 909 LINE",
"472 851 OFFCURVE",
"430 825 OFFCURVE",
"365 825 CURVE SMOOTH",
"301 825 OFFCURVE",
"258 851 OFFCURVE",
"252 909 CURVE",
"220 909 LINE",
"223 831 OFFCURVE",
"265 778 OFFCURVE",
"365 778 CURVE SMOOTH"
);
},
{
closed = 1;
nodes = (
"235 1002 OFFCURVE",
"253 1023 OFFCURVE",
"284 1023 CURVE SMOOTH",
"333 1023 OFFCURVE",
"380 969 OFFCURVE",
"429 969 CURVE SMOOTH",
"482 969 OFFCURVE",
"511 1017 OFFCURVE",
"523 1068 CURVE",
"502 1080 LINE",
"489 1040 OFFCURVE",
"473 1017 OFFCURVE",
"440 1017 CURVE SMOOTH",
"393 1017 OFFCURVE",
"344 1070 OFFCURVE",
"295 1070 CURVE SMOOTH",
"244 1070 OFFCURVE",
"212 1026 OFFCURVE",
"202 975 CURVE",
"222 963 LINE"
);
}
);
width = 733;
}
);
leftKerningGroup = A;
note = Abrevetilde;
rightKerningGroup = A;
unicode = 1EB4;
},
{
glyphname = Acaron;
lastChange = "2015-12-01 09:49:19 +0000";
layers = (
{
layerId = "0B1DFD06-3317-40CA-B510-4969A0718C16";
name = Regular;
paths = (
{
closed = 1;
nodes = (
"221 0 LINE",
"221 26 LINE",
"203 26 LINE SMOOTH",
"175 26 OFFCURVE",
"144 42 OFFCURVE",
"155 73 CURVE SMOOTH",
"348 591 LINE",
"536 73 LINE SMOOTH",
"547 43 OFFCURVE",
"530 26 OFFCURVE",
"492 26 CURVE SMOOTH",
"475 26 LINE",
"475 0 LINE",
"728 0 LINE",
"728 26 LINE",
"710 26 LINE SMOOTH",
"686 26 OFFCURVE",
"657 38 OFFCURVE",
"648 61 CURVE SMOOTH",
"398 714 LINE",
"325 684 LINE",
"88 62 LINE SMOOTH",
"79 40 OFFCURVE",
"45 26 OFFCURVE",
"20 26 CURVE SMOOTH",
"5 26 LINE",
"5 0 LINE"
);
},
{
closed = 1;
nodes = (
"515 210 LINE",
"515 250 LINE",
"189 250 LINE",
"189 210 LINE"
);
},
{
closed = 1;
nodes = (
"393 782 LINE",
"517 911 LINE",
"498 932 LINE",
"390 847 LINE",
"382 840 OFFCURVE",
"373 836 OFFCURVE",
"367 836 CURVE SMOOTH",
"361 836 OFFCURVE",
"353 840 OFFCURVE",
"343 847 CURVE",
"235 932 LINE",
"216 911 LINE",
"340 782 LINE"
);
}
);
width = 733;
}
);
leftKerningGroup = A;
note = Acaron;
rightKerningGroup = A;
unicode = 01CD;
},
{
glyphname = Acircumflex;
lastChange = "2015-12-01 09:49:19 +0000";
layers = (
{
layerId = "0B1DFD06-3317-40CA-B510-4969A0718C16";
name = Regular;
paths = (
{
closed = 1;
nodes = (
"221 0 LINE",
"221 26 LINE",
"203 26 LINE SMOOTH",
"175 26 OFFCURVE",
"144 42 OFFCURVE",
"155 73 CURVE SMOOTH",
"348 591 LINE",
"536 73 LINE SMOOTH",
"547 43 OFFCURVE",
"530 26 OFFCURVE",
"492 26 CURVE SMOOTH",
"475 26 LINE",
"475 0 LINE",
"728 0 LINE",
"728 26 LINE",
"710 26 LINE SMOOTH",
"686 26 OFFCURVE",
"657 38 OFFCURVE",
"648 61 CURVE SMOOTH",
"398 714 LINE",
"325 684 LINE",
"88 62 LINE SMOOTH",
"79 40 OFFCURVE",
"45 26 OFFCURVE",
"20 26 CURVE SMOOTH",
"5 26 LINE",
"5 0 LINE"
);
},
{
closed = 1;
nodes = (
"515 210 LINE",
"515 250 LINE",
"189 250 LINE",
"189 210 LINE"
);
},
{
closed = 1;
nodes = (
"343 868 LINE SMOOTH",
"351 874 OFFCURVE",
"361 879 OFFCURVE",
"367 879 CURVE SMOOTH",
"373 879 OFFCURVE",
"381 874 OFFCURVE",
"390 868 CURVE",
"498 782 LINE",
"517 803 LINE",
"393 932 LINE",
"340 932 LINE",
"216 803 LINE",
"235 782 LINE"
);
}
);
width = 733;
}
);
leftKerningGroup = A;
note = Acircumflex;
rightKerningGroup = A;
unicode = 00C2;
},
{
glyphname = Acircumflexacute;
lastChange = "2015-12-01 09:49:17 +0000";
layers = (
{
layerId = "0B1DFD06-3317-40CA-B510-4969A0718C16";
name = Regular;
paths = (
{
closed = 1;
nodes = (
"221 0 LINE",
"221 26 LINE",
"203 26 LINE SMOOTH",
"175 26 OFFCURVE",
"144 42 OFFCURVE",
"155 73 CURVE SMOOTH",
"348 591 LINE",
"536 73 LINE SMOOTH",
"547 43 OFFCURVE",
"530 26 OFFCURVE",
"492 26 CURVE SMOOTH",
"475 26 LINE",
"475 0 LINE",
"728 0 LINE",
"728 26 LINE",
"710 26 LINE SMOOTH",
"686 26 OFFCURVE",
"657 38 OFFCURVE",
"648 61 CURVE SMOOTH",
"398 714 LINE",
"325 684 LINE",
"88 62 LINE SMOOTH",
"79 40 OFFCURVE",
"45 26 OFFCURVE",
"20 26 CURVE SMOOTH",
"5 26 LINE",
"5 0 LINE"
);
},
{
closed = 1;
nodes = (
"515 210 LINE",
"515 250 LINE",
"189 250 LINE",
"189 210 LINE"
);
},
{
closed = 1;
nodes = (
"340 862 LINE SMOOTH",
"350 870 OFFCURVE",
"360 878 OFFCURVE",
"368 878 CURVE SMOOTH",
"374 878 OFFCURVE",
"382 873 OFFCURVE",
"391 867 CURVE",
"497 781 LINE",
"516 803 LINE",
"394 932 LINE",
"343 932 LINE",
"221 803 LINE",
"239 781 LINE"
);
},
{
closed = 1;
nodes = (
"605 960 LINE SMOOTH",
"628 972 OFFCURVE",
"641 988 OFFCURVE",
"641 1003 CURVE SMOOTH",
"641 1017 OFFCURVE",
"630 1034 OFFCURVE",
"607 1034 CURVE SMOOTH",
"588 1034 OFFCURVE",
"571 1018 OFFCURVE",
"561 1008 CURVE SMOOTH",
"465 915 LINE",
"483 893 LINE"
);
}
);
width = 733;
}
);
leftKerningGroup = A;
note = Acircumflexacute;
rightKerningGroup = A;
unicode = 1EA4;
},
{
glyphname = Acircumflexdotbelow;
lastChange = "2015-12-01 09:49:19 +0000";
layers = (
{
layerId = "0B1DFD06-3317-40CA-B510-4969A0718C16";
name = Regular;
paths = (
{
closed = 1;
nodes = (
"221 0 LINE",
"221 26 LINE",
"203 26 LINE SMOOTH",
"175 26 OFFCURVE",
"144 42 OFFCURVE",
"155 73 CURVE SMOOTH",
"348 591 LINE",
"536 73 LINE SMOOTH",
"547 43 OFFCURVE",
"530 26 OFFCURVE",
"492 26 CURVE SMOOTH",
"475 26 LINE",
"475 0 LINE",
"728 0 LINE",
"728 26 LINE",
"710 26 LINE SMOOTH",
"686 26 OFFCURVE",
"657 38 OFFCURVE",
"648 61 CURVE SMOOTH",
"398 714 LINE",
"325 684 LINE",
"88 62 LINE SMOOTH",
"79 40 OFFCURVE",
"45 26 OFFCURVE",
"20 26 CURVE SMOOTH",
"5 26 LINE",
"5 0 LINE"
);
},
{
closed = 1;
nodes = (
"396 -159 OFFCURVE",
"414 -140 OFFCURVE",
"414 -112 CURVE SMOOTH",
"414 -84 OFFCURVE",
"396 -64 OFFCURVE",
"368 -64 CURVE SMOOTH",
"340 -64 OFFCURVE",
"321 -84 OFFCURVE",
"321 -112 CURVE SMOOTH",
"321 -140 OFFCURVE",
"340 -159 OFFCURVE",
"368 -159 CURVE SMOOTH"
);
},
{
closed = 1;
nodes = (
"515 210 LINE",
"515 250 LINE",
"189 250 LINE",
"189 210 LINE"
);
},
{
closed = 1;
nodes = (
"344 867 LINE SMOOTH",
"352 873 OFFCURVE",
"362 878 OFFCURVE",
"368 878 CURVE SMOOTH",
"374 878 OFFCURVE",
"382 873 OFFCURVE",
"391 867 CURVE",
"499 781 LINE",
"518 802 LINE",
"394 931 LINE",
"341 931 LINE",
"217 802 LINE",
"236 781 LINE"
);
}
);
width = 733;
}
);
leftKerningGroup = A;
note = Acircumflexdotbelow;
rightKerningGroup = A;
unicode = 1EAC;
},
{
glyphname = Acircumflexgrave;
lastChange = "2015-12-01 09:49:18 +0000";
layers = (
{
layerId = "0B1DFD06-3317-40CA-B510-4969A0718C16";
name = Regular;
paths = (
{
closed = 1;
nodes = (
"221 0 LINE",
"221 26 LINE",
"203 26 LINE SMOOTH",
"175 26 OFFCURVE",
"144 42 OFFCURVE",
"155 73 CURVE SMOOTH",
"348 591 LINE",
"536 73 LINE SMOOTH",
"547 43 OFFCURVE",
"530 26 OFFCURVE",
"492 26 CURVE SMOOTH",
"475 26 LINE",
"475 0 LINE",
"728 0 LINE",
"728 26 LINE",
"710 26 LINE SMOOTH",
"686 26 OFFCURVE",
"657 38 OFFCURVE",
"648 61 CURVE SMOOTH",
"398 714 LINE",
"325 684 LINE",
"88 62 LINE SMOOTH",
"79 40 OFFCURVE",
"45 26 OFFCURVE",
"20 26 CURVE SMOOTH",
"5 26 LINE",
"5 0 LINE"
);
},
{
closed = 1;
nodes = (
"515 210 LINE",
"515 250 LINE",
"189 250 LINE",
"189 210 LINE"
);
},
{
closed = 1;
nodes = (
"277 915 LINE",
"182 1008 LINE SMOOTH",
"172 1018 OFFCURVE",
"155 1034 OFFCURVE",
"135 1034 CURVE SMOOTH",
"113 1034 OFFCURVE",
"102 1017 OFFCURVE",
"102 1003 CURVE SMOOTH",
"102 988 OFFCURVE",
"115 972 OFFCURVE",
"138 960 CURVE SMOOTH",
"260 893 LINE"
);
},
{
closed = 1;
nodes = (
"340 862 LINE SMOOTH",
"350 870 OFFCURVE",
"360 878 OFFCURVE",
"368 878 CURVE SMOOTH",
"374 878 OFFCURVE",
"382 873 OFFCURVE",
"391 867 CURVE",
"497 781 LINE",
"516 803 LINE",
"394 932 LINE",
"343 932 LINE",
"221 803 LINE",
"239 781 LINE"
);
}
);
width = 733;
}
);
leftKerningGroup = A;
note = Acircumflexgrave;
rightKerningGroup = A;
unicode = 1EA6;
},
{
glyphname = Acircumflexhookabove;
lastChange = "2015-12-01 09:49:18 +0000";
layers = (
{
layerId = "0B1DFD06-3317-40CA-B510-4969A0718C16";
name = Regular;
paths = (
{
closed = 1;
nodes = (
"221 0 LINE",
"221 26 LINE",
"203 26 LINE SMOOTH",
"175 26 OFFCURVE",
"144 42 OFFCURVE",
"155 73 CURVE SMOOTH",
"348 591 LINE",
"536 73 LINE SMOOTH",
"547 43 OFFCURVE",
"530 26 OFFCURVE",
"492 26 CURVE SMOOTH",
"475 26 LINE",
"475 0 LINE",
"728 0 LINE",
"728 26 LINE",
"710 26 LINE SMOOTH",
"686 26 OFFCURVE",
"657 38 OFFCURVE",
"648 61 CURVE SMOOTH",
"398 714 LINE",
"325 684 LINE",
"88 62 LINE SMOOTH",
"79 40 OFFCURVE",
"45 26 OFFCURVE",
"20 26 CURVE SMOOTH",
"5 26 LINE",
"5 0 LINE"
);
},
{
closed = 1;
nodes = (
"515 210 LINE",
"515 250 LINE",
"189 250 LINE",
"189 210 LINE"
);
},
{
closed = 1;
nodes = (
"336 858 LINE",
"347 868 OFFCURVE",
"359 878 OFFCURVE",
"368 878 CURVE SMOOTH",
"374 878 OFFCURVE",
"382 873 OFFCURVE",
"391 867 CURVE",
"497 781 LINE",
"516 803 LINE",
"394 932 LINE",
"343 932 LINE",
"221 803 LINE",
"239 781 LINE"
);
},
{
closed = 1;
nodes = (
"543 898 LINE",
"524 905 OFFCURVE",
"514 912 OFFCURVE",
"514 926 CURVE SMOOTH",
"514 954 OFFCURVE",
"594 965 OFFCURVE",
"594 1010 CURVE SMOOTH",
"594 1047 OFFCURVE",
"552 1063 OFFCURVE",
"510 1063 CURVE SMOOTH",
"479 1063 OFFCURVE",
"434 1053 OFFCURVE",
"434 1022 CURVE SMOOTH",
"434 1010 OFFCURVE",
"445 1001 OFFCURVE",
"455 1001 CURVE SMOOTH",
"484 1001 OFFCURVE",
"471 1040 OFFCURVE",
"514 1040 CURVE SMOOTH",
"533 1040 OFFCURVE",
"544 1028 OFFCURVE",
"544 1013 CURVE SMOOTH",
"544 973 OFFCURVE",
"471 965 OFFCURVE",
"471 925 CURVE SMOOTH",
"471 901 OFFCURVE",
"487 880 OFFCURVE",
"534 880 CURVE"
);
}
);
width = 733;
}
);
leftKerningGroup = A;
note = Acircumflexhookabove;
rightKerningGroup = A;
unicode = 1EA8;
},
{
glyphname = Acircumflextilde;
lastChange = "2015-12-01 09:49:19 +0000";
layers = (
{
layerId = "0B1DFD06-3317-40CA-B510-4969A0718C16";
name = Regular;
paths = (
{
closed = 1;
nodes = (
"221 0 LINE",
"221 26 LINE",
"203 26 LINE SMOOTH",
"175 26 OFFCURVE",
"144 42 OFFCURVE",
"155 73 CURVE SMOOTH",
"348 591 LINE",
"536 73 LINE SMOOTH",
"547 43 OFFCURVE",
"530 26 OFFCURVE",
"492 26 CURVE SMOOTH",
"475 26 LINE",
"475 0 LINE",
"728 0 LINE",
"728 26 LINE",
"710 26 LINE SMOOTH",
"686 26 OFFCURVE",
"657 38 OFFCURVE",
"648 61 CURVE SMOOTH",
"398 714 LINE",
"325 684 LINE",
"88 62 LINE SMOOTH",
"79 40 OFFCURVE",
"45 26 OFFCURVE",
"20 26 CURVE SMOOTH",
"5 26 LINE",
"5 0 LINE"
);
},
{
closed = 1;
nodes = (
"515 210 LINE",
"515 250 LINE",
"189 250 LINE",
"189 210 LINE"
);
},
{
closed = 1;
nodes = (
"340 862 LINE SMOOTH",
"350 870 OFFCURVE",
"360 878 OFFCURVE",
"368 878 CURVE SMOOTH",
"374 878 OFFCURVE",
"382 873 OFFCURVE",
"391 867 CURVE",
"497 781 LINE",
"516 803 LINE",
"394 932 LINE",
"343 932 LINE",
"221 803 LINE",
"239 781 LINE"
);
},
{
closed = 1;
nodes = (
"243 997 OFFCURVE",
"261 1018 OFFCURVE",
"292 1018 CURVE SMOOTH",
"341 1018 OFFCURVE",
"388 964 OFFCURVE",
"437 964 CURVE SMOOTH",
"490 964 OFFCURVE",
"519 1012 OFFCURVE",
"531 1063 CURVE",
"510 1075 LINE",
"497 1035 OFFCURVE",
"481 1012 OFFCURVE",
"448 1012 CURVE SMOOTH",
"401 1012 OFFCURVE",
"352 1065 OFFCURVE",
"303 1065 CURVE SMOOTH",
"252 1065 OFFCURVE",
"220 1021 OFFCURVE",
"210 970 CURVE",
"230 958 LINE"
);
}
);
width = 733;
}
);
leftKerningGroup = A;
note = Acircumflextilde;
rightKerningGroup = A;
unicode = 1EAA;
},
{
glyphname = Adieresis;
lastChange = "2015-12-01 09:49:20 +0000";
layers = (
{
layerId = "0B1DFD06-3317-40CA-B510-4969A0718C16";
name = Regular;
paths = (
{
closed = 1;
nodes = (
"221 0 LINE",
"221 26 LINE",
"203 26 LINE SMOOTH",
"175 26 OFFCURVE",
"144 42 OFFCURVE",
"155 73 CURVE SMOOTH",
"348 591 LINE",
"536 73 LINE SMOOTH",
"547 43 OFFCURVE",
"530 26 OFFCURVE",
"492 26 CURVE SMOOTH",
"475 26 LINE",
"475 0 LINE",
"728 0 LINE",
"728 26 LINE",
"710 26 LINE SMOOTH",
"686 26 OFFCURVE",
"657 38 OFFCURVE",
"648 61 CURVE SMOOTH",
"398 714 LINE",
"325 684 LINE",
"88 62 LINE SMOOTH",
"79 40 OFFCURVE",
"45 26 OFFCURVE",
"20 26 CURVE SMOOTH",
"5 26 LINE",
"5 0 LINE"
);
},
{
closed = 1;
nodes = (
"515 210 LINE",
"515 250 LINE",
"189 250 LINE",
"189 210 LINE"
);
},
{
closed = 1;
nodes = (
"279 781 OFFCURVE",
"297 800 OFFCURVE",
"297 827 CURVE SMOOTH",
"297 855 OFFCURVE",
"279 875 OFFCURVE",
"250 875 CURVE SMOOTH",
"222 875 OFFCURVE",
"204 855 OFFCURVE",
"204 827 CURVE SMOOTH",
"204 800 OFFCURVE",
"222 781 OFFCURVE",
"250 781 CURVE SMOOTH"
);
},
{
closed = 1;
nodes = (
"495 781 OFFCURVE",
"513 800 OFFCURVE",
"513 827 CURVE SMOOTH",
"513 855 OFFCURVE",
"495 875 OFFCURVE",
"466 875 CURVE SMOOTH",
"437 875 OFFCURVE",
"419 855 OFFCURVE",
"419 827 CURVE SMOOTH",
"419 800 OFFCURVE",
"437 781 OFFCURVE",
"466 781 CURVE SMOOTH"
);
}
);
width = 733;
}
);
leftKerningGroup = A;
note = Adieresis;
rightKerningGroup = A;
unicode = 00C4;
},
{
glyphname = Adotbelow;
lastChange = "2015-12-01 09:49:18 +0000";
layers = (
{
layerId = "0B1DFD06-3317-40CA-B510-4969A0718C16";
name = Regular;
paths = (
{
closed = 1;
nodes = (
"221 0 LINE",
"221 26 LINE",
"203 26 LINE SMOOTH",
"175 26 OFFCURVE",
"144 42 OFFCURVE",
"155 73 CURVE SMOOTH",
"348 591 LINE",
"536 73 LINE SMOOTH",
"547 43 OFFCURVE",
"530 26 OFFCURVE",
"492 26 CURVE SMOOTH",
"475 26 LINE",
"475 0 LINE",
"728 0 LINE",
"728 26 LINE",
"710 26 LINE SMOOTH",
"686 26 OFFCURVE",
"657 38 OFFCURVE",
"648 61 CURVE SMOOTH",
"398 714 LINE",
"325 684 LINE",
"88 62 LINE SMOOTH",
"79 40 OFFCURVE",
"45 26 OFFCURVE",
"20 26 CURVE SMOOTH",
"5 26 LINE",
"5 0 LINE"
);
},
{
closed = 1;
nodes = (
"395 -159 OFFCURVE",
"413 -140 OFFCURVE",
"413 -112 CURVE SMOOTH",
"413 -84 OFFCURVE",
"395 -64 OFFCURVE",
"367 -64 CURVE SMOOTH",
"339 -64 OFFCURVE",
"320 -84 OFFCURVE",
"320 -112 CURVE SMOOTH",
"320 -140 OFFCURVE",
"339 -159 OFFCURVE",
"367 -159 CURVE SMOOTH"
);
},
{
closed = 1;
nodes = (
"515 210 LINE",
"515 250 LINE",
"189 250 LINE",
"189 210 LINE"
);
}
);
width = 733;
}
);
leftKerningGroup = A;
note = Adotbelow;
rightKerningGroup = A;
unicode = 1EA0;
},
{
glyphname = Agrave;
lastChange = "2015-12-01 09:49:17 +0000";
layers = (
{
layerId = "0B1DFD06-3317-40CA-B510-4969A0718C16";
name = Regular;
paths = (
{
closed = 1;
nodes = (
"221 0 LINE",
"221 26 LINE",
"203 26 LINE SMOOTH",
"175 26 OFFCURVE",
"144 42 OFFCURVE",
"155 73 CURVE SMOOTH",
"348 591 LINE",
"536 73 LINE SMOOTH",
"547 43 OFFCURVE",
"530 26 OFFCURVE",
"492 26 CURVE SMOOTH",
"475 26 LINE",
"475 0 LINE",
"728 0 LINE",
"728 26 LINE",
"710 26 LINE SMOOTH",
"686 26 OFFCURVE",
"657 38 OFFCURVE",
"648 61 CURVE SMOOTH",
"398 714 LINE",
"325 684 LINE",
"88 62 LINE SMOOTH",
"79 40 OFFCURVE",
"45 26 OFFCURVE",
"20 26 CURVE SMOOTH",
"5 26 LINE",
"5 0 LINE"
);
},
{
closed = 1;
nodes = (
"515 210 LINE",
"515 250 LINE",
"189 250 LINE",
"189 210 LINE"
);
},
{
closed = 1;
nodes = (
"464 807 LINE",
"349 913 LINE",
"340 922 OFFCURVE",
"324 937 OFFCURVE",
"304 937 CURVE SMOOTH",
"284 937 OFFCURVE",
"272 924 OFFCURVE",
"272 908 CURVE SMOOTH",
"272 890 OFFCURVE",
"284 876 OFFCURVE",
"303 865 CURVE SMOOTH",
"446 782 LINE"
);
}
);
width = 733;
}
);
leftKerningGroup = A;
note = Agrave;
rightKerningGroup = A;
unicode = 00C0;
},
{
glyphname = Ahookabove;
lastChange = "2015-12-01 09:49:20 +0000";
layers = (
{
layerId = "0B1DFD06-3317-40CA-B510-4969A0718C16";
name = Regular;
paths = (
{
closed = 1;
nodes = (
"221 0 LINE",
"221 26 LINE",
"203 26 LINE SMOOTH",
"175 26 OFFCURVE",
"144 42 OFFCURVE",
"155 73 CURVE SMOOTH",
"348 591 LINE",
"536 73 LINE SMOOTH",
"547 43 OFFCURVE",
"530 26 OFFCURVE",
"492 26 CURVE SMOOTH",
"475 26 LINE",
"475 0 LINE",
"728 0 LINE",
"728 26 LINE",
"710 26 LINE SMOOTH",
"686 26 OFFCURVE",
"657 38 OFFCURVE",
"648 61 CURVE SMOOTH",
"398 714 LINE",
"325 684 LINE",
"88 62 LINE SMOOTH",
"79 40 OFFCURVE",
"45 26 OFFCURVE",
"20 26 CURVE SMOOTH",
"5 26 LINE",
"5 0 LINE"
);
},
{
closed = 1;
nodes = (
"515 210 LINE",
"515 250 LINE",
"189 250 LINE",
"189 210 LINE"
);
},
{
closed = 1;
nodes = (
"420 798 LINE",
"401 805 OFFCURVE",
"389 811 OFFCURVE",
"389 828 CURVE SMOOTH",
"389 861 OFFCURVE",
"478 876 OFFCURVE",
"478 927 CURVE SMOOTH",
"478 969 OFFCURVE",
"442 991 OFFCURVE",
"389 991 CURVE SMOOTH",
"342 991 OFFCURVE",
"301 974 OFFCURVE",
"301 940 CURVE SMOOTH",
"301 923 OFFCURVE",
"309 915 OFFCURVE",
"324 915 CURVE SMOOTH",
"347 915 OFFCURVE",
"349 934 OFFCURVE",
"352 942 CURVE SMOOTH",
"357 956 OFFCURVE",
"374 962 OFFCURVE",
"390 962 CURVE SMOOTH",
"411 962 OFFCURVE",
"424 947 OFFCURVE",
"424 930 CURVE SMOOTH",
"424 885 OFFCURVE",
"342 874 OFFCURVE",
"342 828 CURVE SMOOTH",
"342 801 OFFCURVE",
"360 778 OFFCURVE",
"411 778 CURVE"
);
}
);
width = 733;
}
);
leftKerningGroup = A;
note = Ahookabove;
rightKerningGroup = A;
unicode = 1EA2;
},
{
glyphname = Amacron;
lastChange = "2015-12-01 09:49:18 +0000";
layers = (
{
layerId = "0B1DFD06-3317-40CA-B510-4969A0718C16";
name = Regular;
paths = (
{
closed = 1;
nodes = (
"221 0 LINE",
"221 26 LINE",
"203 26 LINE SMOOTH",
"175 26 OFFCURVE",
"144 42 OFFCURVE",
"155 73 CURVE SMOOTH",
"348 591 LINE",
"536 73 LINE SMOOTH",
"547 43 OFFCURVE",
"530 26 OFFCURVE",
"492 26 CURVE SMOOTH",
"475 26 LINE",
"475 0 LINE",
"728 0 LINE",
"728 26 LINE",
"710 26 LINE SMOOTH",
"686 26 OFFCURVE",
"657 38 OFFCURVE",
"648 61 CURVE SMOOTH",
"398 714 LINE",
"325 684 LINE",
"88 62 LINE SMOOTH",
"79 40 OFFCURVE",
"45 26 OFFCURVE",
"20 26 CURVE SMOOTH",
"5 26 LINE",
"5 0 LINE"
);
},
{
closed = 1;
nodes = (
"515 210 LINE",
"515 250 LINE",
"189 250 LINE",
"189 210 LINE"
);
},
{
closed = 1;
nodes = (
"534 782 LINE",
"534 824 LINE",
"201 824 LINE",
"201 782 LINE"
);
}
);
width = 733;
}
);
leftKerningGroup = A;
note = Amacron;
rightKerningGroup = A;
unicode = 0100;
},
{
glyphname = Aogonek;
lastChange = "2015-12-01 09:49:18 +0000";
layers = (
{
layerId = "0B1DFD06-3317-40CA-B510-4969A0718C16";
name = Regular;
paths = (
{
closed = 1;
nodes = (
"221 0 LINE",
"221 26 LINE",
"203 26 LINE SMOOTH",
"175 26 OFFCURVE",
"144 42 OFFCURVE",
"155 73 CURVE SMOOTH",
"348 591 LINE",
"536 73 LINE SMOOTH",
"547 43 OFFCURVE",
"530 26 OFFCURVE",
"492 26 CURVE SMOOTH",
"475 26 LINE",
"475 0 LINE",
"728 0 LINE",
"728 26 LINE",
"710 26 LINE SMOOTH",
"686 26 OFFCURVE",
"657 38 OFFCURVE",
"648 61 CURVE SMOOTH",
"398 714 LINE",
"325 684 LINE",
"88 62 LINE SMOOTH",
"79 40 OFFCURVE",
"45 26 OFFCURVE",
"20 26 CURVE SMOOTH",
"5 26 LINE",
"5 0 LINE"
);
},
{
closed = 1;
nodes = (
"679 -196 OFFCURVE",
"707 -189 OFFCURVE",
"732 -172 CURVE",
"726 -152 LINE",
"710 -158 OFFCURVE",
"693 -162 OFFCURVE",
"680 -162 CURVE SMOOTH",
"647 -162 OFFCURVE",
"620 -146 OFFCURVE",
"620 -106 CURVE SMOOTH",
"620 -66 OFFCURVE",
"647 -26 OFFCURVE",
"693 4 CURVE",
"652 4 LINE",
"599 -22 OFFCURVE",
"559 -64 OFFCURVE",
"559 -114 CURVE SMOOTH",
"559 -147 OFFCURVE",
"578 -196 OFFCURVE",
"653 -196 CURVE SMOOTH"
);
},
{
closed = 1;
nodes = (
"515 210 LINE",
"515 250 LINE",
"189 250 LINE",
"189 210 LINE"
);
}
);
width = 733;
}
);
leftKerningGroup = A;
note = Aogonek;
rightKerningGroup = A;
unicode = 0104;
},
{
glyphname = Aring;
lastChange = "2015-12-01 09:49:17 +0000";
layers = (
{
layerId = "0B1DFD06-3317-40CA-B510-4969A0718C16";
name = Regular;
paths = (
{
closed = 1;
nodes = (
"221 0 LINE",
"221 26 LINE",
"203 26 LINE SMOOTH",
"175 26 OFFCURVE",
"144 42 OFFCURVE",
"155 73 CURVE SMOOTH",
"348 591 LINE",
"536 73 LINE SMOOTH",
"547 43 OFFCURVE",
"530 26 OFFCURVE",
"492 26 CURVE SMOOTH",
"475 26 LINE",
"475 0 LINE",
"728 0 LINE",
"728 26 LINE",
"710 26 LINE SMOOTH",
"686 26 OFFCURVE",
"657 38 OFFCURVE",
"648 61 CURVE SMOOTH",
"398 714 LINE",
"325 684 LINE",
"88 62 LINE SMOOTH",
"79 40 OFFCURVE",
"45 26 OFFCURVE",
"20 26 CURVE SMOOTH",
"5 26 LINE",
"5 0 LINE"
);
},
{
closed = 1;
nodes = (
"515 210 LINE",
"515 250 LINE",
"189 250 LINE",
"189 210 LINE"
);
},
{
closed = 1;
nodes = (
"421 753 OFFCURVE",
"459 789 OFFCURVE",
"459 842 CURVE SMOOTH",
"459 895 OFFCURVE",
"421 931 OFFCURVE",
"366 931 CURVE SMOOTH",
"310 931 OFFCURVE",
"271 895 OFFCURVE",
"271 842 CURVE SMOOTH",
"271 789 OFFCURVE",
"310 753 OFFCURVE",
"366 753 CURVE SMOOTH"
);
},
{
closed = 1;
nodes = (
"335 789 OFFCURVE",
"313 810 OFFCURVE",
"313 842 CURVE SMOOTH",
"313 875 OFFCURVE",
"335 896 OFFCURVE",
"366 896 CURVE SMOOTH",
"396 896 OFFCURVE",
"419 875 OFFCURVE",
"419 842 CURVE SMOOTH",
"419 810 OFFCURVE",
"396 789 OFFCURVE",
"366 789 CURVE SMOOTH"
);
}
);
width = 733;
}
);
leftKerningGroup = A;
note = Aring;
rightKerningGroup = A;
unicode = 00C5;
},
{
glyphname = Aringacute;
lastChange = "2015-12-01 09:49:18 +0000";
layers = (
{
layerId = "0B1DFD06-3317-40CA-B510-4969A0718C16";
name = Regular;
paths = (
{
closed = 1;
nodes = (
"221 0 LINE",
"221 26 LINE",
"203 26 LINE SMOOTH",
"175 26 OFFCURVE",
"144 42 OFFCURVE",
"155 73 CURVE SMOOTH",
"348 591 LINE",
"536 73 LINE SMOOTH",
"547 43 OFFCURVE",
"530 26 OFFCURVE",
"492 26 CURVE SMOOTH",
"475 26 LINE",
"475 0 LINE",
"728 0 LINE",
"728 26 LINE",
"710 26 LINE SMOOTH",
"686 26 OFFCURVE",
"657 38 OFFCURVE",
"648 61 CURVE SMOOTH",
"398 714 LINE",
"325 684 LINE",
"88 62 LINE SMOOTH",
"79 40 OFFCURVE",
"45 26 OFFCURVE",
"20 26 CURVE SMOOTH",
"5 26 LINE",
"5 0 LINE"
);
},
{
closed = 1;
nodes = (
"515 210 LINE",
"515 250 LINE",
"189 250 LINE",
"189 210 LINE"
);
},
{
closed = 1;
nodes = (
"421 753 OFFCURVE",
"459 789 OFFCURVE",
"459 842 CURVE SMOOTH",
"459 895 OFFCURVE",
"421 931 OFFCURVE",
"366 931 CURVE SMOOTH",
"310 931 OFFCURVE",
"271 895 OFFCURVE",
"271 842 CURVE SMOOTH",
"271 789 OFFCURVE",
"310 753 OFFCURVE",
"366 753 CURVE SMOOTH"
);
},
{
closed = 1;
nodes = (
"335 789 OFFCURVE",
"313 810 OFFCURVE",
"313 842 CURVE SMOOTH",
"313 875 OFFCURVE",
"335 896 OFFCURVE",
"366 896 CURVE SMOOTH",
"396 896 OFFCURVE",
"419 875 OFFCURVE",
"419 842 CURVE SMOOTH",
"419 810 OFFCURVE",
"396 789 OFFCURVE",
"366 789 CURVE SMOOTH"
);
},
{
closed = 1;
nodes = (
"430 1052 LINE SMOOTH",
"452 1064 OFFCURVE",
"464 1077 OFFCURVE",
"464 1094 CURVE SMOOTH",
"464 1109 OFFCURVE",
"452 1124 OFFCURVE",
"430 1124 CURVE SMOOTH",
"409 1124 OFFCURVE",
"394 1108 OFFCURVE",
"386 1101 CURVE SMOOTH",
"271 994 LINE",
"288 969 LINE"
);
}
);
width = 733;
}
);
leftKerningGroup = A;
note = Aringacute;
rightKerningGroup = A;
unicode = 01FA;
},
{
glyphname = Atilde;
lastChange = "2015-12-01 09:49:19 +0000";
layers = (
{
layerId = "0B1DFD06-3317-40CA-B510-4969A0718C16";
name = Regular;
paths = (
{
closed = 1;
nodes = (
"221 0 LINE",
"221 26 LINE",
"203 26 LINE SMOOTH",
"175 26 OFFCURVE",
"144 42 OFFCURVE",
"155 73 CURVE SMOOTH",
"348 591 LINE",
"536 73 LINE SMOOTH",
"547 43 OFFCURVE",
"530 26 OFFCURVE",
"492 26 CURVE SMOOTH",
"475 26 LINE",
"475 0 LINE",
"728 0 LINE",
"728 26 LINE",
"710 26 LINE SMOOTH",
"686 26 OFFCURVE",
"657 38 OFFCURVE",
"648 61 CURVE SMOOTH",
"398 714 LINE",
"325 684 LINE",
"88 62 LINE SMOOTH",
"79 40 OFFCURVE",
"45 26 OFFCURVE",
"20 26 CURVE SMOOTH",
"5 26 LINE",
"5 0 LINE"
);
},
{
closed = 1;
nodes = (
"515 210 LINE",
"515 250 LINE",
"189 250 LINE",
"189 210 LINE"
);
},
{
closed = 1;
nodes = (
"237 818 OFFCURVE",
"255 839 OFFCURVE",
"288 839 CURVE SMOOTH",
"339 839 OFFCURVE",
"388 785 OFFCURVE",
"439 785 CURVE SMOOTH",
"497 785 OFFCURVE",
"527 833 OFFCURVE",
"539 885 CURVE",
"518 896 LINE",
"502 856 OFFCURVE",
"486 834 OFFCURVE",
"452 834 CURVE SMOOTH",
"403 834 OFFCURVE",
"351 887 OFFCURVE",
"300 887 CURVE SMOOTH",
"246 887 OFFCURVE",
"213 843 OFFCURVE",
"201 791 CURVE",
"223 780 LINE"
);
}
);
width = 733;
}
);
leftKerningGroup = A;
note = Atilde;
rightKerningGroup = A;
unicode = 00C3;
},
{
glyphname = AE;
lastChange = "2015-12-01 09:49:18 +0000";
layers = (
{
layerId = "0B1DFD06-3317-40CA-B510-4969A0718C16";
name = Regular;
paths = (
{
closed = 1;
nodes = (
"227 0 LINE",
"227 26 LINE",
"209 26 LINE SMOOTH",
"183 26 OFFCURVE",
"146 43 OFFCURVE",
"159 65 CURVE SMOOTH",
"244 210 LINE",
"493 210 LINE",
"493 62 LINE SMOOTH",
"493 37 OFFCURVE",
"470 26 OFFCURVE",
"439 26 CURVE SMOOTH",
"416 26 LINE",
"416 0 LINE",
"925 0 LINE",
"942 179 LINE",
"916 179 LINE",
"910 124 OFFCURVE",
"891 40 OFFCURVE",
"827 40 CURVE SMOOTH",
"591 40 LINE",
"591 348 LINE",
"753 348 LINE SMOOTH",
"797 348 OFFCURVE",
"801 300 OFFCURVE",
"805 251 CURVE",
"829 251 LINE",
"829 485 LINE",
"805 485 LINE",
"801 436 OFFCURVE",
"797 388 OFFCURVE",
"753 388 CURVE SMOOTH",
"591 388 LINE",
"591 659 LINE",
"812 659 LINE SMOOTH",
"887 659 OFFCURVE",
"897 567 OFFCURVE",
"899 527 CURVE",
"926 527 LINE",
"926 700 LINE",
"405 700 LINE",
"405 673 LINE",
"436 673 LINE SMOOTH",
"449 673 OFFCURVE",
"453 657 OFFCURVE",
"447 647 CURVE SMOOTH",
"109 88 LINE SMOOTH",
"91 57 OFFCURVE",
"71 26 OFFCURVE",
"26 26 CURVE SMOOTH",
"11 26 LINE",
"11 0 LINE"
);
},
{
closed = 1;
nodes = (
"493 622 LINE",
"493 250 LINE",
"268 250 LINE"
);
}
);
width = 978;
}
);
leftKerningGroup = A;
note = AE;
unicode = 00C6;
},
{
glyphname = AEacute;
lastChange = "2015-12-01 09:49:17 +0000";
layers = (
{
layerId = "0B1DFD06-3317-40CA-B510-4969A0718C16";
name = Regular;
paths = (
{
closed = 1;
nodes = (
"227 0 LINE",
"227 26 LINE",
"209 26 LINE SMOOTH",
"183 26 OFFCURVE",
"146 43 OFFCURVE",
"159 65 CURVE SMOOTH",
"244 210 LINE",
"493 210 LINE",
"493 62 LINE SMOOTH",
"493 37 OFFCURVE",
"470 26 OFFCURVE",
"439 26 CURVE SMOOTH",
"416 26 LINE",
"416 0 LINE",
"925 0 LINE",
"942 179 LINE",
"916 179 LINE",
"910 124 OFFCURVE",
"891 40 OFFCURVE",
"827 40 CURVE SMOOTH",
"591 40 LINE",
"591 348 LINE",
"753 348 LINE SMOOTH",
"797 348 OFFCURVE",
"801 300 OFFCURVE",
"805 251 CURVE",
"829 251 LINE",
"829 485 LINE",
"805 485 LINE",
"801 436 OFFCURVE",
"797 388 OFFCURVE",
"753 388 CURVE SMOOTH",
"591 388 LINE",
"591 659 LINE",
"812 659 LINE SMOOTH",
"887 659 OFFCURVE",
"897 567 OFFCURVE",
"899 527 CURVE",
"926 527 LINE",
"926 700 LINE",
"405 700 LINE",
"405 673 LINE",
"436 673 LINE SMOOTH",
"449 673 OFFCURVE",
"453 657 OFFCURVE",
"447 647 CURVE SMOOTH",
"109 88 LINE SMOOTH",
"91 57 OFFCURVE",
"71 26 OFFCURVE",
"26 26 CURVE SMOOTH",
"11 26 LINE",
"11 0 LINE"
);
},
{
closed = 1;
nodes = (
"493 622 LINE",
"493 250 LINE",
"268 250 LINE"
);
},
{
closed = 1;
nodes = (
"769 865 LINE SMOOTH",
"791 877 OFFCURVE",
"803 890 OFFCURVE",
"803 907 CURVE SMOOTH",
"803 922 OFFCURVE",
"791 937 OFFCURVE",
"769 937 CURVE SMOOTH",
"748 937 OFFCURVE",
"733 921 OFFCURVE",
"725 914 CURVE SMOOTH",
"610 807 LINE",
"627 782 LINE"
);
}
);
width = 978;
}
);
leftKerningGroup = A;
note = AEacute;
unicode = 01FC;
},
{
glyphname = B;
lastChange = "2015-12-01 09:49:18 +0000";
layers = (
{
layerId = "0B1DFD06-3317-40CA-B510-4969A0718C16";
name = Regular;
paths = (
{
closed = 1;
nodes = (
"356 0 LINE SMOOTH",
"505 0 OFFCURVE",
"580 70 OFFCURVE",
"580 189 CURVE SMOOTH",
"580 261 OFFCURVE",
"549 347 OFFCURVE",
"411 367 CURVE",
"411 368 OFFCURVE",
"411 370 OFFCURVE",
"411 370 CURVE",
"494 392 OFFCURVE",
"539 459 OFFCURVE",
"539 534 CURVE SMOOTH",
"539 642 OFFCURVE",
"467 700 OFFCURVE",
"325 700 CURVE SMOOTH",
"18 700 LINE",
"18 673 LINE",
"47 673 LINE SMOOTH",
"86 673 OFFCURVE",
"105 662 OFFCURVE",
"105 637 CURVE SMOOTH",
"105 62 LINE SMOOTH",
"105 37 OFFCURVE",
"86 26 OFFCURVE",
"47 26 CURVE SMOOTH",
"18 26 LINE",
"18 0 LINE"
);
},
{
closed = 1;
nodes = (
"203 346 LINE",
"302 346 LINE SMOOTH",
"428 346 OFFCURVE",
"485 297 OFFCURVE",
"485 193 CURVE SMOOTH",
"485 95 OFFCURVE",
"430 40 OFFCURVE",
"315 40 CURVE SMOOTH",
"203 40 LINE"
);
},
{
closed = 1;
nodes = (
"203 659 LINE",
"291 659 LINE SMOOTH",
"391 659 OFFCURVE",
"442 620 OFFCURVE",
"442 531 CURVE SMOOTH",
"442 446 OFFCURVE",
"389 386 OFFCURVE",
"302 386 CURVE SMOOTH",
"203 386 LINE"
);
}
);
width = 609;
}
);
note = B;
unicode = 0042;
},
{
glyphname = C;
lastChange = "2015-12-01 09:49:14 +0000";
layers = (
{
layerId = "0B1DFD06-3317-40CA-B510-4969A0718C16";
name = Regular;
paths = (
{
closed = 1;
nodes = (
"513 -10 OFFCURVE",
"616 59 OFFCURVE",
"640 171 CURVE",
"601 171 LINE",
"567 69 OFFCURVE",
"469 31 OFFCURVE",
"386 31 CURVE SMOOTH",
"218 31 OFFCURVE",
"141 159 OFFCURVE",
"141 350 CURVE SMOOTH",
"141 541 OFFCURVE",
"230 668 OFFCURVE",
"397 668 CURVE SMOOTH",
"499 668 OFFCURVE",
"586 615 OFFCURVE",
"597 513 CURVE",
"626 513 LINE",
"626 705 LINE",
"590 705 LINE",
"590 661 LINE SMOOTH",
"590 650 OFFCURVE",
"586 646 OFFCURVE",
"581 646 CURVE SMOOTH",
"578 646 OFFCURVE",
"574 649 OFFCURVE",
"572 650 CURVE",
"540 673 OFFCURVE",
"475 710 OFFCURVE",
"378 710 CURVE SMOOTH",
"165 710 OFFCURVE",
"42 574 OFFCURVE",
"42 350 CURVE SMOOTH",
"42 124 OFFCURVE",
"157 -10 OFFCURVE",
"371 -10 CURVE SMOOTH"
);
}
);
width = 671;
}
);
leftKerningGroup = C;
note = C;
unicode = 0043;
},
{
glyphname = Cacute;
lastChange = "2015-12-01 09:49:18 +0000";
layers = (
{
layerId = "0B1DFD06-3317-40CA-B510-4969A0718C16";
name = Regular;
paths = (
{
closed = 1;
nodes = (
"513 -10 OFFCURVE",
"616 59 OFFCURVE",
"640 171 CURVE",
"601 171 LINE",
"567 69 OFFCURVE",
"469 31 OFFCURVE",
"386 31 CURVE SMOOTH",
"218 31 OFFCURVE",
"141 159 OFFCURVE",
"141 350 CURVE SMOOTH",
"141 541 OFFCURVE",
"230 668 OFFCURVE",
"397 668 CURVE SMOOTH",
"499 668 OFFCURVE",
"586 615 OFFCURVE",
"597 513 CURVE",
"626 513 LINE",
"626 705 LINE",
"590 705 LINE",
"590 661 LINE SMOOTH",
"590 650 OFFCURVE",
"586 646 OFFCURVE",
"581 646 CURVE SMOOTH",
"578 646 OFFCURVE",
"574 649 OFFCURVE",
"572 650 CURVE",
"540 673 OFFCURVE",
"475 710 OFFCURVE",
"378 710 CURVE SMOOTH",
"165 710 OFFCURVE",
"42 574 OFFCURVE",
"42 350 CURVE SMOOTH",
"42 124 OFFCURVE",
"157 -10 OFFCURVE",
"371 -10 CURVE SMOOTH"
);
},
{
closed = 1;
nodes = (
"452 865 LINE SMOOTH",
"474 877 OFFCURVE",
"486 890 OFFCURVE",
"486 907 CURVE SMOOTH",
"486 922 OFFCURVE",
"474 937 OFFCURVE",
"452 937 CURVE SMOOTH",
"431 937 OFFCURVE",
"416 921 OFFCURVE",
"408 914 CURVE SMOOTH",
"293 807 LINE",
"310 782 LINE"
);
}
);
width = 671;
}
);
leftKerningGroup = C;
note = Cacute;
unicode = 0106;
},
{
glyphname = Ccaron;
lastChange = "2015-12-01 09:49:19 +0000";
layers = (
{
layerId = "0B1DFD06-3317-40CA-B510-4969A0718C16";
name = Regular;
paths = (
{
closed = 1;
nodes = (
"513 -10 OFFCURVE",
"616 59 OFFCURVE",
"640 171 CURVE",
"601 171 LINE",
"567 69 OFFCURVE",
"469 31 OFFCURVE",
"386 31 CURVE SMOOTH",
"218 31 OFFCURVE",
"141 159 OFFCURVE",
"141 350 CURVE SMOOTH",
"141 541 OFFCURVE",
"230 668 OFFCURVE",
"397 668 CURVE SMOOTH",
"499 668 OFFCURVE",
"586 615 OFFCURVE",
"597 513 CURVE",
"626 513 LINE",
"626 705 LINE",
"590 705 LINE",
"590 661 LINE SMOOTH",
"590 650 OFFCURVE",
"586 646 OFFCURVE",
"581 646 CURVE SMOOTH",
"578 646 OFFCURVE",
"574 649 OFFCURVE",
"572 650 CURVE",
"540 673 OFFCURVE",
"475 710 OFFCURVE",
"378 710 CURVE SMOOTH",
"165 710 OFFCURVE",
"42 574 OFFCURVE",
"42 350 CURVE SMOOTH",
"42 124 OFFCURVE",
"157 -10 OFFCURVE",
"371 -10 CURVE SMOOTH"
);
},
{
closed = 1;
nodes = (
"402 782 LINE",
"526 911 LINE",
"507 932 LINE",
"399 847 LINE",
"391 840 OFFCURVE",
"382 836 OFFCURVE",
"376 836 CURVE SMOOTH",
"370 836 OFFCURVE",
"362 840 OFFCURVE",
"352 847 CURVE",
"244 932 LINE",
"225 911 LINE",
"349 782 LINE"
);
}
);
width = 671;
}
);
leftKerningGroup = C;
note = Ccaron;
unicode = 010C;
},
{
glyphname = Ccedilla;
lastChange = "2015-12-01 09:49:18 +0000";
layers = (
{
layerId = "0B1DFD06-3317-40CA-B510-4969A0718C16";
name = Regular;
paths = (
{
closed = 1;
nodes = (
"513 -10 OFFCURVE",
"616 59 OFFCURVE",
"640 171 CURVE",
"601 171 LINE",
"567 69 OFFCURVE",
"469 31 OFFCURVE",
"386 31 CURVE SMOOTH",
"218 31 OFFCURVE",
"141 159 OFFCURVE",
"141 350 CURVE SMOOTH",
"141 541 OFFCURVE",
"230 668 OFFCURVE",
"397 668 CURVE SMOOTH",
"499 668 OFFCURVE",
"586 615 OFFCURVE",
"597 513 CURVE",
"626 513 LINE",
"626 705 LINE",
"590 705 LINE",
"590 661 LINE SMOOTH",
"590 650 OFFCURVE",
"586 646 OFFCURVE",
"581 646 CURVE SMOOTH",
"578 646 OFFCURVE",
"574 649 OFFCURVE",
"572 650 CURVE",
"540 673 OFFCURVE",
"475 710 OFFCURVE",
"378 710 CURVE SMOOTH",
"165 710 OFFCURVE",
"42 574 OFFCURVE",
"42 350 CURVE SMOOTH",
"42 124 OFFCURVE",
"157 -10 OFFCURVE",
"371 -10 CURVE SMOOTH"
);
},
{
closed = 1;
nodes = (
"399 -217 OFFCURVE",
"472 -200 OFFCURVE",
"472 -129 CURVE SMOOTH",
"472 -72 OFFCURVE",
"412 -58 OFFCURVE",
"370 -58 CURVE",
"406 10 LINE",
"363 10 LINE",
"314 -75 LINE",
"326 -91 LINE",
"350 -91 OFFCURVE",
"409 -95 OFFCURVE",
"409 -131 CURVE SMOOTH",
"409 -173 OFFCURVE",
"370 -185 OFFCURVE",
"321 -185 CURVE SMOOTH",
"311 -185 OFFCURVE",
"299 -185 OFFCURVE",
"290 -183 CURVE",
"284 -212 LINE",
"300 -215 OFFCURVE",
"314 -217 OFFCURVE",
"333 -217 CURVE SMOOTH"
);
}
);
width = 671;
}
);
leftKerningGroup = C;
note = Ccedilla;
unicode = 00C7;
},
{
glyphname = Ccircumflex;
lastChange = "2015-12-01 09:49:19 +0000";
layers = (
{
layerId = "0B1DFD06-3317-40CA-B510-4969A0718C16";
name = Regular;
paths = (
{
closed = 1;
nodes = (
"513 -10 OFFCURVE",
"616 59 OFFCURVE",
"640 171 CURVE",
"601 171 LINE",
"567 69 OFFCURVE",
"469 31 OFFCURVE",
"386 31 CURVE SMOOTH",
"218 31 OFFCURVE",
"141 159 OFFCURVE",
"141 350 CURVE SMOOTH",
"141 541 OFFCURVE",
"230 668 OFFCURVE",
"397 668 CURVE SMOOTH",
"499 668 OFFCURVE",
"586 615 OFFCURVE",
"597 513 CURVE",
"626 513 LINE",
"626 705 LINE",
"590 705 LINE",
"590 661 LINE SMOOTH",
"590 650 OFFCURVE",
"586 646 OFFCURVE",
"581 646 CURVE SMOOTH",
"578 646 OFFCURVE",
"574 649 OFFCURVE",
"572 650 CURVE",
"540 673 OFFCURVE",
"475 710 OFFCURVE",
"378 710 CURVE SMOOTH",
"165 710 OFFCURVE",
"42 574 OFFCURVE",
"42 350 CURVE SMOOTH",
"42 124 OFFCURVE",
"157 -10 OFFCURVE",
"371 -10 CURVE SMOOTH"
);
},
{
closed = 1;
nodes = (
"356 868 LINE SMOOTH",
"364 874 OFFCURVE",
"374 879 OFFCURVE",
"380 879 CURVE SMOOTH",
"386 879 OFFCURVE",
"394 874 OFFCURVE",
"403 868 CURVE",
"511 782 LINE",
"530 803 LINE",
"406 932 LINE",
"353 932 LINE",
"229 803 LINE",
"248 782 LINE"
);
}
);
width = 671;
}
);
leftKerningGroup = C;
note = Ccircumflex;
unicode = 0108;
},
{
glyphname = Cdotaccent;
lastChange = "2015-12-01 09:49:19 +0000";
layers = (
{
layerId = "0B1DFD06-3317-40CA-B510-4969A0718C16";
name = Regular;
paths = (
{
closed = 1;
nodes = (
"513 -10 OFFCURVE",
"616 59 OFFCURVE",
"640 171 CURVE",
"601 171 LINE",
"567 69 OFFCURVE",
"469 31 OFFCURVE",
"386 31 CURVE SMOOTH",
"218 31 OFFCURVE",
"141 159 OFFCURVE",
"141 350 CURVE SMOOTH",
"141 541 OFFCURVE",
"230 668 OFFCURVE",
"397 668 CURVE SMOOTH",
"499 668 OFFCURVE",
"586 615 OFFCURVE",
"597 513 CURVE",
"626 513 LINE",
"626 705 LINE",
"590 705 LINE",
"590 661 LINE SMOOTH",
"590 650 OFFCURVE",
"586 646 OFFCURVE",
"581 646 CURVE SMOOTH",
"578 646 OFFCURVE",
"574 649 OFFCURVE",
"572 650 CURVE",
"540 673 OFFCURVE",
"475 710 OFFCURVE",
"378 710 CURVE SMOOTH",
"165 710 OFFCURVE",
"42 574 OFFCURVE",
"42 350 CURVE SMOOTH",
"42 124 OFFCURVE",
"157 -10 OFFCURVE",
"371 -10 CURVE SMOOTH"
);
},
{
closed = 1;
nodes = (
"416 765 OFFCURVE",
"434 784 OFFCURVE",
"434 811 CURVE SMOOTH",
"434 839 OFFCURVE",
"416 858 OFFCURVE",
"388 858 CURVE SMOOTH",
"359 858 OFFCURVE",
"341 839 OFFCURVE",
"341 811 CURVE SMOOTH",
"341 784 OFFCURVE",
"359 765 OFFCURVE",
"388 765 CURVE SMOOTH"
);
}
);
width = 671;
}
);
leftKerningGroup = C;
note = Cdotaccent;
unicode = 010A;
},
{
glyphname = D;
lastChange = "2015-12-01 09:49:19 +0000";
layers = (
{
layerId = "0B1DFD06-3317-40CA-B510-4969A0718C16";
name = Regular;
paths = (
{
closed = 1;
nodes = (
"332 0 LINE SMOOTH",
"544 0 OFFCURVE",
"648 121 OFFCURVE",
"648 350 CURVE SMOOTH",
"648 576 OFFCURVE",
"545 700 OFFCURVE",
"333 700 CURVE SMOOTH",
"17 700 LINE",
"17 673 LINE",
"47 673 LINE SMOOTH",
"85 673 OFFCURVE",
"105 662 OFFCURVE",
"105 637 CURVE SMOOTH",
"105 62 LINE SMOOTH",
"105 37 OFFCURVE",
"85 26 OFFCURVE",
"47 26 CURVE SMOOTH",
"17 26 LINE",
"17 0 LINE"
);
},
{
closed = 1;
nodes = (
"203 660 LINE",
"332 660 LINE SMOOTH",
"479 660 OFFCURVE",
"549 543 OFFCURVE",
"549 350 CURVE SMOOTH",
"549 155 OFFCURVE",
"477 39 OFFCURVE",
"330 39 CURVE SMOOTH",
"203 39 LINE"
);
}
);
width = 689;
}
);
note = D;
rightKerningGroup = D;
unicode = 0044;
},
{
glyphname = Eth;
lastChange = "2015-12-01 09:51:55 +0000";
layers = (
{
layerId = "0B1DFD06-3317-40CA-B510-4969A0718C16";
name = Regular;
paths = (
{
closed = 1;
nodes = (
"332 0 LINE SMOOTH",
"544 0 OFFCURVE",
"648 121 OFFCURVE",
"648 350 CURVE SMOOTH",
"648 576 OFFCURVE",
"545 700 OFFCURVE",
"333 700 CURVE SMOOTH",
"17 700 LINE",
"17 673 LINE",
"47 673 LINE SMOOTH",
"85 673 OFFCURVE",
"105 662 OFFCURVE",
"105 637 CURVE SMOOTH",
"105 62 LINE SMOOTH",
"105 37 OFFCURVE",
"85 26 OFFCURVE",
"47 26 CURVE SMOOTH",
"17 26 LINE",
"17 0 LINE"
);
},
{
closed = 1;
nodes = (
"203 660 LINE",
"332 660 LINE SMOOTH",
"479 660 OFFCURVE",
"549 543 OFFCURVE",
"549 350 CURVE SMOOTH",
"549 155 OFFCURVE",
"477 39 OFFCURVE",
"330 39 CURVE SMOOTH",
"203 39 LINE"
);
},
{
closed = 1;
nodes = (
"413 326 LINE",
"413 372 LINE",
"27 372 LINE",
"27 326 LINE"
);
}
);
width = 689;
}
);
note = Eth;
rightKerningGroup = D;
unicode = 00D0;
},
{
glyphname = Dcaron;
lastChange = "2015-12-01 09:49:18 +0000";
layers = (
{
layerId = "0B1DFD06-3317-40CA-B510-4969A0718C16";
name = Regular;
paths = (
{
closed = 1;
nodes = (
"332 0 LINE SMOOTH",
"544 0 OFFCURVE",
"648 121 OFFCURVE",
"648 350 CURVE SMOOTH",
"648 576 OFFCURVE",
"545 700 OFFCURVE",
"333 700 CURVE SMOOTH",
"17 700 LINE",
"17 673 LINE",
"47 673 LINE SMOOTH",
"85 673 OFFCURVE",
"105 662 OFFCURVE",
"105 637 CURVE SMOOTH",
"105 62 LINE SMOOTH",
"105 37 OFFCURVE",
"85 26 OFFCURVE",
"47 26 CURVE SMOOTH",
"17 26 LINE",
"17 0 LINE"
);
},
{
closed = 1;
nodes = (
"203 660 LINE",
"332 660 LINE SMOOTH",
"479 660 OFFCURVE",
"549 543 OFFCURVE",
"549 350 CURVE SMOOTH",
"549 155 OFFCURVE",
"477 39 OFFCURVE",
"330 39 CURVE SMOOTH",
"203 39 LINE"
);
},
{
closed = 1;
nodes = (
"355 799 LINE",
"479 928 LINE",
"460 949 LINE",
"352 864 LINE",
"344 857 OFFCURVE",
"335 853 OFFCURVE",
"329 853 CURVE SMOOTH",
"323 853 OFFCURVE",
"315 857 OFFCURVE",
"305 864 CURVE",
"197 949 LINE",
"178 928 LINE",
"302 799 LINE"
);
}
);
width = 689;
}
);
note = Dcaron;
rightKerningGroup = D;
unicode = 010E;
},
{
glyphname = Dcroat;
lastChange = "2015-12-01 09:51:59 +0000";
layers = (
{
layerId = "0B1DFD06-3317-40CA-B510-4969A0718C16";
name = Regular;
paths = (
{
closed = 1;
nodes = (
"332 0 LINE SMOOTH",
"544 0 OFFCURVE",
"648 121 OFFCURVE",
"648 350 CURVE SMOOTH",
"648 576 OFFCURVE",
"545 700 OFFCURVE",
"333 700 CURVE SMOOTH",
"17 700 LINE",
"17 673 LINE",
"47 673 LINE SMOOTH",
"85 673 OFFCURVE",
"105 662 OFFCURVE",
"105 637 CURVE SMOOTH",
"105 62 LINE SMOOTH",
"105 37 OFFCURVE",
"85 26 OFFCURVE",
"47 26 CURVE SMOOTH",
"17 26 LINE",
"17 0 LINE"
);
},
{
closed = 1;
nodes = (
"203 660 LINE",
"332 660 LINE SMOOTH",
"479 660 OFFCURVE",
"549 543 OFFCURVE",
"549 350 CURVE SMOOTH",
"549 155 OFFCURVE",
"477 39 OFFCURVE",
"330 39 CURVE SMOOTH",
"203 39 LINE"
);
},
{
closed = 1;
nodes = (
"413 326 LINE",
"413 372 LINE",
"27 372 LINE",
"27 326 LINE"
);
}
);
width = 689;
}
);
note = Dcroat;
rightKerningGroup = D;
unicode = 0110;
},
{
glyphname = Ddotbelow;
lastChange = "2015-12-01 09:52:05 +0000";
layers = (
{
layerId = "0B1DFD06-3317-40CA-B510-4969A0718C16";
name = Regular;
paths = (
{
closed = 1;
nodes = (
"332 0 LINE SMOOTH",
"544 0 OFFCURVE",
"648 121 OFFCURVE",
"648 350 CURVE SMOOTH",
"648 576 OFFCURVE",
"545 700 OFFCURVE",
"333 700 CURVE SMOOTH",
"17 700 LINE",
"17 673 LINE",
"47 673 LINE SMOOTH",
"85 673 OFFCURVE",
"105 662 OFFCURVE",
"105 637 CURVE SMOOTH",
"105 62 LINE SMOOTH",
"105 37 OFFCURVE",
"85 26 OFFCURVE",
"47 26 CURVE SMOOTH",
"17 26 LINE",
"17 0 LINE"
);
},
{
closed = 1;
nodes = (
"203 660 LINE",
"332 660 LINE SMOOTH",
"479 660 OFFCURVE",
"549 543 OFFCURVE",
"549 350 CURVE SMOOTH",
"549 155 OFFCURVE",
"477 39 OFFCURVE",
"330 39 CURVE SMOOTH",
"203 39 LINE"
);
},
{
closed = 1;
nodes = (
"278 -140 OFFCURVE",
"297 -159 OFFCURVE",
"325 -159 CURVE SMOOTH",
"353 -159 OFFCURVE",
"371 -140 OFFCURVE",
"371 -112 CURVE SMOOTH",
"371 -84 OFFCURVE",
"353 -64 OFFCURVE",
"325 -64 CURVE SMOOTH",
"297 -64 OFFCURVE",
"278 -84 OFFCURVE",
"278 -112 CURVE SMOOTH"
);
}
);
width = 689;
}
);
note = Ddotbelow;
rightKerningGroup = D;
unicode = 1E0C;
},
{
glyphname = Dlinebelow;
lastChange = "2015-12-01 09:52:09 +0000";
layers = (
{
layerId = "0B1DFD06-3317-40CA-B510-4969A0718C16";
name = Regular;
paths = (
{
closed = 1;
nodes = (
"332 0 LINE SMOOTH",
"544 0 OFFCURVE",
"648 121 OFFCURVE",
"648 350 CURVE SMOOTH",
"648 576 OFFCURVE",
"545 700 OFFCURVE",
"333 700 CURVE SMOOTH",
"17 700 LINE",
"17 673 LINE",
"47 673 LINE SMOOTH",
"85 673 OFFCURVE",
"105 662 OFFCURVE",
"105 637 CURVE SMOOTH",
"105 62 LINE SMOOTH",
"105 37 OFFCURVE",
"85 26 OFFCURVE",
"47 26 CURVE SMOOTH",
"17 26 LINE",
"17 0 LINE"
);
},
{
closed = 1;
nodes = (
"203 660 LINE",
"332 660 LINE SMOOTH",
"479 660 OFFCURVE",
"549 543 OFFCURVE",
"549 350 CURVE SMOOTH",
"549 155 OFFCURVE",
"477 39 OFFCURVE",
"330 39 CURVE SMOOTH",
"203 39 LINE"
);
},
{
closed = 1;
nodes = (
"492 -110 LINE",
"492 -72 LINE",
"160 -72 LINE",
"160 -110 LINE"
);
}
);
width = 689;
}
);
note = Dlinebelow;
rightKerningGroup = D;
unicode = 1E0E;
},
{
glyphname = E;
lastChange = "2015-12-01 09:49:18 +0000";
layers = (
{
layerId = "0B1DFD06-3317-40CA-B510-4969A0718C16";
name = Regular;
paths = (
{
closed = 1;
nodes = (
"554 0 LINE",
"571 179 LINE",
"544 179 LINE",
"538 124 OFFCURVE",
"520 40 OFFCURVE",
"456 40 CURVE SMOOTH",
"201 40 LINE",
"201 659 LINE",
"441 659 LINE SMOOTH",
"516 659 OFFCURVE",
"525 567 OFFCURVE",
"528 527 CURVE",
"555 527 LINE",
"555 700 LINE",
"16 700 LINE",
"16 673 LINE",
"44 673 LINE SMOOTH",
"83 673 OFFCURVE",
"103 662 OFFCURVE",
"103 637 CURVE SMOOTH",
"103 62 LINE SMOOTH",
"103 37 OFFCURVE",
"83 26 OFFCURVE",
"44 26 CURVE SMOOTH",
"16 26 LINE",
"16 0 LINE"
);
},
{
closed = 1;
nodes = (
"455 251 LINE",
"455 485 LINE",
"431 485 LINE",
"427 436 OFFCURVE",
"424 388 OFFCURVE",
"379 388 CURVE SMOOTH",
"162 388 LINE",
"162 348 LINE",
"379 348 LINE SMOOTH",
"424 348 OFFCURVE",
"427 300 OFFCURVE",
"431 251 CURVE"
);
}
);
width = 607;
}
);
note = E;
unicode = 0045;
},
{
glyphname = Eacute;
lastChange = "2015-12-01 09:49:19 +0000";
layers = (
{
layerId = "0B1DFD06-3317-40CA-B510-4969A0718C16";
name = Regular;
paths = (
{
closed = 1;
nodes = (
"554 0 LINE",
"571 179 LINE",
"544 179 LINE",
"538 124 OFFCURVE",
"520 40 OFFCURVE",
"456 40 CURVE SMOOTH",
"201 40 LINE",
"201 659 LINE",
"441 659 LINE SMOOTH",
"516 659 OFFCURVE",
"525 567 OFFCURVE",
"528 527 CURVE",
"555 527 LINE",
"555 700 LINE",
"16 700 LINE",
"16 673 LINE",
"44 673 LINE SMOOTH",
"83 673 OFFCURVE",
"103 662 OFFCURVE",
"103 637 CURVE SMOOTH",
"103 62 LINE SMOOTH",
"103 37 OFFCURVE",
"83 26 OFFCURVE",
"44 26 CURVE SMOOTH",
"16 26 LINE",
"16 0 LINE"
);
},
{
closed = 1;
nodes = (
"455 251 LINE",
"455 485 LINE",
"431 485 LINE",
"427 436 OFFCURVE",
"424 388 OFFCURVE",
"379 388 CURVE SMOOTH",
"162 388 LINE",
"162 348 LINE",
"379 348 LINE SMOOTH",
"424 348 OFFCURVE",
"427 300 OFFCURVE",
"431 251 CURVE"
);
},
{
closed = 1;
nodes = (
"398 865 LINE SMOOTH",
"420 877 OFFCURVE",
"432 890 OFFCURVE",
"432 907 CURVE SMOOTH",
"432 922 OFFCURVE",
"420 937 OFFCURVE",
"398 937 CURVE SMOOTH",
"377 937 OFFCURVE",
"362 921 OFFCURVE",
"354 914 CURVE SMOOTH",
"239 807 LINE",
"256 782 LINE"
);
}
);
width = 607;
}
);
note = Eacute;
unicode = 00C9;
},
{
glyphname = Ebreve;
lastChange = "2015-12-01 09:49:17 +0000";
layers = (
{
layerId = "0B1DFD06-3317-40CA-B510-4969A0718C16";
name = Regular;
paths = (
{
closed = 1;
nodes = (
"554 0 LINE",
"571 179 LINE",
"544 179 LINE",
"538 124 OFFCURVE",
"520 40 OFFCURVE",
"456 40 CURVE SMOOTH",
"201 40 LINE",
"201 659 LINE",
"441 659 LINE SMOOTH",
"516 659 OFFCURVE",
"525 567 OFFCURVE",
"528 527 CURVE",
"555 527 LINE",
"555 700 LINE",
"16 700 LINE",
"16 673 LINE",
"44 673 LINE SMOOTH",
"83 673 OFFCURVE",
"103 662 OFFCURVE",
"103 637 CURVE SMOOTH",
"103 62 LINE SMOOTH",
"103 37 OFFCURVE",
"83 26 OFFCURVE",
"44 26 CURVE SMOOTH",
"16 26 LINE",
"16 0 LINE"
);
},
{
closed = 1;
nodes = (
"455 251 LINE",
"455 485 LINE",
"431 485 LINE",
"427 436 OFFCURVE",
"424 388 OFFCURVE",
"379 388 CURVE SMOOTH",
"162 388 LINE",
"162 348 LINE",
"379 348 LINE SMOOTH",
"424 348 OFFCURVE",
"427 300 OFFCURVE",
"431 251 CURVE"
);
},
{
closed = 1;
nodes = (
"432 776 OFFCURVE",
"474 832 OFFCURVE",
"478 907 CURVE",
"445 907 LINE",
"439 848 OFFCURVE",
"397 822 OFFCURVE",
"333 822 CURVE SMOOTH",
"269 822 OFFCURVE",
"226 848 OFFCURVE",
"219 907 CURVE",
"186 907 LINE",
"190 829 OFFCURVE",
"232 776 OFFCURVE",
"333 776 CURVE SMOOTH"
);
}
);
width = 607;
}
);
note = Ebreve;
unicode = 0114;
},
{
glyphname = Ecaron;
lastChange = "2015-12-01 09:49:20 +0000";
layers = (
{
layerId = "0B1DFD06-3317-40CA-B510-4969A0718C16";
name = Regular;
paths = (
{
closed = 1;
nodes = (
"554 0 LINE",
"571 179 LINE",
"544 179 LINE",
"538 124 OFFCURVE",
"520 40 OFFCURVE",
"456 40 CURVE SMOOTH",
"201 40 LINE",
"201 659 LINE",
"441 659 LINE SMOOTH",
"516 659 OFFCURVE",
"525 567 OFFCURVE",
"528 527 CURVE",
"555 527 LINE",
"555 700 LINE",
"16 700 LINE",
"16 673 LINE",
"44 673 LINE SMOOTH",
"83 673 OFFCURVE",
"103 662 OFFCURVE",
"103 637 CURVE SMOOTH",
"103 62 LINE SMOOTH",
"103 37 OFFCURVE",
"83 26 OFFCURVE",
"44 26 CURVE SMOOTH",
"16 26 LINE",
"16 0 LINE"
);
},
{
closed = 1;
nodes = (
"455 251 LINE",
"455 485 LINE",
"431 485 LINE",
"427 436 OFFCURVE",
"424 388 OFFCURVE",
"379 388 CURVE SMOOTH",
"162 388 LINE",
"162 348 LINE",
"379 348 LINE SMOOTH",
"424 348 OFFCURVE",
"427 300 OFFCURVE",
"431 251 CURVE"
);
},
{
closed = 1;
nodes = (
"357 782 LINE",
"481 911 LINE",
"462 932 LINE",
"354 847 LINE",
"346 840 OFFCURVE",
"337 836 OFFCURVE",
"331 836 CURVE SMOOTH",
"325 836 OFFCURVE",
"317 840 OFFCURVE",
"307 847 CURVE",
"199 932 LINE",
"180 911 LINE",
"304 782 LINE"
);
}
);
width = 607;
}
);
note = Ecaron;
unicode = 011A;
},
{
glyphname = Ecircumflex;
lastChange = "2015-12-01 09:49:18 +0000";
layers = (
{
layerId = "0B1DFD06-3317-40CA-B510-4969A0718C16";
name = Regular;
paths = (
{
closed = 1;
nodes = (
"554 0 LINE",
"571 179 LINE",
"544 179 LINE",
"538 124 OFFCURVE",
"520 40 OFFCURVE",
"456 40 CURVE SMOOTH",
"201 40 LINE",
"201 659 LINE",
"441 659 LINE SMOOTH",
"516 659 OFFCURVE",
"525 567 OFFCURVE",
"528 527 CURVE",
"555 527 LINE",
"555 700 LINE",
"16 700 LINE",
"16 673 LINE",
"44 673 LINE SMOOTH",
"83 673 OFFCURVE",
"103 662 OFFCURVE",
"103 637 CURVE SMOOTH",
"103 62 LINE SMOOTH",
"103 37 OFFCURVE",
"83 26 OFFCURVE",
"44 26 CURVE SMOOTH",
"16 26 LINE",
"16 0 LINE"
);
},
{
closed = 1;
nodes = (
"455 251 LINE",
"455 485 LINE",
"431 485 LINE",
"427 436 OFFCURVE",
"424 388 OFFCURVE",
"379 388 CURVE SMOOTH",
"162 388 LINE",
"162 348 LINE",
"379 348 LINE SMOOTH",
"424 348 OFFCURVE",
"427 300 OFFCURVE",
"431 251 CURVE"
);
},
{
closed = 1;
nodes = (
"304 868 LINE SMOOTH",
"312 874 OFFCURVE",
"322 879 OFFCURVE",
"328 879 CURVE SMOOTH",
"334 879 OFFCURVE",
"342 874 OFFCURVE",
"351 868 CURVE",
"459 782 LINE",
"478 803 LINE",
"354 932 LINE",
"301 932 LINE",
"177 803 LINE",
"196 782 LINE"
);
}
);
width = 607;
}
);
note = Ecircumflex;
unicode = 00CA;
},
{
glyphname = Ecircumflexacute;
lastChange = "2015-12-01 09:49:18 +0000";
layers = (
{
layerId = "0B1DFD06-3317-40CA-B510-4969A0718C16";
name = Regular;
paths = (
{
closed = 1;
nodes = (
"554 0 LINE",
"571 179 LINE",
"544 179 LINE",
"538 124 OFFCURVE",
"520 40 OFFCURVE",
"456 40 CURVE SMOOTH",
"201 40 LINE",
"201 659 LINE",
"441 659 LINE SMOOTH",
"516 659 OFFCURVE",
"525 567 OFFCURVE",
"528 527 CURVE",
"555 527 LINE",
"555 700 LINE",
"16 700 LINE",
"16 673 LINE",
"44 673 LINE SMOOTH",
"83 673 OFFCURVE",
"103 662 OFFCURVE",
"103 637 CURVE SMOOTH",
"103 62 LINE SMOOTH",
"103 37 OFFCURVE",
"83 26 OFFCURVE",
"44 26 CURVE SMOOTH",
"16 26 LINE",
"16 0 LINE"
);
},
{
closed = 1;
nodes = (
"455 251 LINE",
"455 485 LINE",
"431 485 LINE",
"427 436 OFFCURVE",
"424 388 OFFCURVE",
"379 388 CURVE SMOOTH",
"162 388 LINE",
"162 348 LINE",
"379 348 LINE SMOOTH",
"424 348 OFFCURVE",
"427 300 OFFCURVE",
"431 251 CURVE"
);
},
{
closed = 1;
nodes = (
"290 862 LINE SMOOTH",
"300 870 OFFCURVE",
"310 878 OFFCURVE",
"318 878 CURVE SMOOTH",
"324 878 OFFCURVE",
"332 873 OFFCURVE",
"341 867 CURVE",
"447 781 LINE",
"466 803 LINE",
"344 932 LINE",
"293 932 LINE",
"171 803 LINE",
"189 781 LINE"
);
},
{
closed = 1;
nodes = (
"555 960 LINE SMOOTH",
"578 972 OFFCURVE",
"591 988 OFFCURVE",
"591 1003 CURVE SMOOTH",
"591 1017 OFFCURVE",
"580 1034 OFFCURVE",
"557 1034 CURVE SMOOTH",
"538 1034 OFFCURVE",
"521 1018 OFFCURVE",
"511 1008 CURVE SMOOTH",
"415 915 LINE",
"433 893 LINE"
);
}
);
width = 607;
}
);
note = Ecircumflexacute;
unicode = 1EBE;
},
{
glyphname = Ecircumflexdotbelow;
lastChange = "2015-12-01 09:49:17 +0000";
layers = (
{
layerId = "0B1DFD06-3317-40CA-B510-4969A0718C16";
name = Regular;
paths = (
{
closed = 1;
nodes = (
"554 0 LINE",
"571 179 LINE",
"544 179 LINE",
"538 124 OFFCURVE",
"520 40 OFFCURVE",
"456 40 CURVE SMOOTH",
"201 40 LINE",
"201 659 LINE",
"441 659 LINE SMOOTH",
"516 659 OFFCURVE",
"525 567 OFFCURVE",
"528 527 CURVE",
"555 527 LINE",
"555 700 LINE",
"16 700 LINE",
"16 673 LINE",
"44 673 LINE SMOOTH",
"83 673 OFFCURVE",
"103 662 OFFCURVE",
"103 637 CURVE SMOOTH",
"103 62 LINE SMOOTH",
"103 37 OFFCURVE",
"83 26 OFFCURVE",
"44 26 CURVE SMOOTH",
"16 26 LINE",
"16 0 LINE"
);
},
{
closed = 1;
nodes = (
"350 -159 OFFCURVE",
"368 -140 OFFCURVE",
"368 -112 CURVE SMOOTH",
"368 -84 OFFCURVE",
"350 -64 OFFCURVE",
"322 -64 CURVE SMOOTH",
"294 -64 OFFCURVE",
"275 -84 OFFCURVE",
"275 -112 CURVE SMOOTH",
"275 -140 OFFCURVE",
"294 -159 OFFCURVE",
"322 -159 CURVE SMOOTH"
);
},
{
closed = 1;
nodes = (
"455 251 LINE",
"455 485 LINE",
"431 485 LINE",
"427 436 OFFCURVE",
"424 388 OFFCURVE",
"379 388 CURVE SMOOTH",
"162 388 LINE",
"162 348 LINE",
"379 348 LINE SMOOTH",
"424 348 OFFCURVE",
"427 300 OFFCURVE",
"431 251 CURVE"
);
},
{
closed = 1;
nodes = (
"294 868 LINE SMOOTH",
"302 874 OFFCURVE",
"312 879 OFFCURVE",
"318 879 CURVE SMOOTH",
"324 879 OFFCURVE",
"332 874 OFFCURVE",
"341 868 CURVE",
"449 782 LINE",
"468 803 LINE",
"344 932 LINE",
"291 932 LINE",
"167 803 LINE",
"186 782 LINE"
);
}
);
width = 607;
}
);
note = Ecircumflexdotbelow;
unicode = 1EC6;
},
{
glyphname = Ecircumflexgrave;
lastChange = "2015-12-01 09:49:18 +0000";
layers = (
{
layerId = "0B1DFD06-3317-40CA-B510-4969A0718C16";
name = Regular;
paths = (
{
closed = 1;
nodes = (
"554 0 LINE",
"571 179 LINE",
"544 179 LINE",
"538 124 OFFCURVE",
"520 40 OFFCURVE",
"456 40 CURVE SMOOTH",
"201 40 LINE",
"201 659 LINE",
"441 659 LINE SMOOTH",
"516 659 OFFCURVE",
"525 567 OFFCURVE",
"528 527 CURVE",
"555 527 LINE",
"555 700 LINE",
"16 700 LINE",
"16 673 LINE",
"44 673 LINE SMOOTH",
"83 673 OFFCURVE",
"103 662 OFFCURVE",
"103 637 CURVE SMOOTH",
"103 62 LINE SMOOTH",
"103 37 OFFCURVE",
"83 26 OFFCURVE",
"44 26 CURVE SMOOTH",
"16 26 LINE",
"16 0 LINE"
);
},
{
closed = 1;
nodes = (
"455 251 LINE",
"455 485 LINE",
"431 485 LINE",
"427 436 OFFCURVE",
"424 388 OFFCURVE",
"379 388 CURVE SMOOTH",
"162 388 LINE",
"162 348 LINE",
"379 348 LINE SMOOTH",
"424 348 OFFCURVE",
"427 300 OFFCURVE",
"431 251 CURVE"
);
},
{
closed = 1;
nodes = (
"227 915 LINE",
"132 1008 LINE SMOOTH",
"122 1018 OFFCURVE",
"105 1034 OFFCURVE",
"85 1034 CURVE SMOOTH",
"63 1034 OFFCURVE",
"52 1017 OFFCURVE",
"52 1003 CURVE SMOOTH",
"52 988 OFFCURVE",
"65 972 OFFCURVE",
"88 960 CURVE SMOOTH",
"210 893 LINE"
);
},
{
closed = 1;
nodes = (
"290 862 LINE SMOOTH",
"300 870 OFFCURVE",
"310 878 OFFCURVE",
"318 878 CURVE SMOOTH",
"324 878 OFFCURVE",
"332 873 OFFCURVE",
"341 867 CURVE",
"447 781 LINE",
"466 803 LINE",
"344 932 LINE",
"293 932 LINE",
"171 803 LINE",
"189 781 LINE"
);
}
);
width = 607;
}
);
note = Ecircumflexgrave;
unicode = 1EC0;
},
{
glyphname = Ecircumflexhookabove;
lastChange = "2015-12-01 09:49:18 +0000";
layers = (
{
layerId = "0B1DFD06-3317-40CA-B510-4969A0718C16";
name = Regular;
paths = (
{
closed = 1;
nodes = (
"554 0 LINE",
"571 179 LINE",
"544 179 LINE",
"538 124 OFFCURVE",
"520 40 OFFCURVE",
"456 40 CURVE SMOOTH",
"201 40 LINE",
"201 659 LINE",
"441 659 LINE SMOOTH",
"516 659 OFFCURVE",
"525 567 OFFCURVE",
"528 527 CURVE",
"555 527 LINE",
"555 700 LINE",
"16 700 LINE",
"16 673 LINE",
"44 673 LINE SMOOTH",
"83 673 OFFCURVE",
"103 662 OFFCURVE",
"103 637 CURVE SMOOTH",
"103 62 LINE SMOOTH",
"103 37 OFFCURVE",
"83 26 OFFCURVE",
"44 26 CURVE SMOOTH",
"16 26 LINE",
"16 0 LINE"
);
},
{
closed = 1;
nodes = (
"455 251 LINE",
"455 485 LINE",
"431 485 LINE",
"427 436 OFFCURVE",
"424 388 OFFCURVE",
"379 388 CURVE SMOOTH",
"162 388 LINE",
"162 348 LINE",
"379 348 LINE SMOOTH",
"424 348 OFFCURVE",
"427 300 OFFCURVE",
"431 251 CURVE"
);
},
{
closed = 1;
nodes = (
"286 858 LINE",
"297 868 OFFCURVE",
"309 878 OFFCURVE",
"318 878 CURVE SMOOTH",
"324 878 OFFCURVE",
"332 873 OFFCURVE",
"341 867 CURVE",
"447 781 LINE",
"466 803 LINE",
"344 932 LINE",
"293 932 LINE",
"171 803 LINE",
"189 781 LINE"
);
},
{
closed = 1;
nodes = (
"493 898 LINE",
"474 905 OFFCURVE",
"464 912 OFFCURVE",
"464 926 CURVE SMOOTH",
"464 954 OFFCURVE",
"544 965 OFFCURVE",
"544 1010 CURVE SMOOTH",
"544 1047 OFFCURVE",
"502 1063 OFFCURVE",
"460 1063 CURVE SMOOTH",
"429 1063 OFFCURVE",
"384 1053 OFFCURVE",
"384 1022 CURVE SMOOTH",
"384 1010 OFFCURVE",
"395 1001 OFFCURVE",
"405 1001 CURVE SMOOTH",
"434 1001 OFFCURVE",
"421 1040 OFFCURVE",
"464 1040 CURVE SMOOTH",
"483 1040 OFFCURVE",
"494 1028 OFFCURVE",
"494 1013 CURVE SMOOTH",
"494 973 OFFCURVE",
"421 965 OFFCURVE",
"421 925 CURVE SMOOTH",
"421 901 OFFCURVE",
"437 880 OFFCURVE",
"484 880 CURVE"
);
}
);
width = 607;
}
);
note = Ecircumflexhookabove;
unicode = 1EC2;
},
{
glyphname = Ecircumflextilde;
lastChange = "2015-12-01 09:49:20 +0000";
layers = (
{
layerId = "0B1DFD06-3317-40CA-B510-4969A0718C16";
name = Regular;
paths = (
{
closed = 1;
nodes = (
"554 0 LINE",
"571 179 LINE",
"544 179 LINE",
"538 124 OFFCURVE",
"520 40 OFFCURVE",
"456 40 CURVE SMOOTH",
"201 40 LINE",
"201 659 LINE",
"441 659 LINE SMOOTH",
"516 659 OFFCURVE",
"525 567 OFFCURVE",
"528 527 CURVE",
"555 527 LINE",
"555 700 LINE",
"16 700 LINE",
"16 673 LINE",
"44 673 LINE SMOOTH",
"83 673 OFFCURVE",
"103 662 OFFCURVE",
"103 637 CURVE SMOOTH",
"103 62 LINE SMOOTH",
"103 37 OFFCURVE",
"83 26 OFFCURVE",
"44 26 CURVE SMOOTH",
"16 26 LINE",
"16 0 LINE"
);
},
{
closed = 1;
nodes = (
"455 251 LINE",
"455 485 LINE",
"431 485 LINE",
"427 436 OFFCURVE",
"424 388 OFFCURVE",
"379 388 CURVE SMOOTH",
"162 388 LINE",
"162 348 LINE",
"379 348 LINE SMOOTH",
"424 348 OFFCURVE",
"427 300 OFFCURVE",
"431 251 CURVE"
);
},
{
closed = 1;
nodes = (
"290 862 LINE SMOOTH",
"300 870 OFFCURVE",
"310 878 OFFCURVE",
"318 878 CURVE SMOOTH",
"324 878 OFFCURVE",
"332 873 OFFCURVE",
"341 867 CURVE",
"447 781 LINE",
"466 803 LINE",
"344 932 LINE",
"293 932 LINE",
"171 803 LINE",
"189 781 LINE"
);
},
{
closed = 1;
nodes = (
"193 997 OFFCURVE",
"211 1018 OFFCURVE",
"242 1018 CURVE SMOOTH",
"291 1018 OFFCURVE",
"338 964 OFFCURVE",
"387 964 CURVE SMOOTH",
"440 964 OFFCURVE",
"469 1012 OFFCURVE",
"481 1063 CURVE",
"460 1075 LINE",
"447 1035 OFFCURVE",
"431 1012 OFFCURVE",
"398 1012 CURVE SMOOTH",
"351 1012 OFFCURVE",
"302 1065 OFFCURVE",
"253 1065 CURVE SMOOTH",
"202 1065 OFFCURVE",
"170 1021 OFFCURVE",
"160 970 CURVE",
"180 958 LINE"
);
}
);
width = 607;
}
);
note = Ecircumflextilde;
unicode = 1EC4;
},
{
glyphname = Edieresis;
lastChange = "2015-12-01 09:49:18 +0000";
layers = (
{
layerId = "0B1DFD06-3317-40CA-B510-4969A0718C16";
name = Regular;
paths = (
{
closed = 1;
nodes = (
"554 0 LINE",
"571 179 LINE",
"544 179 LINE",
"538 124 OFFCURVE",
"520 40 OFFCURVE",
"456 40 CURVE SMOOTH",
"201 40 LINE",
"201 659 LINE",
"441 659 LINE SMOOTH",
"516 659 OFFCURVE",
"525 567 OFFCURVE",
"528 527 CURVE",
"555 527 LINE",
"555 700 LINE",
"16 700 LINE",
"16 673 LINE",
"44 673 LINE SMOOTH",
"83 673 OFFCURVE",
"103 662 OFFCURVE",
"103 637 CURVE SMOOTH",
"103 62 LINE SMOOTH",
"103 37 OFFCURVE",
"83 26 OFFCURVE",
"44 26 CURVE SMOOTH",
"16 26 LINE",
"16 0 LINE"
);
},
{
closed = 1;
nodes = (
"455 251 LINE",
"455 485 LINE",
"431 485 LINE",
"427 436 OFFCURVE",
"424 388 OFFCURVE",
"379 388 CURVE SMOOTH",
"162 388 LINE",
"162 348 LINE",
"379 348 LINE SMOOTH",
"424 348 OFFCURVE",
"427 300 OFFCURVE",
"431 251 CURVE"
);
},
{
closed = 1;
nodes = (
"254 781 OFFCURVE",
"272 800 OFFCURVE",
"272 827 CURVE SMOOTH",
"272 855 OFFCURVE",
"254 875 OFFCURVE",
"225 875 CURVE SMOOTH",
"197 875 OFFCURVE",
"179 855 OFFCURVE",
"179 827 CURVE SMOOTH",
"179 800 OFFCURVE",
"197 781 OFFCURVE",
"225 781 CURVE SMOOTH"
);
},
{
closed = 1;
nodes = (
"470 781 OFFCURVE",
"488 800 OFFCURVE",
"488 827 CURVE SMOOTH",
"488 855 OFFCURVE",
"470 875 OFFCURVE",
"441 875 CURVE SMOOTH",
"412 875 OFFCURVE",
"394 855 OFFCURVE",
"394 827 CURVE SMOOTH",
"394 800 OFFCURVE",
"412 781 OFFCURVE",
"441 781 CURVE SMOOTH"
);
}
);
width = 607;
}
);
note = Edieresis;
unicode = 00CB;
},
{
glyphname = Edotaccent;
lastChange = "2015-12-01 09:49:18 +0000";
layers = (
{
layerId = "0B1DFD06-3317-40CA-B510-4969A0718C16";
name = Regular;
paths = (
{
closed = 1;
nodes = (
"554 0 LINE",
"571 179 LINE",
"544 179 LINE",
"538 124 OFFCURVE",
"520 40 OFFCURVE",
"456 40 CURVE SMOOTH",
"201 40 LINE",
"201 659 LINE",
"441 659 LINE SMOOTH",
"516 659 OFFCURVE",
"525 567 OFFCURVE",
"528 527 CURVE",
"555 527 LINE",
"555 700 LINE",
"16 700 LINE",
"16 673 LINE",
"44 673 LINE SMOOTH",
"83 673 OFFCURVE",
"103 662 OFFCURVE",
"103 637 CURVE SMOOTH",
"103 62 LINE SMOOTH",
"103 37 OFFCURVE",
"83 26 OFFCURVE",
"44 26 CURVE SMOOTH",
"16 26 LINE",
"16 0 LINE"
);
},
{
closed = 1;
nodes = (
"455 251 LINE",
"455 485 LINE",
"431 485 LINE",
"427 436 OFFCURVE",
"424 388 OFFCURVE",
"379 388 CURVE SMOOTH",
"162 388 LINE",
"162 348 LINE",
"379 348 LINE SMOOTH",
"424 348 OFFCURVE",
"427 300 OFFCURVE",
"431 251 CURVE"
);
},
{
closed = 1;
nodes = (
"362 765 OFFCURVE",
"380 784 OFFCURVE",
"380 811 CURVE SMOOTH",
"380 839 OFFCURVE",
"362 858 OFFCURVE",
"334 858 CURVE SMOOTH",
"305 858 OFFCURVE",
"287 839 OFFCURVE",
"287 811 CURVE SMOOTH",
"287 784 OFFCURVE",
"305 765 OFFCURVE",
"334 765 CURVE SMOOTH"
);
}
);
width = 607;
}
);
note = Edotaccent;
unicode = 0116;
},
{
glyphname = Edotbelow;
lastChange = "2015-12-01 09:49:17 +0000";
layers = (
{
layerId = "0B1DFD06-3317-40CA-B510-4969A0718C16";
name = Regular;
paths = (
{
closed = 1;
nodes = (
"554 0 LINE",
"571 179 LINE",
"544 179 LINE",
"538 124 OFFCURVE",
"520 40 OFFCURVE",
"456 40 CURVE SMOOTH",
"201 40 LINE",
"201 659 LINE",
"441 659 LINE SMOOTH",
"516 659 OFFCURVE",
"525 567 OFFCURVE",
"528 527 CURVE",
"555 527 LINE",
"555 700 LINE",
"16 700 LINE",
"16 673 LINE",
"44 673 LINE SMOOTH",
"83 673 OFFCURVE",
"103 662 OFFCURVE",
"103 637 CURVE SMOOTH",
"103 62 LINE SMOOTH",
"103 37 OFFCURVE",
"83 26 OFFCURVE",
"44 26 CURVE SMOOTH",
"16 26 LINE",
"16 0 LINE"
);
},
{
closed = 1;
nodes = (
"343 -159 OFFCURVE",
"361 -140 OFFCURVE",
"361 -112 CURVE SMOOTH",
"361 -84 OFFCURVE",
"343 -64 OFFCURVE",
"315 -64 CURVE SMOOTH",
"287 -64 OFFCURVE",
"268 -84 OFFCURVE",
"268 -112 CURVE SMOOTH",
"268 -140 OFFCURVE",
"287 -159 OFFCURVE",
"315 -159 CURVE SMOOTH"
);
},
{
closed = 1;
nodes = (
"455 251 LINE",
"455 485 LINE",
"431 485 LINE",
"427 436 OFFCURVE",
"424 388 OFFCURVE",
"379 388 CURVE SMOOTH",
"162 388 LINE",
"162 348 LINE",
"379 348 LINE SMOOTH",
"424 348 OFFCURVE",
"427 300 OFFCURVE",
"431 251 CURVE"
);
}
);
width = 607;
}
);
note = Edotbelow;
unicode = 1EB8;
},
{
glyphname = Egrave;
lastChange = "2015-12-01 09:49:18 +0000";
layers = (
{
layerId = "0B1DFD06-3317-40CA-B510-4969A0718C16";
name = Regular;
paths = (
{
closed = 1;
nodes = (
"554 0 LINE",
"571 179 LINE",
"544 179 LINE",
"538 124 OFFCURVE",
"520 40 OFFCURVE",
"456 40 CURVE SMOOTH",
"201 40 LINE",
"201 659 LINE",
"441 659 LINE SMOOTH",
"516 659 OFFCURVE",
"525 567 OFFCURVE",
"528 527 CURVE",
"555 527 LINE",
"555 700 LINE",
"16 700 LINE",
"16 673 LINE",
"44 673 LINE SMOOTH",
"83 673 OFFCURVE",
"103 662 OFFCURVE",
"103 637 CURVE SMOOTH",
"103 62 LINE SMOOTH",
"103 37 OFFCURVE",
"83 26 OFFCURVE",
"44 26 CURVE SMOOTH",
"16 26 LINE",
"16 0 LINE"
);
},
{
closed = 1;
nodes = (
"455 251 LINE",
"455 485 LINE",
"431 485 LINE",
"427 436 OFFCURVE",
"424 388 OFFCURVE",
"379 388 CURVE SMOOTH",
"162 388 LINE",
"162 348 LINE",
"379 348 LINE SMOOTH",
"424 348 OFFCURVE",
"427 300 OFFCURVE",
"431 251 CURVE"
);
},
{
closed = 1;
nodes = (
"425 807 LINE",
"310 913 LINE",
"301 922 OFFCURVE",
"285 937 OFFCURVE",
"265 937 CURVE SMOOTH",
"245 937 OFFCURVE",
"233 924 OFFCURVE",
"233 908 CURVE SMOOTH",
"233 890 OFFCURVE",
"245 876 OFFCURVE",
"264 865 CURVE SMOOTH",
"407 782 LINE"
);
}
);
width = 607;
}
);
note = Egrave;
unicode = 00C8;
},
{
glyphname = Ehookabove;
lastChange = "2015-12-01 09:49:18 +0000";
layers = (
{
layerId = "0B1DFD06-3317-40CA-B510-4969A0718C16";
name = Regular;
paths = (
{
closed = 1;
nodes = (
"554 0 LINE",
"571 179 LINE",
"544 179 LINE",
"538 124 OFFCURVE",
"520 40 OFFCURVE",
"456 40 CURVE SMOOTH",
"201 40 LINE",
"201 659 LINE",
"441 659 LINE SMOOTH",
"516 659 OFFCURVE",
"525 567 OFFCURVE",
"528 527 CURVE",
"555 527 LINE",
"555 700 LINE",
"16 700 LINE",
"16 673 LINE",
"44 673 LINE SMOOTH",
"83 673 OFFCURVE",
"103 662 OFFCURVE",
"103 637 CURVE SMOOTH",
"103 62 LINE SMOOTH",
"103 37 OFFCURVE",
"83 26 OFFCURVE",
"44 26 CURVE SMOOTH",
"16 26 LINE",
"16 0 LINE"
);
},
{
closed = 1;
nodes = (
"455 251 LINE",
"455 485 LINE",
"431 485 LINE",
"427 436 OFFCURVE",
"424 388 OFFCURVE",
"379 388 CURVE SMOOTH",
"162 388 LINE",
"162 348 LINE",
"379 348 LINE SMOOTH",
"424 348 OFFCURVE",
"427 300 OFFCURVE",
"431 251 CURVE"
);
},
{
closed = 1;
nodes = (
"367 798 LINE",
"348 805 OFFCURVE",
"336 811 OFFCURVE",
"336 828 CURVE SMOOTH",
"336 861 OFFCURVE",
"425 876 OFFCURVE",
"425 927 CURVE SMOOTH",
"425 969 OFFCURVE",
"389 991 OFFCURVE",
"336 991 CURVE SMOOTH",
"289 991 OFFCURVE",
"248 974 OFFCURVE",
"248 940 CURVE SMOOTH",
"248 923 OFFCURVE",
"256 915 OFFCURVE",
"271 915 CURVE SMOOTH",
"294 915 OFFCURVE",
"296 934 OFFCURVE",
"299 942 CURVE SMOOTH",
"304 956 OFFCURVE",
"321 962 OFFCURVE",
"337 962 CURVE SMOOTH",
"358 962 OFFCURVE",
"371 947 OFFCURVE",
"371 930 CURVE SMOOTH",
"371 885 OFFCURVE",
"289 874 OFFCURVE",
"289 828 CURVE SMOOTH",
"289 801 OFFCURVE",
"307 778 OFFCURVE",
"358 778 CURVE"
);
}
);
width = 607;
}
);
note = Ehookabove;
unicode = 1EBA;
},
{
glyphname = Emacron;
lastChange = "2015-12-01 09:49:19 +0000";
layers = (
{
layerId = "0B1DFD06-3317-40CA-B510-4969A0718C16";
name = Regular;
paths = (
{
closed = 1;
nodes = (
"554 0 LINE",
"571 179 LINE",
"544 179 LINE",
"538 124 OFFCURVE",
"520 40 OFFCURVE",
"456 40 CURVE SMOOTH",
"201 40 LINE",
"201 659 LINE",
"441 659 LINE SMOOTH",
"516 659 OFFCURVE",
"525 567 OFFCURVE",
"528 527 CURVE",
"555 527 LINE",
"555 700 LINE",
"16 700 LINE",
"16 673 LINE",
"44 673 LINE SMOOTH",
"83 673 OFFCURVE",
"103 662 OFFCURVE",
"103 637 CURVE SMOOTH",
"103 62 LINE SMOOTH",
"103 37 OFFCURVE",
"83 26 OFFCURVE",
"44 26 CURVE SMOOTH",
"16 26 LINE",
"16 0 LINE"
);
},
{
closed = 1;
nodes = (
"455 251 LINE",
"455 485 LINE",
"431 485 LINE",
"427 436 OFFCURVE",
"424 388 OFFCURVE",
"379 388 CURVE SMOOTH",
"162 388 LINE",
"162 348 LINE",
"379 348 LINE SMOOTH",
"424 348 OFFCURVE",
"427 300 OFFCURVE",
"431 251 CURVE"
);
},
{
closed = 1;
nodes = (
"495 782 LINE",
"495 824 LINE",
"162 824 LINE",
"162 782 LINE"
);
}
);
width = 607;
}
);
note = Emacron;
unicode = 0112;
},
{
glyphname = Eogonek;
lastChange = "2015-12-01 09:49:18 +0000";
layers = (
{
layerId = "0B1DFD06-3317-40CA-B510-4969A0718C16";
name = Regular;
paths = (
{
closed = 1;
nodes = (
"554 0 LINE",
"571 179 LINE",
"544 179 LINE",
"538 124 OFFCURVE",
"520 40 OFFCURVE",
"456 40 CURVE SMOOTH",
"201 40 LINE",
"201 659 LINE",
"441 659 LINE SMOOTH",
"516 659 OFFCURVE",
"525 567 OFFCURVE",
"528 527 CURVE",
"555 527 LINE",
"555 700 LINE",
"16 700 LINE",
"16 673 LINE",
"44 673 LINE SMOOTH",
"83 673 OFFCURVE",
"103 662 OFFCURVE",
"103 637 CURVE SMOOTH",
"103 62 LINE SMOOTH",
"103 37 OFFCURVE",
"83 26 OFFCURVE",
"44 26 CURVE SMOOTH",
"16 26 LINE",
"16 0 LINE"
);
},
{
closed = 1;
nodes = (
"496 -196 OFFCURVE",
"524 -189 OFFCURVE",
"549 -172 CURVE",
"543 -152 LINE",
"527 -158 OFFCURVE",
"510 -162 OFFCURVE",
"497 -162 CURVE SMOOTH",
"464 -162 OFFCURVE",
"437 -146 OFFCURVE",
"437 -106 CURVE SMOOTH",
"437 -66 OFFCURVE",
"464 -26 OFFCURVE",
"510 4 CURVE",
"469 4 LINE",
"416 -22 OFFCURVE",
"376 -64 OFFCURVE",
"376 -114 CURVE SMOOTH",
"376 -147 OFFCURVE",
"395 -196 OFFCURVE",
"470 -196 CURVE SMOOTH"
);
},
{
closed = 1;
nodes = (
"455 251 LINE",
"455 485 LINE",
"431 485 LINE",
"427 436 OFFCURVE",
"424 388 OFFCURVE",
"379 388 CURVE SMOOTH",
"162 388 LINE",
"162 348 LINE",
"379 348 LINE SMOOTH",
"424 348 OFFCURVE",
"427 300 OFFCURVE",
"431 251 CURVE"
);
}
);
width = 607;
}
);
note = Eogonek;
unicode = 0118;
},
{
glyphname = Etilde;
lastChange = "2015-12-01 09:49:19 +0000";
layers = (
{
layerId = "0B1DFD06-3317-40CA-B510-4969A0718C16";
name = Regular;
paths = (
{
closed = 1;
nodes = (
"554 0 LINE",
"571 179 LINE",
"544 179 LINE",
"538 124 OFFCURVE",
"520 40 OFFCURVE",
"456 40 CURVE SMOOTH",
"201 40 LINE",
"201 659 LINE",
"441 659 LINE SMOOTH",
"516 659 OFFCURVE",
"525 567 OFFCURVE",
"528 527 CURVE",
"555 527 LINE",
"555 700 LINE",
"16 700 LINE",
"16 673 LINE",
"44 673 LINE SMOOTH",
"83 673 OFFCURVE",
"103 662 OFFCURVE",
"103 637 CURVE SMOOTH",
"103 62 LINE SMOOTH",
"103 37 OFFCURVE",
"83 26 OFFCURVE",
"44 26 CURVE SMOOTH",
"16 26 LINE",
"16 0 LINE"
);
},
{
closed = 1;
nodes = (
"455 251 LINE",
"455 485 LINE",
"431 485 LINE",
"427 436 OFFCURVE",
"424 388 OFFCURVE",
"379 388 CURVE SMOOTH",
"162 388 LINE",
"162 348 LINE",
"379 348 LINE SMOOTH",
"424 348 OFFCURVE",
"427 300 OFFCURVE",
"431 251 CURVE"
);
},
{
closed = 1;
nodes = (
"190 817 OFFCURVE",
"208 838 OFFCURVE",
"241 838 CURVE SMOOTH",
"292 838 OFFCURVE",
"341 784 OFFCURVE",
"392 784 CURVE SMOOTH",
"450 784 OFFCURVE",
"480 832 OFFCURVE",
"492 884 CURVE",
"471 895 LINE",
"455 855 OFFCURVE",
"439 833 OFFCURVE",
"405 833 CURVE SMOOTH",
"356 833 OFFCURVE",
"304 886 OFFCURVE",
"253 886 CURVE SMOOTH",
"199 886 OFFCURVE",
"166 842 OFFCURVE",
"154 790 CURVE",
"176 779 LINE"
);
}
);
width = 607;
}
);
note = Etilde;
unicode = 1EBC;
},
{
glyphname = F;
lastChange = "2015-12-01 09:49:18 +0000";
layers = (
{
layerId = "0B1DFD06-3317-40CA-B510-4969A0718C16";
name = Regular;
paths = (
{
closed = 1;
nodes = (
"288 0 LINE",
"288 26 LINE",
"260 26 LINE SMOOTH",
"221 26 OFFCURVE",
"201 37 OFFCURVE",
"201 62 CURVE SMOOTH",
"201 659 LINE",
"442 659 LINE SMOOTH",
"516 659 OFFCURVE",
"525 567 OFFCURVE",
"528 527 CURVE",
"555 527 LINE",
"555 700 LINE",
"16 700 LINE",
"16 673 LINE",
"45 673 LINE SMOOTH",
"83 673 OFFCURVE",
"103 662 OFFCURVE",
"103 637 CURVE SMOOTH",
"103 62 LINE SMOOTH",
"103 37 OFFCURVE",
"83 26 OFFCURVE",
"45 26 CURVE SMOOTH",
"16 26 LINE",
"16 0 LINE"
);
},
{
closed = 1;
nodes = (
"441 223 LINE",
"441 457 LINE",
"417 457 LINE",
"413 408 OFFCURVE",
"409 360 OFFCURVE",
"364 360 CURVE SMOOTH",
"164 360 LINE",
"164 320 LINE",
"364 320 LINE SMOOTH",
"409 320 OFFCURVE",
"413 272 OFFCURVE",
"417 223 CURVE"
);
}
);
width = 580;
}
);
note = F;
unicode = 0046;
},
{
glyphname = G;
lastChange = "2015-12-01 09:49:14 +0000";
layers = (
{
layerId = "0B1DFD06-3317-40CA-B510-4969A0718C16";
name = Regular;
paths = (
{
closed = 1;
nodes = (
"499 -10 OFFCURVE",
"576 19 OFFCURVE",
"644 69 CURVE",
"644 249 LINE SMOOTH",
"644 312 OFFCURVE",
"652 330 OFFCURVE",
"693 330 CURVE SMOOTH",
"705 330 LINE",
"705 350 LINE",
"456 350 LINE",
"456 327 LINE",
"474 327 LINE SMOOTH",
"527 327 OFFCURVE",
"550 313 OFFCURVE",
"550 277 CURVE SMOOTH",
"550 78 LINE",
"504 40 OFFCURVE",
"432 31 OFFCURVE",
"386 31 CURVE SMOOTH",
"218 31 OFFCURVE",
"141 159 OFFCURVE",
"141 350 CURVE SMOOTH",
"141 541 OFFCURVE",
"232 668 OFFCURVE",
"398 668 CURVE SMOOTH",
"501 668 OFFCURVE",
"589 615 OFFCURVE",
"601 513 CURVE",
"630 513 LINE",
"630 705 LINE",
"594 705 LINE",
"594 661 LINE SMOOTH",
"594 651 OFFCURVE",
"592 646 OFFCURVE",
"584 646 CURVE SMOOTH",
"581 646 OFFCURVE",
"576 649 OFFCURVE",
"573 651 CURVE",
"533 684 OFFCURVE",
"455 710 OFFCURVE",
"380 710 CURVE SMOOTH",
"166 710 OFFCURVE",
"42 574 OFFCURVE",
"42 350 CURVE SMOOTH",
"42 124 OFFCURVE",
"157 -10 OFFCURVE",
"371 -10 CURVE SMOOTH"
);
}
);
width = 713;
}
);
leftKerningGroup = G;
note = G;
unicode = 0047;
},
{
glyphname = Gbreve;
lastChange = "2015-12-01 09:49:18 +0000";
layers = (
{
layerId = "0B1DFD06-3317-40CA-B510-4969A0718C16";
name = Regular;
paths = (
{
closed = 1;
nodes = (
"499 -10 OFFCURVE",
"576 19 OFFCURVE",
"644 69 CURVE",
"644 249 LINE SMOOTH",
"644 312 OFFCURVE",
"652 330 OFFCURVE",
"693 330 CURVE SMOOTH",
"705 330 LINE",
"705 350 LINE",
"456 350 LINE",
"456 327 LINE",
"474 327 LINE SMOOTH",
"527 327 OFFCURVE",
"550 313 OFFCURVE",
"550 277 CURVE SMOOTH",
"550 78 LINE",
"504 40 OFFCURVE",
"432 31 OFFCURVE",
"386 31 CURVE SMOOTH",
"218 31 OFFCURVE",
"141 159 OFFCURVE",
"141 350 CURVE SMOOTH",
"141 541 OFFCURVE",
"232 668 OFFCURVE",
"398 668 CURVE SMOOTH",
"501 668 OFFCURVE",
"589 615 OFFCURVE",
"601 513 CURVE",
"630 513 LINE",
"630 705 LINE",
"594 705 LINE",
"594 661 LINE SMOOTH",
"594 651 OFFCURVE",
"592 646 OFFCURVE",
"584 646 CURVE SMOOTH",
"581 646 OFFCURVE",
"576 649 OFFCURVE",
"573 651 CURVE",
"533 684 OFFCURVE",
"455 710 OFFCURVE",
"380 710 CURVE SMOOTH",
"166 710 OFFCURVE",
"42 574 OFFCURVE",
"42 350 CURVE SMOOTH",
"42 124 OFFCURVE",
"157 -10 OFFCURVE",
"371 -10 CURVE SMOOTH"
);
},
{
closed = 1;
nodes = (
"474 793 OFFCURVE",
"516 849 OFFCURVE",
"520 924 CURVE",
"487 924 LINE",
"481 865 OFFCURVE",
"439 839 OFFCURVE",
"375 839 CURVE SMOOTH",
"311 839 OFFCURVE",
"268 865 OFFCURVE",
"261 924 CURVE",
"228 924 LINE",
"232 846 OFFCURVE",
"274 793 OFFCURVE",
"375 793 CURVE SMOOTH"
);
}
);
width = 713;
}
);
leftKerningGroup = G;
note = Gbreve;
unicode = 011E;
},
{
glyphname = Gcaron;
lastChange = "2015-12-01 09:49:17 +0000";
layers = (
{
layerId = "0B1DFD06-3317-40CA-B510-4969A0718C16";
name = Regular;
paths = (
{
closed = 1;
nodes = (
"499 -10 OFFCURVE",
"576 19 OFFCURVE",
"644 69 CURVE",
"644 249 LINE SMOOTH",
"644 312 OFFCURVE",
"652 330 OFFCURVE",
"693 330 CURVE SMOOTH",
"705 330 LINE",
"705 350 LINE",
"456 350 LINE",
"456 327 LINE",
"474 327 LINE SMOOTH",
"527 327 OFFCURVE",
"550 313 OFFCURVE",
"550 277 CURVE SMOOTH",
"550 78 LINE",
"504 40 OFFCURVE",
"432 31 OFFCURVE",
"386 31 CURVE SMOOTH",
"218 31 OFFCURVE",
"141 159 OFFCURVE",
"141 350 CURVE SMOOTH",
"141 541 OFFCURVE",
"232 668 OFFCURVE",
"398 668 CURVE SMOOTH",
"501 668 OFFCURVE",
"589 615 OFFCURVE",
"601 513 CURVE",
"630 513 LINE",
"630 705 LINE",
"594 705 LINE",
"594 661 LINE SMOOTH",
"594 651 OFFCURVE",
"592 646 OFFCURVE",
"584 646 CURVE SMOOTH",
"581 646 OFFCURVE",
"576 649 OFFCURVE",
"573 651 CURVE",
"533 684 OFFCURVE",
"455 710 OFFCURVE",
"380 710 CURVE SMOOTH",
"166 710 OFFCURVE",
"42 574 OFFCURVE",
"42 350 CURVE SMOOTH",
"42 124 OFFCURVE",
"157 -10 OFFCURVE",
"371 -10 CURVE SMOOTH"
);
},
{
closed = 1;
nodes = (
"424 782 LINE",
"548 911 LINE",
"529 932 LINE",
"421 847 LINE",
"413 840 OFFCURVE",
"404 836 OFFCURVE",
"398 836 CURVE SMOOTH",
"392 836 OFFCURVE",
"384 840 OFFCURVE",
"374 847 CURVE",
"266 932 LINE",
"247 911 LINE",
"371 782 LINE"
);
}
);
width = 713;
}
);
leftKerningGroup = G;
note = Gcaron;
unicode = 01E6;
},
{
glyphname = Gcircumflex;
lastChange = "2015-12-01 09:49:18 +0000";
layers = (
{
layerId = "0B1DFD06-3317-40CA-B510-4969A0718C16";
name = Regular;
paths = (
{
closed = 1;
nodes = (
"499 -10 OFFCURVE",
"576 19 OFFCURVE",
"644 69 CURVE",
"644 249 LINE SMOOTH",
"644 312 OFFCURVE",
"652 330 OFFCURVE",
"693 330 CURVE SMOOTH",
"705 330 LINE",
"705 350 LINE",
"456 350 LINE",
"456 327 LINE",
"474 327 LINE SMOOTH",
"527 327 OFFCURVE",
"550 313 OFFCURVE",
"550 277 CURVE SMOOTH",
"550 78 LINE",
"504 40 OFFCURVE",
"432 31 OFFCURVE",
"386 31 CURVE SMOOTH",
"218 31 OFFCURVE",
"141 159 OFFCURVE",
"141 350 CURVE SMOOTH",
"141 541 OFFCURVE",
"232 668 OFFCURVE",
"398 668 CURVE SMOOTH",
"501 668 OFFCURVE",
"589 615 OFFCURVE",
"601 513 CURVE",
"630 513 LINE",
"630 705 LINE",
"594 705 LINE",
"594 661 LINE SMOOTH",
"594 651 OFFCURVE",
"592 646 OFFCURVE",
"584 646 CURVE SMOOTH",
"581 646 OFFCURVE",
"576 649 OFFCURVE",
"573 651 CURVE",
"533 684 OFFCURVE",
"455 710 OFFCURVE",
"380 710 CURVE SMOOTH",
"166 710 OFFCURVE",
"42 574 OFFCURVE",
"42 350 CURVE SMOOTH",
"42 124 OFFCURVE",
"157 -10 OFFCURVE",
"371 -10 CURVE SMOOTH"
);
},
{
closed = 1;
nodes = (
"356 885 LINE SMOOTH",
"364 891 OFFCURVE",
"374 896 OFFCURVE",
"380 896 CURVE SMOOTH",
"386 896 OFFCURVE",
"394 891 OFFCURVE",
"403 885 CURVE",
"511 799 LINE",
"530 820 LINE",
"406 949 LINE",
"353 949 LINE",
"229 820 LINE",
"248 799 LINE"
);
}
);
width = 713;
}
);
leftKerningGroup = G;
note = Gcircumflex;
unicode = 011C;
},
{
glyphname = Gcommaaccent;
lastChange = "2015-12-01 09:49:18 +0000";
layers = (
{
layerId = "0B1DFD06-3317-40CA-B510-4969A0718C16";
name = Regular;
paths = (
{
closed = 1;
nodes = (
"499 -10 OFFCURVE",
"576 19 OFFCURVE",
"644 69 CURVE",
"644 249 LINE SMOOTH",
"644 312 OFFCURVE",
"652 330 OFFCURVE",
"693 330 CURVE SMOOTH",
"705 330 LINE",
"705 350 LINE",
"456 350 LINE",
"456 327 LINE",
"474 327 LINE SMOOTH",
"527 327 OFFCURVE",
"550 313 OFFCURVE",
"550 277 CURVE SMOOTH",
"550 78 LINE",
"504 40 OFFCURVE",
"432 31 OFFCURVE",
"386 31 CURVE SMOOTH",
"218 31 OFFCURVE",
"141 159 OFFCURVE",
"141 350 CURVE SMOOTH",
"141 541 OFFCURVE",
"232 668 OFFCURVE",
"398 668 CURVE SMOOTH",
"501 668 OFFCURVE",
"589 615 OFFCURVE",
"601 513 CURVE",
"630 513 LINE",
"630 705 LINE",
"594 705 LINE",
"594 661 LINE SMOOTH",
"594 651 OFFCURVE",
"592 646 OFFCURVE",
"584 646 CURVE SMOOTH",
"581 646 OFFCURVE",
"576 649 OFFCURVE",
"573 651 CURVE",
"533 684 OFFCURVE",
"455 710 OFFCURVE",
"380 710 CURVE SMOOTH",
"166 710 OFFCURVE",
"42 574 OFFCURVE",
"42 350 CURVE SMOOTH",
"42 124 OFFCURVE",
"157 -10 OFFCURVE",
"371 -10 CURVE SMOOTH"
);
},
{
closed = 1;
nodes = (
"399 -258 OFFCURVE",
"443 -198 OFFCURVE",
"443 -135 CURVE SMOOTH",
"443 -87 OFFCURVE",
"419 -67 OFFCURVE",
"390 -67 CURVE SMOOTH",
"361 -67 OFFCURVE",
"344 -87 OFFCURVE",
"344 -111 CURVE SMOOTH",
"344 -145 OFFCURVE",
"379 -152 OFFCURVE",
"379 -187 CURVE SMOOTH",
"379 -223 OFFCURVE",
"353 -256 OFFCURVE",
"326 -282 CURVE",
"343 -299 LINE"
);
}
);
width = 713;
}
);
leftKerningGroup = G;
note = Gcommaaccent;
unicode = 0122;
},
{
glyphname = Gdotaccent;
lastChange = "2015-12-01 09:49:18 +0000";
layers = (
{
layerId = "0B1DFD06-3317-40CA-B510-4969A0718C16";
name = Regular;
paths = (
{
closed = 1;
nodes = (
"499 -10 OFFCURVE",
"576 19 OFFCURVE",
"644 69 CURVE",
"644 249 LINE SMOOTH",
"644 312 OFFCURVE",
"652 330 OFFCURVE",
"693 330 CURVE SMOOTH",
"705 330 LINE",
"705 350 LINE",
"456 350 LINE",
"456 327 LINE",
"474 327 LINE SMOOTH",
"527 327 OFFCURVE",
"550 313 OFFCURVE",
"550 277 CURVE SMOOTH",
"550 78 LINE",
"504 40 OFFCURVE",
"432 31 OFFCURVE",
"386 31 CURVE SMOOTH",
"218 31 OFFCURVE",
"141 159 OFFCURVE",
"141 350 CURVE SMOOTH",
"141 541 OFFCURVE",
"232 668 OFFCURVE",
"398 668 CURVE SMOOTH",
"501 668 OFFCURVE",
"589 615 OFFCURVE",
"601 513 CURVE",
"630 513 LINE",
"630 705 LINE",
"594 705 LINE",
"594 661 LINE SMOOTH",
"594 651 OFFCURVE",
"592 646 OFFCURVE",
"584 646 CURVE SMOOTH",
"581 646 OFFCURVE",
"576 649 OFFCURVE",
"573 651 CURVE",
"533 684 OFFCURVE",
"455 710 OFFCURVE",
"380 710 CURVE SMOOTH",
"166 710 OFFCURVE",
"42 574 OFFCURVE",
"42 350 CURVE SMOOTH",
"42 124 OFFCURVE",
"157 -10 OFFCURVE",
"371 -10 CURVE SMOOTH"
);
},
{
closed = 1;
nodes = (
"406 782 OFFCURVE",
"424 801 OFFCURVE",
"424 828 CURVE SMOOTH",
"424 856 OFFCURVE",
"406 875 OFFCURVE",
"378 875 CURVE SMOOTH",
"349 875 OFFCURVE",
"331 856 OFFCURVE",
"331 828 CURVE SMOOTH",
"331 801 OFFCURVE",
"349 782 OFFCURVE",
"378 782 CURVE SMOOTH"
);
}
);
width = 713;
}
);
leftKerningGroup = G;
note = Gdotaccent;
unicode = 0120;
},
{
glyphname = Gmacron;
lastChange = "2015-12-01 09:49:19 +0000";
layers = (
{
layerId = "0B1DFD06-3317-40CA-B510-4969A0718C16";
name = Regular;
paths = (
{
closed = 1;
nodes = (
"499 -10 OFFCURVE",
"576 19 OFFCURVE",
"644 69 CURVE",
"644 249 LINE SMOOTH",
"644 312 OFFCURVE",
"652 330 OFFCURVE",
"693 330 CURVE SMOOTH",
"705 330 LINE",
"705 350 LINE",
"456 350 LINE",
"456 327 LINE",
"474 327 LINE SMOOTH",
"527 327 OFFCURVE",
"550 313 OFFCURVE",
"550 277 CURVE SMOOTH",
"550 78 LINE",
"504 40 OFFCURVE",
"432 31 OFFCURVE",
"386 31 CURVE SMOOTH",
"218 31 OFFCURVE",
"141 159 OFFCURVE",
"141 350 CURVE SMOOTH",
"141 541 OFFCURVE",
"232 668 OFFCURVE",
"398 668 CURVE SMOOTH",
"501 668 OFFCURVE",
"589 615 OFFCURVE",
"601 513 CURVE",
"630 513 LINE",
"630 705 LINE",
"594 705 LINE",
"594 661 LINE SMOOTH",
"594 651 OFFCURVE",
"592 646 OFFCURVE",
"584 646 CURVE SMOOTH",
"581 646 OFFCURVE",
"576 649 OFFCURVE",
"573 651 CURVE",
"533 684 OFFCURVE",
"455 710 OFFCURVE",
"380 710 CURVE SMOOTH",
"166 710 OFFCURVE",
"42 574 OFFCURVE",
"42 350 CURVE SMOOTH",
"42 124 OFFCURVE",
"157 -10 OFFCURVE",
"371 -10 CURVE SMOOTH"
);
},
{
closed = 1;
nodes = (
"541 791 LINE",
"541 833 LINE",
"208 833 LINE",
"208 791 LINE"
);
}
);
width = 713;
}
);
leftKerningGroup = G;
note = Gmacron;
unicode = 1E20;
},
{
glyphname = H;
lastChange = "2015-12-01 09:49:18 +0000";
layers = (
{
layerId = "0B1DFD06-3317-40CA-B510-4969A0718C16";
name = Regular;
paths = (
{
closed = 1;
nodes = (
"295 0 LINE",
"295 26 LINE",
"265 26 LINE SMOOTH",
"227 26 OFFCURVE",
"207 37 OFFCURVE",
"207 62 CURVE SMOOTH",
"207 637 LINE SMOOTH",
"207 662 OFFCURVE",
"227 673 OFFCURVE",
"265 673 CURVE SMOOTH",
"295 673 LINE",
"295 700 LINE",
"22 700 LINE",
"22 673 LINE",
"51 673 LINE SMOOTH",
"90 673 OFFCURVE",
"109 662 OFFCURVE",
"109 637 CURVE SMOOTH",
"109 62 LINE SMOOTH",
"109 37 OFFCURVE",
"90 26 OFFCURVE",
"51 26 CURVE SMOOTH",
"22 26 LINE",
"22 0 LINE"
);
},
{
closed = 1;
nodes = (
"611 348 LINE",
"611 389 LINE",
"158 389 LINE",
"158 348 LINE"
);
},
{
closed = 1;
nodes = (
"751 0 LINE",
"751 26 LINE",
"722 26 LINE SMOOTH",
"684 26 OFFCURVE",
"664 37 OFFCURVE",
"664 62 CURVE SMOOTH",
"664 637 LINE SMOOTH",
"664 662 OFFCURVE",
"684 673 OFFCURVE",
"722 673 CURVE SMOOTH",
"751 673 LINE",
"751 700 LINE",
"479 700 LINE",
"479 673 LINE",
"507 673 LINE SMOOTH",
"546 673 OFFCURVE",
"566 662 OFFCURVE",
"566 637 CURVE SMOOTH",
"566 62 LINE SMOOTH",
"566 37 OFFCURVE",
"546 26 OFFCURVE",
"507 26 CURVE SMOOTH",
"479 26 LINE",
"479 0 LINE"
);
}
);
width = 773;
}
);
note = H;
unicode = 0048;
},
{
glyphname = Hbar;
lastChange = "2015-12-01 09:49:20 +0000";
layers = (
{
layerId = "0B1DFD06-3317-40CA-B510-4969A0718C16";
name = Regular;
paths = (
{
closed = 1;
nodes = (
"295 0 LINE",
"295 26 LINE",
"265 26 LINE SMOOTH",
"227 26 OFFCURVE",
"207 37 OFFCURVE",
"207 62 CURVE SMOOTH",
"207 637 LINE SMOOTH",
"207 662 OFFCURVE",
"227 673 OFFCURVE",
"265 673 CURVE SMOOTH",
"295 673 LINE",
"295 700 LINE",
"22 700 LINE",
"22 673 LINE",
"51 673 LINE SMOOTH",
"90 673 OFFCURVE",
"109 662 OFFCURVE",
"109 637 CURVE SMOOTH",
"109 62 LINE SMOOTH",
"109 37 OFFCURVE",
"90 26 OFFCURVE",
"51 26 CURVE SMOOTH",
"22 26 LINE",
"22 0 LINE"
);
},
{
closed = 1;
nodes = (
"611 348 LINE",
"611 389 LINE",
"158 389 LINE",
"158 348 LINE"
);
},
{
closed = 1;
nodes = (
"719 504 LINE",
"719 544 LINE",
"43 544 LINE",
"43 504 LINE"
);
},
{
closed = 1;
nodes = (
"751 0 LINE",
"751 26 LINE",
"722 26 LINE SMOOTH",
"684 26 OFFCURVE",
"664 37 OFFCURVE",
"664 62 CURVE SMOOTH",
"664 637 LINE SMOOTH",
"664 662 OFFCURVE",
"684 673 OFFCURVE",
"722 673 CURVE SMOOTH",
"751 673 LINE",
"751 700 LINE",
"479 700 LINE",
"479 673 LINE",
"507 673 LINE SMOOTH",
"546 673 OFFCURVE",
"566 662 OFFCURVE",
"566 637 CURVE SMOOTH",
"566 62 LINE SMOOTH",
"566 37 OFFCURVE",
"546 26 OFFCURVE",
"507 26 CURVE SMOOTH",
"479 26 LINE",
"479 0 LINE"
);
}
);
width = 773;
}
);
note = Hbar;
unicode = 0126;
},
{
glyphname = Hbrevebelow;
lastChange = "2015-12-01 09:49:19 +0000";
layers = (
{
layerId = "0B1DFD06-3317-40CA-B510-4969A0718C16";
name = Regular;
paths = (
{
closed = 1;
nodes = (
"295 0 LINE",
"295 26 LINE",
"265 26 LINE SMOOTH",
"227 26 OFFCURVE",
"207 37 OFFCURVE",
"207 62 CURVE SMOOTH",
"207 637 LINE SMOOTH",
"207 662 OFFCURVE",
"227 673 OFFCURVE",
"265 673 CURVE SMOOTH",
"295 673 LINE",
"295 700 LINE",
"22 700 LINE",
"22 673 LINE",
"51 673 LINE SMOOTH",
"90 673 OFFCURVE",
"109 662 OFFCURVE",
"109 637 CURVE SMOOTH",
"109 62 LINE SMOOTH",
"109 37 OFFCURVE",
"90 26 OFFCURVE",
"51 26 CURVE SMOOTH",
"22 26 LINE",
"22 0 LINE"
);
},
{
closed = 1;
nodes = (
"484 -183 OFFCURVE",
"526 -128 OFFCURVE",
"530 -53 CURVE",
"497 -53 LINE",
"491 -111 OFFCURVE",
"449 -137 OFFCURVE",
"385 -137 CURVE SMOOTH",
"321 -137 OFFCURVE",
"278 -111 OFFCURVE",
"271 -53 CURVE",
"238 -53 LINE",
"242 -130 OFFCURVE",
"284 -183 OFFCURVE",
"385 -183 CURVE SMOOTH"
);
},
{
closed = 1;
nodes = (
"611 348 LINE",
"611 389 LINE",
"158 389 LINE",
"158 348 LINE"
);
},
{
closed = 1;
nodes = (
"751 0 LINE",
"751 26 LINE",
"722 26 LINE SMOOTH",
"684 26 OFFCURVE",
"664 37 OFFCURVE",
"664 62 CURVE SMOOTH",
"664 637 LINE SMOOTH",
"664 662 OFFCURVE",
"684 673 OFFCURVE",
"722 673 CURVE SMOOTH",
"751 673 LINE",
"751 700 LINE",
"479 700 LINE",
"479 673 LINE",
"507 673 LINE SMOOTH",
"546 673 OFFCURVE",
"566 662 OFFCURVE",
"566 637 CURVE SMOOTH",
"566 62 LINE SMOOTH",
"566 37 OFFCURVE",
"546 26 OFFCURVE",
"507 26 CURVE SMOOTH",
"479 26 LINE",
"479 0 LINE"
);
}
);
width = 773;
}
);
note = Hbrevebelow;
unicode = 1E2A;
},
{
glyphname = Hcircumflex;
lastChange = "2015-12-01 09:49:18 +0000";
layers = (
{
layerId = "0B1DFD06-3317-40CA-B510-4969A0718C16";
name = Regular;
paths = (
{
closed = 1;
nodes = (
"295 0 LINE",
"295 26 LINE",
"265 26 LINE SMOOTH",
"227 26 OFFCURVE",
"207 37 OFFCURVE",
"207 62 CURVE SMOOTH",
"207 637 LINE SMOOTH",
"207 662 OFFCURVE",
"227 673 OFFCURVE",
"265 673 CURVE SMOOTH",
"295 673 LINE",
"295 700 LINE",
"22 700 LINE",
"22 673 LINE",
"51 673 LINE SMOOTH",
"90 673 OFFCURVE",
"109 662 OFFCURVE",
"109 637 CURVE SMOOTH",
"109 62 LINE SMOOTH",
"109 37 OFFCURVE",
"90 26 OFFCURVE",
"51 26 CURVE SMOOTH",
"22 26 LINE",
"22 0 LINE"
);
},
{
closed = 1;
nodes = (
"611 348 LINE",
"611 389 LINE",
"158 389 LINE",
"158 348 LINE"
);
},
{
closed = 1;
nodes = (
"751 0 LINE",
"751 26 LINE",
"722 26 LINE SMOOTH",
"684 26 OFFCURVE",
"664 37 OFFCURVE",
"664 62 CURVE SMOOTH",
"664 637 LINE SMOOTH",
"664 662 OFFCURVE",
"684 673 OFFCURVE",
"722 673 CURVE SMOOTH",
"751 673 LINE",
"751 700 LINE",
"479 700 LINE",
"479 673 LINE",
"507 673 LINE SMOOTH",
"546 673 OFFCURVE",
"566 662 OFFCURVE",
"566 637 CURVE SMOOTH",
"566 62 LINE SMOOTH",
"566 37 OFFCURVE",
"546 26 OFFCURVE",
"507 26 CURVE SMOOTH",
"479 26 LINE",
"479 0 LINE"
);
},
{
closed = 1;
nodes = (
"362 868 LINE SMOOTH",
"370 874 OFFCURVE",
"380 879 OFFCURVE",
"386 879 CURVE SMOOTH",
"392 879 OFFCURVE",
"400 874 OFFCURVE",
"409 868 CURVE",
"517 782 LINE",
"536 803 LINE",
"412 932 LINE",
"359 932 LINE",
"235 803 LINE",
"254 782 LINE"
);
}
);
width = 773;
}
);
note = Hcircumflex;
unicode = 0124;
},
{
glyphname = Hdotbelow;
lastChange = "2015-12-01 09:49:19 +0000";
layers = (
{
layerId = "0B1DFD06-3317-40CA-B510-4969A0718C16";
name = Regular;
paths = (
{
closed = 1;
nodes = (
"295 0 LINE",
"295 26 LINE",
"265 26 LINE SMOOTH",
"227 26 OFFCURVE",
"207 37 OFFCURVE",
"207 62 CURVE SMOOTH",
"207 637 LINE SMOOTH",
"207 662 OFFCURVE",
"227 673 OFFCURVE",
"265 673 CURVE SMOOTH",
"295 673 LINE",
"295 700 LINE",
"22 700 LINE",
"22 673 LINE",
"51 673 LINE SMOOTH",
"90 673 OFFCURVE",
"109 662 OFFCURVE",
"109 637 CURVE SMOOTH",
"109 62 LINE SMOOTH",
"109 37 OFFCURVE",
"90 26 OFFCURVE",
"51 26 CURVE SMOOTH",
"22 26 LINE",
"22 0 LINE"
);
},
{
closed = 1;
nodes = (
"413 -159 OFFCURVE",
"431 -140 OFFCURVE",
"431 -112 CURVE SMOOTH",
"431 -84 OFFCURVE",
"413 -64 OFFCURVE",
"385 -64 CURVE SMOOTH",
"357 -64 OFFCURVE",
"338 -84 OFFCURVE",
"338 -112 CURVE SMOOTH",
"338 -140 OFFCURVE",
"357 -159 OFFCURVE",
"385 -159 CURVE SMOOTH"
);
},
{
closed = 1;
nodes = (
"611 348 LINE",
"611 389 LINE",
"158 389 LINE",
"158 348 LINE"
);
},
{
closed = 1;
nodes = (
"751 0 LINE",
"751 26 LINE",
"722 26 LINE SMOOTH",
"684 26 OFFCURVE",
"664 37 OFFCURVE",
"664 62 CURVE SMOOTH",
"664 637 LINE SMOOTH",
"664 662 OFFCURVE",
"684 673 OFFCURVE",
"722 673 CURVE SMOOTH",
"751 673 LINE",
"751 700 LINE",
"479 700 LINE",
"479 673 LINE",
"507 673 LINE SMOOTH",
"546 673 OFFCURVE",
"566 662 OFFCURVE",
"566 637 CURVE SMOOTH",
"566 62 LINE SMOOTH",
"566 37 OFFCURVE",
"546 26 OFFCURVE",
"507 26 CURVE SMOOTH",
"479 26 LINE",
"479 0 LINE"
);
}
);
width = 773;
}
);
note = Hdotbelow;
unicode = 1E24;
},
{
glyphname = I;
lastChange = "2015-12-01 09:49:14 +0000";
layers = (
{
layerId = "0B1DFD06-3317-40CA-B510-4969A0718C16";
name = Regular;
paths = (
{
closed = 1;
nodes = (
"298 0 LINE",
"298 26 LINE",
"270 26 LINE SMOOTH",
"231 26 OFFCURVE",
"211 37 OFFCURVE",
"211 62 CURVE SMOOTH",
"211 637 LINE SMOOTH",
"211 662 OFFCURVE",
"231 673 OFFCURVE",
"270 673 CURVE SMOOTH",
"298 673 LINE",
"298 700 LINE",
"26 700 LINE",
"26 673 LINE",
"55 673 LINE SMOOTH",
"93 673 OFFCURVE",
"113 662 OFFCURVE",
"113 637 CURVE SMOOTH",
"113 62 LINE SMOOTH",
"113 37 OFFCURVE",
"93 26 OFFCURVE",
"55 26 CURVE SMOOTH",
"26 26 LINE",
"26 0 LINE"
);
}
);
width = 324;
}
);
note = I;
unicode = 0049;
},
{
glyphname = IJ;
lastChange = "2015-12-01 09:49:20 +0000";
layers = (
{
layerId = "0B1DFD06-3317-40CA-B510-4969A0718C16";
name = Regular;
paths = (
{
closed = 1;
nodes = (
"472 -114 OFFCURVE",
"561 -45 OFFCURVE",
"561 89 CURVE SMOOTH",
"561 637 LINE SMOOTH",
"561 662 OFFCURVE",
"581 673 OFFCURVE",
"619 673 CURVE SMOOTH",
"649 673 LINE",
"649 700 LINE",
"376 700 LINE",
"376 673 LINE",
"405 673 LINE SMOOTH",
"444 673 OFFCURVE",
"463 662 OFFCURVE",
"463 637 CURVE SMOOTH",
"463 90 LINE SMOOTH",
"463 -8 OFFCURVE",
"424 -75 OFFCURVE",
"339 -93 CURVE",
"343 -114 LINE"
);
},
{
closed = 1;
nodes = (
"298 0 LINE",
"298 26 LINE",
"270 26 LINE SMOOTH",
"231 26 OFFCURVE",
"211 37 OFFCURVE",
"211 62 CURVE SMOOTH",
"211 637 LINE SMOOTH",
"211 662 OFFCURVE",
"231 673 OFFCURVE",
"270 673 CURVE SMOOTH",
"298 673 LINE",
"298 700 LINE",
"26 700 LINE",
"26 673 LINE",
"55 673 LINE SMOOTH",
"93 673 OFFCURVE",
"113 662 OFFCURVE",
"113 637 CURVE SMOOTH",
"113 62 LINE SMOOTH",
"113 37 OFFCURVE",
"93 26 OFFCURVE",
"55 26 CURVE SMOOTH",
"26 26 LINE",
"26 0 LINE"
);
}
);
width = 675;
}
);
note = IJ;
rightKerningGroup = J;
unicode = 0132;
},
{
glyphname = Iacute;
lastChange = "2015-12-01 09:49:20 +0000";
layers = (
{
layerId = "0B1DFD06-3317-40CA-B510-4969A0718C16";
name = Regular;
paths = (
{
closed = 1;
nodes = (
"298 0 LINE",
"298 26 LINE",
"270 26 LINE SMOOTH",
"231 26 OFFCURVE",
"211 37 OFFCURVE",
"211 62 CURVE SMOOTH",
"211 637 LINE SMOOTH",
"211 662 OFFCURVE",
"231 673 OFFCURVE",
"270 673 CURVE SMOOTH",
"298 673 LINE",
"298 700 LINE",
"26 700 LINE",
"26 673 LINE",
"55 673 LINE SMOOTH",
"93 673 OFFCURVE",
"113 662 OFFCURVE",
"113 637 CURVE SMOOTH",
"113 62 LINE SMOOTH",
"113 37 OFFCURVE",
"93 26 OFFCURVE",
"55 26 CURVE SMOOTH",
"26 26 LINE",
"26 0 LINE"
);
},
{
closed = 1;
nodes = (
"224 865 LINE SMOOTH",
"246 877 OFFCURVE",
"258 890 OFFCURVE",
"258 907 CURVE SMOOTH",
"258 922 OFFCURVE",
"246 937 OFFCURVE",
"224 937 CURVE SMOOTH",
"203 937 OFFCURVE",
"188 921 OFFCURVE",
"180 914 CURVE SMOOTH",
"65 807 LINE",
"82 782 LINE"
);
}
);
width = 324;
}
);
note = Iacute;
unicode = 00CD;
},
{
glyphname = Ibreve;
lastChange = "2015-12-01 09:49:18 +0000";
layers = (
{
layerId = "0B1DFD06-3317-40CA-B510-4969A0718C16";
name = Regular;
paths = (
{
closed = 1;
nodes = (
"298 0 LINE",
"298 26 LINE",
"270 26 LINE SMOOTH",
"231 26 OFFCURVE",
"211 37 OFFCURVE",
"211 62 CURVE SMOOTH",
"211 637 LINE SMOOTH",
"211 662 OFFCURVE",
"231 673 OFFCURVE",
"270 673 CURVE SMOOTH",
"298 673 LINE",
"298 700 LINE",
"26 700 LINE",
"26 673 LINE",
"55 673 LINE SMOOTH",
"93 673 OFFCURVE",
"113 662 OFFCURVE",
"113 637 CURVE SMOOTH",
"113 62 LINE SMOOTH",
"113 37 OFFCURVE",
"93 26 OFFCURVE",
"55 26 CURVE SMOOTH",
"26 26 LINE",
"26 0 LINE"
);
},
{
closed = 1;
nodes = (
"262 776 OFFCURVE",
"304 832 OFFCURVE",
"308 907 CURVE",
"275 907 LINE",
"269 848 OFFCURVE",
"227 822 OFFCURVE",
"163 822 CURVE SMOOTH",
"99 822 OFFCURVE",
"56 848 OFFCURVE",
"49 907 CURVE",
"16 907 LINE",
"20 829 OFFCURVE",
"62 776 OFFCURVE",
"163 776 CURVE SMOOTH"
);
}
);
width = 324;
}
);
note = Ibreve;
unicode = 012C;
},
{
glyphname = Icaron;
lastChange = "2015-12-01 09:49:18 +0000";
layers = (
{
layerId = "0B1DFD06-3317-40CA-B510-4969A0718C16";
name = Regular;
paths = (
{
closed = 1;
nodes = (
"298 0 LINE",
"298 26 LINE",
"270 26 LINE SMOOTH",
"231 26 OFFCURVE",
"211 37 OFFCURVE",
"211 62 CURVE SMOOTH",
"211 637 LINE SMOOTH",
"211 662 OFFCURVE",
"231 673 OFFCURVE",
"270 673 CURVE SMOOTH",
"298 673 LINE",
"298 700 LINE",
"26 700 LINE",
"26 673 LINE",
"55 673 LINE SMOOTH",
"93 673 OFFCURVE",
"113 662 OFFCURVE",
"113 637 CURVE SMOOTH",
"113 62 LINE SMOOTH",
"113 37 OFFCURVE",
"93 26 OFFCURVE",
"55 26 CURVE SMOOTH",
"26 26 LINE",
"26 0 LINE"
);
},
{
closed = 1;
nodes = (
"188 782 LINE",
"312 911 LINE",
"293 932 LINE",
"185 847 LINE",
"177 840 OFFCURVE",
"168 836 OFFCURVE",
"162 836 CURVE SMOOTH",
"156 836 OFFCURVE",
"148 840 OFFCURVE",
"138 847 CURVE",
"30 932 LINE",
"11 911 LINE",
"135 782 LINE"
);
}
);
width = 325;
}
);
note = Icaron;
unicode = 01CF;
},
{
glyphname = Icircumflex;
lastChange = "2015-12-01 09:49:18 +0000";
layers = (
{
layerId = "0B1DFD06-3317-40CA-B510-4969A0718C16";
name = Regular;
paths = (
{
closed = 1;
nodes = (
"298 0 LINE",
"298 26 LINE",
"270 26 LINE SMOOTH",
"231 26 OFFCURVE",
"211 37 OFFCURVE",
"211 62 CURVE SMOOTH",
"211 637 LINE SMOOTH",
"211 662 OFFCURVE",
"231 673 OFFCURVE",
"270 673 CURVE SMOOTH",
"298 673 LINE",
"298 700 LINE",
"26 700 LINE",
"26 673 LINE",
"55 673 LINE SMOOTH",
"93 673 OFFCURVE",
"113 662 OFFCURVE",
"113 637 CURVE SMOOTH",
"113 62 LINE SMOOTH",
"113 37 OFFCURVE",
"93 26 OFFCURVE",
"55 26 CURVE SMOOTH",
"26 26 LINE",
"26 0 LINE"
);
},
{
closed = 1;
nodes = (
"138 868 LINE SMOOTH",
"146 874 OFFCURVE",
"156 879 OFFCURVE",
"162 879 CURVE SMOOTH",
"168 879 OFFCURVE",
"176 874 OFFCURVE",
"185 868 CURVE",
"293 782 LINE",
"312 803 LINE",
"188 932 LINE",
"135 932 LINE",
"11 803 LINE",
"30 782 LINE"
);
}
);
width = 324;
}
);
note = Icircumflex;
unicode = 00CE;
},
{
glyphname = Idieresis;
lastChange = "2015-12-01 09:49:20 +0000";
layers = (
{
layerId = "0B1DFD06-3317-40CA-B510-4969A0718C16";
name = Regular;
paths = (
{
closed = 1;
nodes = (
"298 0 LINE",
"298 26 LINE",
"270 26 LINE SMOOTH",
"231 26 OFFCURVE",
"211 37 OFFCURVE",
"211 62 CURVE SMOOTH",
"211 637 LINE SMOOTH",
"211 662 OFFCURVE",
"231 673 OFFCURVE",
"270 673 CURVE SMOOTH",
"298 673 LINE",
"298 700 LINE",
"26 700 LINE",
"26 673 LINE",
"55 673 LINE SMOOTH",
"93 673 OFFCURVE",
"113 662 OFFCURVE",
"113 637 CURVE SMOOTH",
"113 62 LINE SMOOTH",
"113 37 OFFCURVE",
"93 26 OFFCURVE",
"55 26 CURVE SMOOTH",
"26 26 LINE",
"26 0 LINE"
);
},
{
closed = 1;
nodes = (
"82 781 OFFCURVE",
"100 800 OFFCURVE",
"100 827 CURVE SMOOTH",
"100 855 OFFCURVE",
"82 875 OFFCURVE",
"53 875 CURVE SMOOTH",
"25 875 OFFCURVE",
"7 855 OFFCURVE",
"7 827 CURVE SMOOTH",
"7 800 OFFCURVE",
"25 781 OFFCURVE",
"53 781 CURVE SMOOTH"
);
},
{
closed = 1;
nodes = (
"298 781 OFFCURVE",
"316 800 OFFCURVE",
"316 827 CURVE SMOOTH",
"316 855 OFFCURVE",
"298 875 OFFCURVE",
"269 875 CURVE SMOOTH",
"240 875 OFFCURVE",
"222 855 OFFCURVE",
"222 827 CURVE SMOOTH",
"222 800 OFFCURVE",
"240 781 OFFCURVE",
"269 781 CURVE SMOOTH"
);
}
);
width = 324;
}
);
note = Idieresis;
unicode = 00CF;
},
{
glyphname = Idotaccent;
lastChange = "2015-12-01 09:49:19 +0000";
layers = (
{
layerId = "0B1DFD06-3317-40CA-B510-4969A0718C16";
name = Regular;
paths = (
{
closed = 1;
nodes = (
"298 0 LINE",
"298 26 LINE",
"270 26 LINE SMOOTH",
"231 26 OFFCURVE",
"211 37 OFFCURVE",
"211 62 CURVE SMOOTH",
"211 637 LINE SMOOTH",
"211 662 OFFCURVE",
"231 673 OFFCURVE",
"270 673 CURVE SMOOTH",
"298 673 LINE",
"298 700 LINE",
"26 700 LINE",
"26 673 LINE",
"55 673 LINE SMOOTH",
"93 673 OFFCURVE",
"113 662 OFFCURVE",
"113 637 CURVE SMOOTH",
"113 62 LINE SMOOTH",
"113 37 OFFCURVE",
"93 26 OFFCURVE",
"55 26 CURVE SMOOTH",
"26 26 LINE",
"26 0 LINE"
);
},
{
closed = 1;
nodes = (
"190 781 OFFCURVE",
"208 800 OFFCURVE",
"208 827 CURVE SMOOTH",
"208 855 OFFCURVE",
"190 874 OFFCURVE",
"162 874 CURVE SMOOTH",
"133 874 OFFCURVE",
"115 855 OFFCURVE",
"115 827 CURVE SMOOTH",
"115 800 OFFCURVE",
"133 781 OFFCURVE",
"162 781 CURVE SMOOTH"
);
}
);
width = 324;
}
);
note = Idotaccent;
unicode = 0130;
},
{
glyphname = Idotbelow;
lastChange = "2015-12-01 09:49:19 +0000";
layers = (
{
layerId = "0B1DFD06-3317-40CA-B510-4969A0718C16";
name = Regular;
paths = (
{
closed = 1;
nodes = (
"298 0 LINE",
"298 26 LINE",
"270 26 LINE SMOOTH",
"231 26 OFFCURVE",
"211 37 OFFCURVE",
"211 62 CURVE SMOOTH",
"211 637 LINE SMOOTH",
"211 662 OFFCURVE",
"231 673 OFFCURVE",
"270 673 CURVE SMOOTH",
"298 673 LINE",
"298 700 LINE",
"26 700 LINE",
"26 673 LINE",
"55 673 LINE SMOOTH",
"93 673 OFFCURVE",
"113 662 OFFCURVE",
"113 637 CURVE SMOOTH",
"113 62 LINE SMOOTH",
"113 37 OFFCURVE",
"93 26 OFFCURVE",
"55 26 CURVE SMOOTH",
"26 26 LINE",
"26 0 LINE"
);
},
{
closed = 1;
nodes = (
"190 -159 OFFCURVE",
"208 -140 OFFCURVE",
"208 -112 CURVE SMOOTH",
"208 -84 OFFCURVE",
"190 -64 OFFCURVE",
"162 -64 CURVE SMOOTH",
"134 -64 OFFCURVE",
"115 -84 OFFCURVE",
"115 -112 CURVE SMOOTH",
"115 -140 OFFCURVE",
"134 -159 OFFCURVE",
"162 -159 CURVE SMOOTH"
);
}
);
width = 325;
}
);
note = Idotbelow;
unicode = 1ECA;
},
{
glyphname = Igrave;
lastChange = "2015-12-01 09:49:19 +0000";
layers = (
{
layerId = "0B1DFD06-3317-40CA-B510-4969A0718C16";
name = Regular;
paths = (
{
closed = 1;
nodes = (
"298 0 LINE",
"298 26 LINE",
"270 26 LINE SMOOTH",
"231 26 OFFCURVE",
"211 37 OFFCURVE",
"211 62 CURVE SMOOTH",
"211 637 LINE SMOOTH",
"211 662 OFFCURVE",
"231 673 OFFCURVE",
"270 673 CURVE SMOOTH",
"298 673 LINE",
"298 700 LINE",
"26 700 LINE",
"26 673 LINE",
"55 673 LINE SMOOTH",
"93 673 OFFCURVE",
"113 662 OFFCURVE",
"113 637 CURVE SMOOTH",
"113 62 LINE SMOOTH",
"113 37 OFFCURVE",
"93 26 OFFCURVE",
"55 26 CURVE SMOOTH",
"26 26 LINE",
"26 0 LINE"
);
},
{
closed = 1;
nodes = (
"258 807 LINE",
"143 913 LINE",
"134 922 OFFCURVE",
"118 937 OFFCURVE",
"98 937 CURVE SMOOTH",
"78 937 OFFCURVE",
"66 924 OFFCURVE",
"66 908 CURVE SMOOTH",
"66 890 OFFCURVE",
"78 876 OFFCURVE",
"97 865 CURVE SMOOTH",
"240 782 LINE"
);
}
);
width = 324;
}
);
note = Igrave;
unicode = 00CC;
},
{
glyphname = Ihookabove;
lastChange = "2015-12-01 09:49:20 +0000";
layers = (
{
layerId = "0B1DFD06-3317-40CA-B510-4969A0718C16";
name = Regular;
paths = (
{
closed = 1;
nodes = (
"298 0 LINE",
"298 26 LINE",
"270 26 LINE SMOOTH",
"231 26 OFFCURVE",
"211 37 OFFCURVE",
"211 62 CURVE SMOOTH",
"211 637 LINE SMOOTH",
"211 662 OFFCURVE",
"231 673 OFFCURVE",
"270 673 CURVE SMOOTH",
"298 673 LINE",
"298 700 LINE",
"26 700 LINE",
"26 673 LINE",
"55 673 LINE SMOOTH",
"93 673 OFFCURVE",
"113 662 OFFCURVE",
"113 637 CURVE SMOOTH",
"113 62 LINE SMOOTH",
"113 37 OFFCURVE",
"93 26 OFFCURVE",
"55 26 CURVE SMOOTH",
"26 26 LINE",
"26 0 LINE"
);
},
{
closed = 1;
nodes = (
"204 798 LINE",
"185 805 OFFCURVE",
"173 811 OFFCURVE",
"173 828 CURVE SMOOTH",
"173 861 OFFCURVE",
"262 876 OFFCURVE",
"262 927 CURVE SMOOTH",
"262 969 OFFCURVE",
"226 991 OFFCURVE",
"173 991 CURVE SMOOTH",
"126 991 OFFCURVE",
"85 974 OFFCURVE",
"85 940 CURVE SMOOTH",
"85 923 OFFCURVE",
"93 915 OFFCURVE",
"108 915 CURVE SMOOTH",
"131 915 OFFCURVE",
"133 934 OFFCURVE",
"136 942 CURVE SMOOTH",
"141 956 OFFCURVE",
"158 962 OFFCURVE",
"174 962 CURVE SMOOTH",
"195 962 OFFCURVE",
"208 947 OFFCURVE",
"208 930 CURVE SMOOTH",
"208 885 OFFCURVE",
"126 874 OFFCURVE",
"126 828 CURVE SMOOTH",
"126 801 OFFCURVE",
"144 778 OFFCURVE",
"195 778 CURVE"
);
}
);
width = 325;
}
);
note = Ihookabove;
unicode = 1EC8;
},
{
glyphname = Imacron;
lastChange = "2015-12-01 09:49:18 +0000";
layers = (
{
layerId = "0B1DFD06-3317-40CA-B510-4969A0718C16";
name = Regular;
paths = (
{
closed = 1;
nodes = (
"298 0 LINE",
"298 26 LINE",
"270 26 LINE SMOOTH",
"231 26 OFFCURVE",
"211 37 OFFCURVE",
"211 62 CURVE SMOOTH",
"211 637 LINE SMOOTH",
"211 662 OFFCURVE",
"231 673 OFFCURVE",
"270 673 CURVE SMOOTH",
"298 673 LINE",
"298 700 LINE",
"26 700 LINE",
"26 673 LINE",
"55 673 LINE SMOOTH",
"93 673 OFFCURVE",
"113 662 OFFCURVE",
"113 637 CURVE SMOOTH",
"113 62 LINE SMOOTH",
"113 37 OFFCURVE",
"93 26 OFFCURVE",
"55 26 CURVE SMOOTH",
"26 26 LINE",
"26 0 LINE"
);
},
{
closed = 1;
nodes = (
"355 782 LINE",
"355 828 LINE",
"-31 828 LINE",
"-31 782 LINE"
);
}
);
width = 324;
}
);
note = Imacron;
unicode = 012A;
},
{
glyphname = Iogonek;
lastChange = "2015-12-01 09:49:19 +0000";
layers = (
{
layerId = "0B1DFD06-3317-40CA-B510-4969A0718C16";
name = Regular;
paths = (
{
closed = 1;
nodes = (
"298 0 LINE",
"298 26 LINE",
"270 26 LINE SMOOTH",
"231 26 OFFCURVE",
"211 37 OFFCURVE",
"211 62 CURVE SMOOTH",
"211 637 LINE SMOOTH",
"211 662 OFFCURVE",
"231 673 OFFCURVE",
"270 673 CURVE SMOOTH",
"298 673 LINE",
"298 700 LINE",
"26 700 LINE",
"26 673 LINE",
"55 673 LINE SMOOTH",
"93 673 OFFCURVE",
"113 662 OFFCURVE",
"113 637 CURVE SMOOTH",
"113 62 LINE SMOOTH",
"113 37 OFFCURVE",
"93 26 OFFCURVE",
"55 26 CURVE SMOOTH",
"26 26 LINE",
"26 0 LINE"
);
},
{
closed = 1;
nodes = (
"245 -196 OFFCURVE",
"273 -189 OFFCURVE",
"298 -172 CURVE",
"292 -152 LINE",
"276 -158 OFFCURVE",
"259 -162 OFFCURVE",
"246 -162 CURVE SMOOTH",
"213 -162 OFFCURVE",
"186 -146 OFFCURVE",
"186 -106 CURVE SMOOTH",
"186 -66 OFFCURVE",
"213 -26 OFFCURVE",
"259 4 CURVE",
"218 4 LINE",
"165 -22 OFFCURVE",
"125 -64 OFFCURVE",
"125 -114 CURVE SMOOTH",
"125 -147 OFFCURVE",
"144 -196 OFFCURVE",
"219 -196 CURVE SMOOTH"
);
}
);
width = 324;
}
);
note = Iogonek;
unicode = 012E;
},
{
glyphname = Itilde;
lastChange = "2015-12-01 09:49:19 +0000";
layers = (
{
layerId = "0B1DFD06-3317-40CA-B510-4969A0718C16";
name = Regular;
paths = (
{
closed = 1;
nodes = (
"298 0 LINE",
"298 26 LINE",
"270 26 LINE SMOOTH",
"231 26 OFFCURVE",
"211 37 OFFCURVE",
"211 62 CURVE SMOOTH",
"211 637 LINE SMOOTH",
"211 662 OFFCURVE",
"231 673 OFFCURVE",
"270 673 CURVE SMOOTH",
"298 673 LINE",
"298 700 LINE",
"26 700 LINE",
"26 673 LINE",
"55 673 LINE SMOOTH",
"93 673 OFFCURVE",
"113 662 OFFCURVE",
"113 637 CURVE SMOOTH",
"113 62 LINE SMOOTH",
"113 37 OFFCURVE",
"93 26 OFFCURVE",
"55 26 CURVE SMOOTH",
"26 26 LINE",
"26 0 LINE"
);
},
{
closed = 1;
nodes = (
"29 820 OFFCURVE",
"47 841 OFFCURVE",
"80 841 CURVE SMOOTH",
"131 841 OFFCURVE",
"180 787 OFFCURVE",
"231 787 CURVE SMOOTH",
"289 787 OFFCURVE",
"319 835 OFFCURVE",
"331 887 CURVE",
"310 898 LINE",
"294 858 OFFCURVE",
"278 836 OFFCURVE",
"244 836 CURVE SMOOTH",
"195 836 OFFCURVE",
"143 889 OFFCURVE",
"92 889 CURVE SMOOTH",
"38 889 OFFCURVE",
"5 845 OFFCURVE",
"-7 793 CURVE",
"15 782 LINE"
);
}
);
width = 324;
}
);
note = Itilde;
unicode = 0128;
},
{
glyphname = J;
lastChange = "2015-12-01 09:49:14 +0000";
layers = (
{
layerId = "0B1DFD06-3317-40CA-B510-4969A0718C16";
name = Regular;
paths = (
{
closed = 1;
nodes = (
"167 -114 OFFCURVE",
"256 -45 OFFCURVE",
"256 89 CURVE SMOOTH",
"256 637 LINE SMOOTH",
"256 662 OFFCURVE",
"276 673 OFFCURVE",
"314 673 CURVE SMOOTH",
"344 673 LINE",
"344 700 LINE",
"71 700 LINE",
"71 673 LINE",
"100 673 LINE SMOOTH",
"139 673 OFFCURVE",
"158 662 OFFCURVE",
"158 637 CURVE SMOOTH",
"158 90 LINE SMOOTH",
"158 -8 OFFCURVE",
"119 -75 OFFCURVE",
"34 -93 CURVE",
"38 -114 LINE"
);
}
);
width = 370;
}
);
leftKerningGroup = J;
note = J;
rightKerningGroup = J;
unicode = 004A;
},
{
glyphname = Jcircumflex;
lastChange = "2015-12-01 09:49:18 +0000";
layers = (
{
layerId = "0B1DFD06-3317-40CA-B510-4969A0718C16";
name = Regular;
paths = (
{
closed = 1;
nodes = (
"167 -114 OFFCURVE",
"256 -45 OFFCURVE",
"256 89 CURVE SMOOTH",
"256 637 LINE SMOOTH",
"256 662 OFFCURVE",
"276 673 OFFCURVE",
"314 673 CURVE SMOOTH",
"344 673 LINE",
"344 700 LINE",
"71 700 LINE",
"71 673 LINE",
"100 673 LINE SMOOTH",
"139 673 OFFCURVE",
"158 662 OFFCURVE",
"158 637 CURVE SMOOTH",
"158 90 LINE SMOOTH",
"158 -8 OFFCURVE",
"119 -75 OFFCURVE",
"34 -93 CURVE",
"38 -114 LINE"
);
},
{
closed = 1;
nodes = (
"182 885 LINE SMOOTH",
"190 891 OFFCURVE",
"200 896 OFFCURVE",
"206 896 CURVE SMOOTH",
"212 896 OFFCURVE",
"220 891 OFFCURVE",
"229 885 CURVE",
"337 799 LINE",
"356 820 LINE",
"232 949 LINE",
"179 949 LINE",
"55 820 LINE",
"74 799 LINE"
);
}
);
width = 370;
}
);
leftKerningGroup = J;
note = Jcircumflex;
rightKerningGroup = J;
unicode = 0134;
},
{
glyphname = K;
lastChange = "2015-12-01 09:49:19 +0000";
layers = (
{
layerId = "0B1DFD06-3317-40CA-B510-4969A0718C16";
name = Regular;
paths = (
{
closed = 1;
nodes = (
"295 0 LINE",
"295 26 LINE",
"265 26 LINE SMOOTH",
"227 26 OFFCURVE",
"207 37 OFFCURVE",
"207 62 CURVE SMOOTH",
"207 637 LINE SMOOTH",
"207 662 OFFCURVE",
"227 673 OFFCURVE",
"265 673 CURVE SMOOTH",
"295 673 LINE",
"295 700 LINE",
"22 700 LINE",
"22 673 LINE",
"51 673 LINE SMOOTH",
"90 673 OFFCURVE",
"109 662 OFFCURVE",
"109 637 CURVE SMOOTH",
"109 62 LINE SMOOTH",
"109 37 OFFCURVE",
"90 26 OFFCURVE",
"51 26 CURVE SMOOTH",
"22 26 LINE",
"22 0 LINE"
);
},
{
closed = 1;
nodes = (
"685 0 LINE",
"685 26 LINE",
"656 26 LINE SMOOTH",
"619 26 OFFCURVE",
"595 51 OFFCURVE",
"574 72 CURVE SMOOTH",
"269 384 LINE",
"205 327 LINE",
"525 0 LINE"
);
},
{
closed = 1;
nodes = (
"572 649 LINE SMOOTH",
"586 662 OFFCURVE",
"602 673 OFFCURVE",
"630 673 CURVE SMOOTH",
"650 673 LINE",
"650 700 LINE",
"450 700 LINE",
"450 673 LINE",
"465 673 LINE SMOOTH",
"491 673 OFFCURVE",
"503 666 OFFCURVE",
"503 654 CURVE SMOOTH",
"503 649 OFFCURVE",
"501 645 OFFCURVE",
"496 640 CURVE",
"205 384 LINE",
"205 322 LINE"
);
}
);
width = 701;
}
);
note = K;
rightKerningGroup = K;
unicode = 004B;
},
{
glyphname = Kcommaaccent;
lastChange = "2015-12-01 09:49:20 +0000";
layers = (
{
layerId = "0B1DFD06-3317-40CA-B510-4969A0718C16";
name = Regular;
paths = (
{
closed = 1;
nodes = (
"295 0 LINE",
"295 26 LINE",
"265 26 LINE SMOOTH",
"227 26 OFFCURVE",
"207 37 OFFCURVE",
"207 62 CURVE SMOOTH",
"207 637 LINE SMOOTH",
"207 662 OFFCURVE",
"227 673 OFFCURVE",
"265 673 CURVE SMOOTH",
"295 673 LINE",
"295 700 LINE",
"22 700 LINE",
"22 673 LINE",
"51 673 LINE SMOOTH",
"90 673 OFFCURVE",
"109 662 OFFCURVE",
"109 637 CURVE SMOOTH",
"109 62 LINE SMOOTH",
"109 37 OFFCURVE",
"90 26 OFFCURVE",
"51 26 CURVE SMOOTH",
"22 26 LINE",
"22 0 LINE"
);
},
{
closed = 1;
nodes = (
"384 -258 OFFCURVE",
"428 -198 OFFCURVE",
"428 -135 CURVE SMOOTH",
"428 -87 OFFCURVE",
"404 -67 OFFCURVE",
"375 -67 CURVE SMOOTH",
"346 -67 OFFCURVE",
"329 -87 OFFCURVE",
"329 -111 CURVE SMOOTH",
"329 -145 OFFCURVE",
"364 -152 OFFCURVE",
"364 -187 CURVE SMOOTH",
"364 -223 OFFCURVE",
"338 -256 OFFCURVE",
"311 -282 CURVE",
"328 -299 LINE"
);
},
{
closed = 1;
nodes = (
"685 0 LINE",
"685 26 LINE",
"656 26 LINE SMOOTH",
"619 26 OFFCURVE",
"595 51 OFFCURVE",
"574 72 CURVE SMOOTH",
"269 384 LINE",
"205 327 LINE",
"525 0 LINE"
);
},
{
closed = 1;
nodes = (
"572 649 LINE SMOOTH",
"586 662 OFFCURVE",
"602 673 OFFCURVE",
"630 673 CURVE SMOOTH",
"650 673 LINE",
"650 700 LINE",
"450 700 LINE",
"450 673 LINE",
"465 673 LINE SMOOTH",
"491 673 OFFCURVE",
"503 666 OFFCURVE",
"503 654 CURVE SMOOTH",
"503 649 OFFCURVE",
"501 645 OFFCURVE",
"496 640 CURVE",
"205 384 LINE",
"205 322 LINE"
);
}
);
width = 701;
}
);
note = Kcommaaccent;
rightKerningGroup = K;
unicode = 0136;
},
{
glyphname = L;
lastChange = "2015-12-01 09:49:14 +0000";
layers = (
{
layerId = "0B1DFD06-3317-40CA-B510-4969A0718C16";
name = Regular;
paths = (
{
closed = 1;
nodes = (
"560 0 LINE",
"577 186 LINE",
"549 186 LINE",
"544 144 OFFCURVE",
"522 40 OFFCURVE",
"459 40 CURVE SMOOTH",
"270 40 LINE SMOOTH",
"232 40 OFFCURVE",
"210 52 OFFCURVE",
"210 81 CURVE SMOOTH",
"210 637 LINE SMOOTH",
"210 662 OFFCURVE",
"229 673 OFFCURVE",
"268 673 CURVE SMOOTH",
"297 673 LINE",
"297 700 LINE",
"24 700 LINE",
"24 673 LINE",
"53 673 LINE SMOOTH",
"92 673 OFFCURVE",
"112 662 OFFCURVE",
"112 637 CURVE SMOOTH",
"112 62 LINE SMOOTH",
"112 37 OFFCURVE",
"92 26 OFFCURVE",
"53 26 CURVE SMOOTH",
"24 26 LINE",
"24 0 LINE"
);
}
);
width = 597;
}
);
note = L;
rightKerningGroup = L;
unicode = 004C;
},
{
glyphname = Lacute;
lastChange = "2015-12-01 09:49:20 +0000";
layers = (
{
layerId = "0B1DFD06-3317-40CA-B510-4969A0718C16";
name = Regular;
paths = (
{
closed = 1;
nodes = (
"560 0 LINE",
"577 186 LINE",
"549 186 LINE",
"544 144 OFFCURVE",
"522 40 OFFCURVE",
"459 40 CURVE SMOOTH",
"270 40 LINE SMOOTH",
"232 40 OFFCURVE",
"210 52 OFFCURVE",
"210 81 CURVE SMOOTH",
"210 637 LINE SMOOTH",
"210 662 OFFCURVE",
"229 673 OFFCURVE",
"268 673 CURVE SMOOTH",
"297 673 LINE",
"297 700 LINE",
"24 700 LINE",
"24 673 LINE",
"53 673 LINE SMOOTH",
"92 673 OFFCURVE",
"112 662 OFFCURVE",
"112 637 CURVE SMOOTH",
"112 62 LINE SMOOTH",
"112 37 OFFCURVE",
"92 26 OFFCURVE",
"53 26 CURVE SMOOTH",
"24 26 LINE",
"24 0 LINE"
);
},
{
closed = 1;
nodes = (
"272 865 LINE SMOOTH",
"294 877 OFFCURVE",
"306 890 OFFCURVE",
"306 907 CURVE SMOOTH",
"306 922 OFFCURVE",
"294 937 OFFCURVE",
"272 937 CURVE SMOOTH",
"251 937 OFFCURVE",
"236 921 OFFCURVE",
"228 914 CURVE SMOOTH",
"113 807 LINE",
"130 782 LINE"
);
}
);
width = 597;
}
);
note = Lacute;
rightKerningGroup = L;
unicode = 0139;
},
{
glyphname = Lcaron;
lastChange = "2015-12-01 09:49:20 +0000";
layers = (
{
layerId = "0B1DFD06-3317-40CA-B510-4969A0718C16";
name = Regular;
paths = (
{
closed = 1;
nodes = (
"560 0 LINE",
"577 186 LINE",
"549 186 LINE",
"544 144 OFFCURVE",
"522 40 OFFCURVE",
"459 40 CURVE SMOOTH",
"270 40 LINE SMOOTH",
"232 40 OFFCURVE",
"210 52 OFFCURVE",
"210 81 CURVE SMOOTH",
"210 637 LINE SMOOTH",
"210 662 OFFCURVE",
"229 673 OFFCURVE",
"268 673 CURVE SMOOTH",
"297 673 LINE",
"297 700 LINE",
"24 700 LINE",
"24 673 LINE",
"53 673 LINE SMOOTH",
"92 673 OFFCURVE",
"112 662 OFFCURVE",
"112 637 CURVE SMOOTH",
"112 62 LINE SMOOTH",
"112 37 OFFCURVE",
"92 26 OFFCURVE",
"53 26 CURVE SMOOTH",
"24 26 LINE",
"24 0 LINE"
);
},
{
closed = 1;
nodes = (
"445 515 OFFCURVE",
"489 577 OFFCURVE",
"489 640 CURVE SMOOTH",
"489 687 OFFCURVE",
"465 706 OFFCURVE",
"437 706 CURVE SMOOTH",
"408 706 OFFCURVE",
"391 687 OFFCURVE",
"391 662 CURVE SMOOTH",
"391 629 OFFCURVE",
"425 622 OFFCURVE",
"425 587 CURVE SMOOTH",
"425 551 OFFCURVE",
"399 518 OFFCURVE",
"373 492 CURVE",
"389 475 LINE"
);
}
);
width = 597;
}
);
note = Lcaron;
rightKerningGroup = L;
unicode = 013D;
},
{
glyphname = Lcommaaccent;
lastChange = "2015-12-01 09:49:20 +0000";
layers = (
{
layerId = "0B1DFD06-3317-40CA-B510-4969A0718C16";
name = Regular;
paths = (
{
closed = 1;
nodes = (
"560 0 LINE",
"577 186 LINE",
"549 186 LINE",
"544 144 OFFCURVE",
"522 40 OFFCURVE",
"459 40 CURVE SMOOTH",
"270 40 LINE SMOOTH",
"232 40 OFFCURVE",
"210 52 OFFCURVE",
"210 81 CURVE SMOOTH",
"210 637 LINE SMOOTH",
"210 662 OFFCURVE",
"229 673 OFFCURVE",
"268 673 CURVE SMOOTH",
"297 673 LINE",
"297 700 LINE",
"24 700 LINE",
"24 673 LINE",
"53 673 LINE SMOOTH",
"92 673 OFFCURVE",
"112 662 OFFCURVE",
"112 637 CURVE SMOOTH",
"112 62 LINE SMOOTH",
"112 37 OFFCURVE",
"92 26 OFFCURVE",
"53 26 CURVE SMOOTH",
"24 26 LINE",
"24 0 LINE"
);
},
{
closed = 1;
nodes = (
"307 -258 OFFCURVE",
"351 -198 OFFCURVE",
"351 -135 CURVE SMOOTH",
"351 -87 OFFCURVE",
"327 -67 OFFCURVE",
"298 -67 CURVE SMOOTH",
"269 -67 OFFCURVE",
"252 -87 OFFCURVE",
"252 -111 CURVE SMOOTH",
"252 -145 OFFCURVE",
"287 -152 OFFCURVE",
"287 -187 CURVE SMOOTH",
"287 -223 OFFCURVE",
"261 -256 OFFCURVE",
"234 -282 CURVE",
"251 -299 LINE"
);
}
);
width = 597;
}
);
note = Lcommaaccent;
rightKerningGroup = L;
unicode = 013B;
},
{
glyphname = Ldot;
lastChange = "2015-12-01 09:49:18 +0000";
layers = (
{
layerId = "0B1DFD06-3317-40CA-B510-4969A0718C16";
name = Regular;
paths = (
{
closed = 1;
nodes = (
"560 0 LINE",
"577 186 LINE",
"549 186 LINE",
"544 144 OFFCURVE",
"522 40 OFFCURVE",
"459 40 CURVE SMOOTH",
"270 40 LINE SMOOTH",
"232 40 OFFCURVE",
"210 52 OFFCURVE",
"210 81 CURVE SMOOTH",
"210 637 LINE SMOOTH",
"210 662 OFFCURVE",
"229 673 OFFCURVE",
"268 673 CURVE SMOOTH",
"297 673 LINE",
"297 700 LINE",
"24 700 LINE",
"24 673 LINE",
"53 673 LINE SMOOTH",
"92 673 OFFCURVE",
"112 662 OFFCURVE",
"112 637 CURVE SMOOTH",
"112 62 LINE SMOOTH",
"112 37 OFFCURVE",
"92 26 OFFCURVE",
"53 26 CURVE SMOOTH",
"24 26 LINE",
"24 0 LINE"
);
},
{
closed = 1;
nodes = (
"414 312 OFFCURVE",
"433 332 OFFCURVE",
"433 360 CURVE SMOOTH",
"433 387 OFFCURVE",
"414 407 OFFCURVE",
"386 407 CURVE SMOOTH",
"358 407 OFFCURVE",
"340 387 OFFCURVE",
"340 360 CURVE SMOOTH",
"340 332 OFFCURVE",
"358 312 OFFCURVE",
"386 312 CURVE SMOOTH"
);
}
);
width = 597;
}
);
note = Ldot;
rightKerningGroup = L;
unicode = 013F;
},
{
glyphname = Ldotbelow;
lastChange = "2015-12-01 09:49:18 +0000";
layers = (
{
layerId = "0B1DFD06-3317-40CA-B510-4969A0718C16";
name = Regular;
paths = (
{
closed = 1;
nodes = (
"560 0 LINE",
"577 186 LINE",
"549 186 LINE",
"544 144 OFFCURVE",
"522 40 OFFCURVE",
"459 40 CURVE SMOOTH",
"270 40 LINE SMOOTH",
"232 40 OFFCURVE",
"210 52 OFFCURVE",
"210 81 CURVE SMOOTH",
"210 637 LINE SMOOTH",
"210 662 OFFCURVE",
"229 673 OFFCURVE",
"268 673 CURVE SMOOTH",
"297 673 LINE",
"297 700 LINE",
"24 700 LINE",
"24 673 LINE",
"53 673 LINE SMOOTH",
"92 673 OFFCURVE",
"112 662 OFFCURVE",
"112 637 CURVE SMOOTH",
"112 62 LINE SMOOTH",
"112 37 OFFCURVE",
"92 26 OFFCURVE",
"53 26 CURVE SMOOTH",
"24 26 LINE",
"24 0 LINE"
);
},
{
closed = 1;
nodes = (
"350 -159 OFFCURVE",
"368 -140 OFFCURVE",
"368 -112 CURVE SMOOTH",
"368 -84 OFFCURVE",
"350 -64 OFFCURVE",
"322 -64 CURVE SMOOTH",
"294 -64 OFFCURVE",
"275 -84 OFFCURVE",
"275 -112 CURVE SMOOTH",
"275 -140 OFFCURVE",
"294 -159 OFFCURVE",
"322 -159 CURVE SMOOTH"
);
}
);
width = 597;
}
);
note = Ldotbelow;
rightKerningGroup = L;
unicode = 1E36;
},
{
glyphname = Ldotbelowmacron;
lastChange = "2015-12-01 09:49:20 +0000";
layers = (
{
layerId = "0B1DFD06-3317-40CA-B510-4969A0718C16";
name = Regular;
paths = (
{
closed = 1;
nodes = (
"560 0 LINE",
"577 186 LINE",
"549 186 LINE",
"544 144 OFFCURVE",
"522 40 OFFCURVE",
"459 40 CURVE SMOOTH",
"270 40 LINE SMOOTH",
"232 40 OFFCURVE",
"210 52 OFFCURVE",
"210 81 CURVE SMOOTH",
"210 637 LINE SMOOTH",
"210 662 OFFCURVE",
"229 673 OFFCURVE",
"268 673 CURVE SMOOTH",
"297 673 LINE",
"297 700 LINE",
"24 700 LINE",
"24 673 LINE",
"53 673 LINE SMOOTH",
"92 673 OFFCURVE",
"112 662 OFFCURVE",
"112 637 CURVE SMOOTH",
"112 62 LINE SMOOTH",
"112 37 OFFCURVE",
"92 26 OFFCURVE",
"53 26 CURVE SMOOTH",
"24 26 LINE",
"24 0 LINE"
);
},
{
closed = 1;
nodes = (
"350 -159 OFFCURVE",
"368 -140 OFFCURVE",
"368 -112 CURVE SMOOTH",
"368 -84 OFFCURVE",
"350 -64 OFFCURVE",
"322 -64 CURVE SMOOTH",
"294 -64 OFFCURVE",
"275 -84 OFFCURVE",
"275 -112 CURVE SMOOTH",
"275 -140 OFFCURVE",
"294 -159 OFFCURVE",
"322 -159 CURVE SMOOTH"
);
},
{
closed = 1;
nodes = (
"382 791 LINE",
"382 833 LINE",
"49 833 LINE",
"49 791 LINE"
);
}
);
width = 597;
}
);
note = Ldotbelowmacron;
rightKerningGroup = L;
unicode = 1E38;
},
{
glyphname = Llinebelow;
lastChange = "2015-12-01 09:49:17 +0000";
layers = (
{
layerId = "0B1DFD06-3317-40CA-B510-4969A0718C16";
name = Regular;
paths = (
{
closed = 1;
nodes = (
"560 0 LINE",
"577 186 LINE",
"549 186 LINE",
"544 144 OFFCURVE",
"522 40 OFFCURVE",
"459 40 CURVE SMOOTH",
"270 40 LINE SMOOTH",
"232 40 OFFCURVE",
"210 52 OFFCURVE",
"210 81 CURVE SMOOTH",
"210 637 LINE SMOOTH",
"210 662 OFFCURVE",
"229 673 OFFCURVE",
"268 673 CURVE SMOOTH",
"297 673 LINE",
"297 700 LINE",
"24 700 LINE",
"24 673 LINE",
"53 673 LINE SMOOTH",
"92 673 OFFCURVE",
"112 662 OFFCURVE",
"112 637 CURVE SMOOTH",
"112 62 LINE SMOOTH",
"112 37 OFFCURVE",
"92 26 OFFCURVE",
"53 26 CURVE SMOOTH",
"24 26 LINE",
"24 0 LINE"
);
},
{
closed = 1;
nodes = (
"463 -110 LINE",
"463 -72 LINE",
"131 -72 LINE",
"131 -110 LINE"
);
}
);
width = 597;
}
);
note = Llinebelow;
rightKerningGroup = L;
unicode = 1E3A;
},
{
glyphname = Lslash;
lastChange = "2015-12-01 09:49:18 +0000";
layers = (
{
layerId = "0B1DFD06-3317-40CA-B510-4969A0718C16";
name = Regular;
paths = (
{
closed = 1;
nodes = (
"560 0 LINE",
"577 186 LINE",
"549 186 LINE",
"544 144 OFFCURVE",
"522 40 OFFCURVE",
"459 40 CURVE SMOOTH",
"270 40 LINE SMOOTH",
"232 40 OFFCURVE",
"210 52 OFFCURVE",
"210 81 CURVE SMOOTH",
"210 637 LINE SMOOTH",
"210 662 OFFCURVE",
"229 673 OFFCURVE",
"268 673 CURVE SMOOTH",
"297 673 LINE",
"297 700 LINE",
"24 700 LINE",
"24 673 LINE",
"53 673 LINE SMOOTH",
"92 673 OFFCURVE",
"112 662 OFFCURVE",
"112 637 CURVE SMOOTH",
"112 62 LINE SMOOTH",
"112 37 OFFCURVE",
"92 26 OFFCURVE",
"53 26 CURVE SMOOTH",
"24 26 LINE",
"24 0 LINE"
);
},
{
closed = 1;
nodes = (
"420 381 LINE",
"420 432 LINE",
"32 292 LINE",
"32 240 LINE"
);
}
);
width = 597;
}
);
note = Lslash;
rightKerningGroup = L;
unicode = 0141;
},
{
glyphname = M;
lastChange = "2015-12-01 09:49:14 +0000";
layers = (
{
layerId = "0B1DFD06-3317-40CA-B510-4969A0718C16";
name = Regular;
paths = (
{
closed = 1;
nodes = (
"247 0 LINE",
"247 26 LINE",
"217 26 LINE SMOOTH",
"179 26 OFFCURVE",
"159 37 OFFCURVE",
"159 62 CURVE SMOOTH",
"159 612 LINE",
"397 76 LINE",
"455 76 LINE",
"696 614 LINE",
"696 62 LINE SMOOTH",
"696 37 OFFCURVE",
"676 26 OFFCURVE",
"637 26 CURVE SMOOTH",
"608 26 LINE",
"608 0 LINE",
"881 0 LINE",
"881 26 LINE",
"852 26 LINE SMOOTH",
"813 26 OFFCURVE",
"794 37 OFFCURVE",
"794 62 CURVE SMOOTH",
"794 637 LINE SMOOTH",
"794 662 OFFCURVE",
"813 673 OFFCURVE",
"852 673 CURVE SMOOTH",
"881 673 LINE",
"881 700 LINE",
"681 700 LINE",
"446 165 LINE",
"213 700 LINE",
"22 700 LINE",
"22 673 LINE",
"51 673 LINE SMOOTH",
"90 673 OFFCURVE",
"109 662 OFFCURVE",
"109 637 CURVE SMOOTH",
"109 62 LINE SMOOTH",
"109 37 OFFCURVE",
"90 26 OFFCURVE",
"51 26 CURVE SMOOTH",
"22 26 LINE",
"22 0 LINE"
);
}
);
width = 903;
}
);
note = M;
unicode = 004D;
},
{
glyphname = Mdotbelow;
lastChange = "2015-12-01 09:49:20 +0000";
layers = (
{
layerId = "0B1DFD06-3317-40CA-B510-4969A0718C16";
name = Regular;
paths = (
{
closed = 1;
nodes = (
"247 0 LINE",
"247 26 LINE",
"217 26 LINE SMOOTH",
"179 26 OFFCURVE",
"159 37 OFFCURVE",
"159 62 CURVE SMOOTH",
"159 612 LINE",
"397 76 LINE",
"455 76 LINE",
"696 614 LINE",
"696 62 LINE SMOOTH",
"696 37 OFFCURVE",
"676 26 OFFCURVE",
"637 26 CURVE SMOOTH",
"608 26 LINE",
"608 0 LINE",
"881 0 LINE",
"881 26 LINE",
"852 26 LINE SMOOTH",
"813 26 OFFCURVE",
"794 37 OFFCURVE",
"794 62 CURVE SMOOTH",
"794 637 LINE SMOOTH",
"794 662 OFFCURVE",
"813 673 OFFCURVE",
"852 673 CURVE SMOOTH",
"881 673 LINE",
"881 700 LINE",
"681 700 LINE",
"446 165 LINE",
"213 700 LINE",
"22 700 LINE",
"22 673 LINE",
"51 673 LINE SMOOTH",
"90 673 OFFCURVE",
"109 662 OFFCURVE",
"109 637 CURVE SMOOTH",
"109 62 LINE SMOOTH",
"109 37 OFFCURVE",
"90 26 OFFCURVE",
"51 26 CURVE SMOOTH",
"22 26 LINE",
"22 0 LINE"
);
},
{
closed = 1;
nodes = (
"479 -159 OFFCURVE",
"497 -140 OFFCURVE",
"497 -112 CURVE SMOOTH",
"497 -84 OFFCURVE",
"479 -64 OFFCURVE",
"451 -64 CURVE SMOOTH",
"423 -64 OFFCURVE",
"404 -84 OFFCURVE",
"404 -112 CURVE SMOOTH",
"404 -140 OFFCURVE",
"423 -159 OFFCURVE",
"451 -159 CURVE SMOOTH"
);
}
);
width = 903;
}
);
note = Mdotbelow;
unicode = 1E42;
},
{
glyphname = N;
lastChange = "2015-12-01 09:49:14 +0000";
layers = (
{
layerId = "0B1DFD06-3317-40CA-B510-4969A0718C16";
name = Regular;
paths = (
{
closed = 1;
nodes = (
"247 0 LINE",
"247 26 LINE",
"217 26 LINE SMOOTH",
"179 26 OFFCURVE",
"159 37 OFFCURVE",
"159 62 CURVE SMOOTH",
"159 642 LINE",
"587 0 LINE",
"645 0 LINE",
"645 637 LINE SMOOTH",
"645 662 OFFCURVE",
"665 673 OFFCURVE",
"703 673 CURVE SMOOTH",
"733 673 LINE",
"733 700 LINE",
"508 700 LINE",
"508 673 LINE",
"537 673 LINE SMOOTH",
"576 673 OFFCURVE",
"595 662 OFFCURVE",
"595 637 CURVE SMOOTH",
"595 126 LINE",
"217 700 LINE",
"22 700 LINE",
"22 673 LINE",
"51 673 LINE SMOOTH",
"90 673 OFFCURVE",
"109 662 OFFCURVE",
"109 637 CURVE SMOOTH",
"109 62 LINE SMOOTH",
"109 37 OFFCURVE",
"90 26 OFFCURVE",
"51 26 CURVE SMOOTH",
"22 26 LINE",
"22 0 LINE"
);
}
);
width = 755;
}
);
note = N;
unicode = 004E;
},
{
glyphname = Nacute;
lastChange = "2015-12-01 09:49:19 +0000";
layers = (
{
layerId = "0B1DFD06-3317-40CA-B510-4969A0718C16";
name = Regular;
paths = (
{
closed = 1;
nodes = (
"247 0 LINE",
"247 26 LINE",
"217 26 LINE SMOOTH",
"179 26 OFFCURVE",
"159 37 OFFCURVE",
"159 62 CURVE SMOOTH",
"159 642 LINE",
"587 0 LINE",
"645 0 LINE",
"645 637 LINE SMOOTH",
"645 662 OFFCURVE",
"665 673 OFFCURVE",
"703 673 CURVE SMOOTH",
"733 673 LINE",
"733 700 LINE",
"508 700 LINE",
"508 673 LINE",
"537 673 LINE SMOOTH",
"576 673 OFFCURVE",
"595 662 OFFCURVE",
"595 637 CURVE SMOOTH",
"595 126 LINE",
"217 700 LINE",
"22 700 LINE",
"22 673 LINE",
"51 673 LINE SMOOTH",
"90 673 OFFCURVE",
"109 662 OFFCURVE",
"109 637 CURVE SMOOTH",
"109 62 LINE SMOOTH",
"109 37 OFFCURVE",
"90 26 OFFCURVE",
"51 26 CURVE SMOOTH",
"22 26 LINE",
"22 0 LINE"
);
},
{
closed = 1;
nodes = (
"458 865 LINE SMOOTH",
"480 877 OFFCURVE",
"492 890 OFFCURVE",
"492 907 CURVE SMOOTH",
"492 922 OFFCURVE",
"480 937 OFFCURVE",
"458 937 CURVE SMOOTH",
"437 937 OFFCURVE",
"422 921 OFFCURVE",
"414 914 CURVE SMOOTH",
"299 807 LINE",
"316 782 LINE"
);
}
);
width = 755;
}
);
note = Nacute;
unicode = 0143;
},
{
glyphname = Ncaron;
lastChange = "2015-12-01 09:49:19 +0000";
layers = (
{
layerId = "0B1DFD06-3317-40CA-B510-4969A0718C16";
name = Regular;
paths = (
{
closed = 1;
nodes = (
"247 0 LINE",
"247 26 LINE",
"217 26 LINE SMOOTH",
"179 26 OFFCURVE",
"159 37 OFFCURVE",
"159 62 CURVE SMOOTH",
"159 642 LINE",
"587 0 LINE",
"645 0 LINE",
"645 637 LINE SMOOTH",
"645 662 OFFCURVE",
"665 673 OFFCURVE",
"703 673 CURVE SMOOTH",
"733 673 LINE",
"733 700 LINE",
"508 700 LINE",
"508 673 LINE",
"537 673 LINE SMOOTH",
"576 673 OFFCURVE",
"595 662 OFFCURVE",
"595 637 CURVE SMOOTH",
"595 126 LINE",
"217 700 LINE",
"22 700 LINE",
"22 673 LINE",
"51 673 LINE SMOOTH",
"90 673 OFFCURVE",
"109 662 OFFCURVE",
"109 637 CURVE SMOOTH",
"109 62 LINE SMOOTH",
"109 37 OFFCURVE",
"90 26 OFFCURVE",
"51 26 CURVE SMOOTH",
"22 26 LINE",
"22 0 LINE"
);
},
{
closed = 1;
nodes = (
"403 782 LINE",
"527 911 LINE",
"508 932 LINE",
"400 847 LINE",
"392 840 OFFCURVE",
"383 836 OFFCURVE",
"377 836 CURVE SMOOTH",
"371 836 OFFCURVE",
"363 840 OFFCURVE",
"353 847 CURVE",
"245 932 LINE",
"226 911 LINE",
"350 782 LINE"
);
}
);
width = 755;
}
);
note = Ncaron;
unicode = 0147;
},
{
glyphname = Ncommaaccent;
lastChange = "2015-12-01 09:49:20 +0000";
layers = (
{
layerId = "0B1DFD06-3317-40CA-B510-4969A0718C16";
name = Regular;
paths = (
{
closed = 1;
nodes = (
"247 0 LINE",
"247 26 LINE",
"217 26 LINE SMOOTH",
"179 26 OFFCURVE",
"159 37 OFFCURVE",
"159 62 CURVE SMOOTH",
"159 642 LINE",
"587 0 LINE",
"645 0 LINE",
"645 637 LINE SMOOTH",
"645 662 OFFCURVE",
"665 673 OFFCURVE",
"703 673 CURVE SMOOTH",
"733 673 LINE",
"733 700 LINE",
"508 700 LINE",
"508 673 LINE",
"537 673 LINE SMOOTH",
"576 673 OFFCURVE",
"595 662 OFFCURVE",
"595 637 CURVE SMOOTH",
"595 126 LINE",
"217 700 LINE",
"22 700 LINE",
"22 673 LINE",
"51 673 LINE SMOOTH",
"90 673 OFFCURVE",
"109 662 OFFCURVE",
"109 637 CURVE SMOOTH",
"109 62 LINE SMOOTH",
"109 37 OFFCURVE",
"90 26 OFFCURVE",
"51 26 CURVE SMOOTH",
"22 26 LINE",
"22 0 LINE"
);
},
{
closed = 1;
nodes = (
"369 -258 OFFCURVE",
"413 -198 OFFCURVE",
"413 -135 CURVE SMOOTH",
"413 -87 OFFCURVE",
"389 -67 OFFCURVE",
"360 -67 CURVE SMOOTH",
"331 -67 OFFCURVE",
"314 -87 OFFCURVE",
"314 -111 CURVE SMOOTH",
"314 -145 OFFCURVE",
"349 -152 OFFCURVE",
"349 -187 CURVE SMOOTH",
"349 -223 OFFCURVE",
"323 -256 OFFCURVE",
"296 -282 CURVE",
"313 -299 LINE"
);
}
);
width = 755;
}
);
note = Ncommaaccent;
unicode = 0145;
},
{
glyphname = Ndotaccent;
lastChange = "2015-12-01 09:49:18 +0000";
layers = (
{
layerId = "0B1DFD06-3317-40CA-B510-4969A0718C16";
name = Regular;
paths = (
{
closed = 1;
nodes = (
"247 0 LINE",
"247 26 LINE",
"217 26 LINE SMOOTH",
"179 26 OFFCURVE",
"159 37 OFFCURVE",
"159 62 CURVE SMOOTH",
"159 642 LINE",
"587 0 LINE",
"645 0 LINE",
"645 637 LINE SMOOTH",
"645 662 OFFCURVE",
"665 673 OFFCURVE",
"703 673 CURVE SMOOTH",
"733 673 LINE",
"733 700 LINE",
"508 700 LINE",
"508 673 LINE",
"537 673 LINE SMOOTH",
"576 673 OFFCURVE",
"595 662 OFFCURVE",
"595 637 CURVE SMOOTH",
"595 126 LINE",
"217 700 LINE",
"22 700 LINE",
"22 673 LINE",
"51 673 LINE SMOOTH",
"90 673 OFFCURVE",
"109 662 OFFCURVE",
"109 637 CURVE SMOOTH",
"109 62 LINE SMOOTH",
"109 37 OFFCURVE",
"90 26 OFFCURVE",
"51 26 CURVE SMOOTH",
"22 26 LINE",
"22 0 LINE"
);
},
{
closed = 1;
nodes = (
"405 765 OFFCURVE",
"423 784 OFFCURVE",
"423 811 CURVE SMOOTH",
"423 839 OFFCURVE",
"405 858 OFFCURVE",
"377 858 CURVE SMOOTH",
"348 858 OFFCURVE",
"330 839 OFFCURVE",
"330 811 CURVE SMOOTH",
"330 784 OFFCURVE",
"348 765 OFFCURVE",
"377 765 CURVE SMOOTH"
);
}
);
width = 755;
}
);
note = Ndotaccent;
unicode = 1E44;
},
{
glyphname = Ndotbelow;
lastChange = "2015-12-01 09:52:37 +0000";
layers = (
{
layerId = "0B1DFD06-3317-40CA-B510-4969A0718C16";
name = Regular;
paths = (
{
closed = 1;
nodes = (
"247 0 LINE",
"247 26 LINE",
"217 26 LINE SMOOTH",
"179 26 OFFCURVE",
"159 37 OFFCURVE",
"159 62 CURVE SMOOTH",
"159 642 LINE",
"587 0 LINE",
"645 0 LINE",
"645 637 LINE SMOOTH",
"645 662 OFFCURVE",
"665 673 OFFCURVE",
"703 673 CURVE SMOOTH",
"733 673 LINE",
"733 700 LINE",
"508 700 LINE",
"508 673 LINE",
"537 673 LINE SMOOTH",
"576 673 OFFCURVE",
"595 662 OFFCURVE",
"595 637 CURVE SMOOTH",
"595 126 LINE",
"217 700 LINE",
"22 700 LINE",
"22 673 LINE",
"51 673 LINE SMOOTH",
"90 673 OFFCURVE",
"109 662 OFFCURVE",
"109 637 CURVE SMOOTH",
"109 62 LINE SMOOTH",
"109 37 OFFCURVE",
"90 26 OFFCURVE",
"51 26 CURVE SMOOTH",
"22 26 LINE",
"22 0 LINE"
);
},
{
closed = 1;
nodes = (
"415 -159 OFFCURVE",
"433 -140 OFFCURVE",
"433 -112 CURVE SMOOTH",
"433 -84 OFFCURVE",
"415 -64 OFFCURVE",
"387 -64 CURVE SMOOTH",
"359 -64 OFFCURVE",
"340 -84 OFFCURVE",
"340 -112 CURVE SMOOTH",
"340 -140 OFFCURVE",
"359 -159 OFFCURVE",
"387 -159 CURVE SMOOTH"
);
}
);
width = 755;
}
);
note = uni1E46;
unicode = 1E46;
},
{
glyphname = Eng;
lastChange = "2015-12-01 09:49:14 +0000";
layers = (
{
layerId = "0B1DFD06-3317-40CA-B510-4969A0718C16";
name = Regular;
paths = (
{
closed = 1;
nodes = (
"592 -259 OFFCURVE",
"645 -182 OFFCURVE",
"645 -36 CURVE SMOOTH",
"645 637 LINE SMOOTH",
"645 662 OFFCURVE",
"665 673 OFFCURVE",
"703 673 CURVE SMOOTH",
"733 673 LINE",
"733 700 LINE",
"508 700 LINE",
"508 673 LINE",
"537 673 LINE SMOOTH",
"576 673 OFFCURVE",
"595 662 OFFCURVE",
"595 637 CURVE SMOOTH",
"595 125 LINE",
"219 700 LINE",
"22 700 LINE",
"22 673 LINE",
"51 673 LINE SMOOTH",
"90 673 OFFCURVE",
"109 662 OFFCURVE",
"109 637 CURVE SMOOTH",
"109 62 LINE SMOOTH",
"109 37 OFFCURVE",
"93 26 OFFCURVE",
"51 26 CURVE SMOOTH",
"22 26 LINE",
"22 0 LINE",
"247 0 LINE",
"247 26 LINE",
"217 26 LINE SMOOTH",
"179 26 OFFCURVE",
"159 37 OFFCURVE",
"159 62 CURVE SMOOTH",
"159 647 LINE",
"586 0 LINE",
"586 -76 LINE SMOOTH",
"586 -173 OFFCURVE",
"510 -238 OFFCURVE",
"423 -243 CURVE",
"427 -268 LINE"
);
}
);
width = 755;
}
);
note = Eng;
unicode = 014A;
},
{
glyphname = Nlinebelow;
lastChange = "2015-12-01 09:49:18 +0000";
layers = (
{
layerId = "0B1DFD06-3317-40CA-B510-4969A0718C16";
name = Regular;
paths = (
{
closed = 1;
nodes = (
"247 0 LINE",
"247 26 LINE",
"217 26 LINE SMOOTH",
"179 26 OFFCURVE",
"159 37 OFFCURVE",
"159 62 CURVE SMOOTH",
"159 642 LINE",
"587 0 LINE",
"645 0 LINE",
"645 637 LINE SMOOTH",
"645 662 OFFCURVE",
"665 673 OFFCURVE",
"703 673 CURVE SMOOTH",
"733 673 LINE",
"733 700 LINE",
"508 700 LINE",
"508 673 LINE",
"537 673 LINE SMOOTH",
"576 673 OFFCURVE",
"595 662 OFFCURVE",
"595 637 CURVE SMOOTH",
"595 126 LINE",
"217 700 LINE",
"22 700 LINE",
"22 673 LINE",
"51 673 LINE SMOOTH",
"90 673 OFFCURVE",
"109 662 OFFCURVE",
"109 637 CURVE SMOOTH",
"109 62 LINE SMOOTH",
"109 37 OFFCURVE",
"90 26 OFFCURVE",
"51 26 CURVE SMOOTH",
"22 26 LINE",
"22 0 LINE"
);
},
{
closed = 1;
nodes = (
"542 -110 LINE",
"542 -72 LINE",
"210 -72 LINE",
"210 -110 LINE"
);
}
);
width = 755;
}
);
note = Nlinebelow;
unicode = 1E48;
},
{
glyphname = Ntilde;
lastChange = "2015-12-01 09:49:19 +0000";
layers = (
{
layerId = "0B1DFD06-3317-40CA-B510-4969A0718C16";
name = Regular;
paths = (
{
closed = 1;
nodes = (
"247 0 LINE",
"247 26 LINE",
"217 26 LINE SMOOTH",
"179 26 OFFCURVE",
"159 37 OFFCURVE",
"159 62 CURVE SMOOTH",
"159 642 LINE",
"587 0 LINE",
"645 0 LINE",
"645 637 LINE SMOOTH",
"645 662 OFFCURVE",
"665 673 OFFCURVE",
"703 673 CURVE SMOOTH",
"733 673 LINE",
"733 700 LINE",
"508 700 LINE",
"508 673 LINE",
"537 673 LINE SMOOTH",
"576 673 OFFCURVE",
"595 662 OFFCURVE",
"595 637 CURVE SMOOTH",
"595 126 LINE",
"217 700 LINE",
"22 700 LINE",
"22 673 LINE",
"51 673 LINE SMOOTH",
"90 673 OFFCURVE",
"109 662 OFFCURVE",
"109 637 CURVE SMOOTH",
"109 62 LINE SMOOTH",
"109 37 OFFCURVE",
"90 26 OFFCURVE",
"51 26 CURVE SMOOTH",
"22 26 LINE",
"22 0 LINE"
);
},
{
closed = 1;
nodes = (
"254 818 OFFCURVE",
"272 839 OFFCURVE",
"305 839 CURVE SMOOTH",
"356 839 OFFCURVE",
"405 785 OFFCURVE",
"456 785 CURVE SMOOTH",
"514 785 OFFCURVE",
"544 833 OFFCURVE",
"556 885 CURVE",
"535 896 LINE",
"519 856 OFFCURVE",
"503 834 OFFCURVE",
"469 834 CURVE SMOOTH",
"420 834 OFFCURVE",
"368 887 OFFCURVE",
"317 887 CURVE SMOOTH",
"263 887 OFFCURVE",
"230 843 OFFCURVE",
"218 791 CURVE",
"240 780 LINE"
);
}
);
width = 755;
}
);
note = Ntilde;
unicode = 00D1;
},
{
glyphname = O;
lastChange = "2015-12-01 09:49:19 +0000";
layers = (
{
layerId = "0B1DFD06-3317-40CA-B510-4969A0718C16";
name = Regular;
paths = (
{
closed = 1;
nodes = (
"601 -10 OFFCURVE",
"719 124 OFFCURVE",
"719 350 CURVE SMOOTH",
"719 574 OFFCURVE",
"601 710 OFFCURVE",
"378 710 CURVE SMOOTH",
"154 710 OFFCURVE",
"36 574 OFFCURVE",
"36 350 CURVE SMOOTH",
"36 124 OFFCURVE",
"154 -10 OFFCURVE",
"378 -10 CURVE SMOOTH"
);
},
{
closed = 1;
nodes = (
"215 32 OFFCURVE",
"135 158 OFFCURVE",
"135 350 CURVE SMOOTH",
"135 541 OFFCURVE",
"215 668 OFFCURVE",
"377 668 CURVE SMOOTH",
"541 668 OFFCURVE",
"620 541 OFFCURVE",
"620 350 CURVE SMOOTH",
"620 158 OFFCURVE",
"541 32 OFFCURVE",
"377 32 CURVE SMOOTH"
);
}
);
width = 755;
}
);
leftKerningGroup = O;
note = O;
rightKerningGroup = O;
unicode = 004F;
},
{
glyphname = Oacute;
lastChange = "2015-12-01 09:49:18 +0000";
layers = (
{
layerId = "0B1DFD06-3317-40CA-B510-4969A0718C16";
name = Regular;
paths = (
{
closed = 1;
nodes = (
"601 -10 OFFCURVE",
"719 124 OFFCURVE",
"719 350 CURVE SMOOTH",
"719 574 OFFCURVE",
"601 710 OFFCURVE",
"378 710 CURVE SMOOTH",
"154 710 OFFCURVE",
"36 574 OFFCURVE",
"36 350 CURVE SMOOTH",
"36 124 OFFCURVE",
"154 -10 OFFCURVE",
"378 -10 CURVE SMOOTH"
);
},
{
closed = 1;
nodes = (
"215 32 OFFCURVE",
"135 158 OFFCURVE",
"135 350 CURVE SMOOTH",
"135 541 OFFCURVE",
"215 668 OFFCURVE",
"377 668 CURVE SMOOTH",
"541 668 OFFCURVE",
"620 541 OFFCURVE",
"620 350 CURVE SMOOTH",
"620 158 OFFCURVE",
"541 32 OFFCURVE",
"377 32 CURVE SMOOTH"
);
},
{
closed = 1;
nodes = (
"440 865 LINE SMOOTH",
"462 877 OFFCURVE",
"474 890 OFFCURVE",
"474 907 CURVE SMOOTH",
"474 922 OFFCURVE",
"462 937 OFFCURVE",
"440 937 CURVE SMOOTH",
"419 937 OFFCURVE",
"404 921 OFFCURVE",
"396 914 CURVE SMOOTH",
"281 807 LINE",
"298 782 LINE"
);
}
);
width = 755;
}
);
leftKerningGroup = O;
note = Oacute;
rightKerningGroup = O;
unicode = 00D3;
},
{
glyphname = Obreve;
lastChange = "2015-12-01 09:49:19 +0000";
layers = (
{
layerId = "0B1DFD06-3317-40CA-B510-4969A0718C16";
name = Regular;
paths = (
{
closed = 1;
nodes = (
"601 -10 OFFCURVE",
"719 124 OFFCURVE",
"719 350 CURVE SMOOTH",
"719 574 OFFCURVE",
"601 710 OFFCURVE",
"378 710 CURVE SMOOTH",
"154 710 OFFCURVE",
"36 574 OFFCURVE",
"36 350 CURVE SMOOTH",
"36 124 OFFCURVE",
"154 -10 OFFCURVE",
"378 -10 CURVE SMOOTH"
);
},
{
closed = 1;
nodes = (
"215 32 OFFCURVE",
"135 158 OFFCURVE",
"135 350 CURVE SMOOTH",
"135 541 OFFCURVE",
"215 668 OFFCURVE",
"377 668 CURVE SMOOTH",
"541 668 OFFCURVE",
"620 541 OFFCURVE",
"620 350 CURVE SMOOTH",
"620 158 OFFCURVE",
"541 32 OFFCURVE",
"377 32 CURVE SMOOTH"
);
},
{
closed = 1;
nodes = (
"477 774 OFFCURVE",
"519 830 OFFCURVE",
"523 905 CURVE",
"490 905 LINE",
"484 846 OFFCURVE",
"442 820 OFFCURVE",
"378 820 CURVE SMOOTH",
"314 820 OFFCURVE",
"271 846 OFFCURVE",
"264 905 CURVE",
"231 905 LINE",
"235 827 OFFCURVE",
"277 774 OFFCURVE",
"378 774 CURVE SMOOTH"
);
}
);
width = 755;
}
);
leftKerningGroup = O;
note = Obreve;
rightKerningGroup = O;
unicode = 014E;
},
{
glyphname = Ocaron;
lastChange = "2015-12-01 09:49:18 +0000";
layers = (
{
layerId = "0B1DFD06-3317-40CA-B510-4969A0718C16";
name = Regular;
paths = (
{
closed = 1;
nodes = (
"601 -10 OFFCURVE",
"719 124 OFFCURVE",
"719 350 CURVE SMOOTH",
"719 574 OFFCURVE",
"601 710 OFFCURVE",
"378 710 CURVE SMOOTH",
"154 710 OFFCURVE",
"36 574 OFFCURVE",
"36 350 CURVE SMOOTH",
"36 124 OFFCURVE",
"154 -10 OFFCURVE",
"378 -10 CURVE SMOOTH"
);
},
{
closed = 1;
nodes = (
"215 32 OFFCURVE",
"135 158 OFFCURVE",
"135 350 CURVE SMOOTH",
"135 541 OFFCURVE",
"215 668 OFFCURVE",
"377 668 CURVE SMOOTH",
"541 668 OFFCURVE",
"620 541 OFFCURVE",
"620 350 CURVE SMOOTH",
"620 158 OFFCURVE",
"541 32 OFFCURVE",
"377 32 CURVE SMOOTH"
);
},
{
closed = 1;
nodes = (
"404 782 LINE",
"528 911 LINE",
"509 932 LINE",
"401 847 LINE",
"393 840 OFFCURVE",
"384 836 OFFCURVE",
"378 836 CURVE SMOOTH",
"372 836 OFFCURVE",
"364 840 OFFCURVE",
"354 847 CURVE",
"246 932 LINE",
"227 911 LINE",
"351 782 LINE"
);
}
);
width = 755;
}
);
leftKerningGroup = O;
note = Ocaron;
rightKerningGroup = O;
unicode = 01D1;
},
{
glyphname = Ocircumflex;
lastChange = "2015-12-01 09:49:19 +0000";
layers = (
{
layerId = "0B1DFD06-3317-40CA-B510-4969A0718C16";
name = Regular;
paths = (
{
closed = 1;
nodes = (
"601 -10 OFFCURVE",
"719 124 OFFCURVE",
"719 350 CURVE SMOOTH",
"719 574 OFFCURVE",
"601 710 OFFCURVE",
"378 710 CURVE SMOOTH",
"154 710 OFFCURVE",
"36 574 OFFCURVE",
"36 350 CURVE SMOOTH",
"36 124 OFFCURVE",
"154 -10 OFFCURVE",
"378 -10 CURVE SMOOTH"
);
},
{
closed = 1;
nodes = (
"215 32 OFFCURVE",
"135 158 OFFCURVE",
"135 350 CURVE SMOOTH",
"135 541 OFFCURVE",
"215 668 OFFCURVE",
"377 668 CURVE SMOOTH",
"541 668 OFFCURVE",
"620 541 OFFCURVE",
"620 350 CURVE SMOOTH",
"620 158 OFFCURVE",
"541 32 OFFCURVE",
"377 32 CURVE SMOOTH"
);
},
{
closed = 1;
nodes = (
"354 868 LINE SMOOTH",
"362 874 OFFCURVE",
"372 879 OFFCURVE",
"378 879 CURVE SMOOTH",
"384 879 OFFCURVE",
"392 874 OFFCURVE",
"401 868 CURVE",
"509 782 LINE",
"528 803 LINE",
"404 932 LINE",
"351 932 LINE",
"227 803 LINE",
"246 782 LINE"
);
}
);
width = 755;
}
);
leftKerningGroup = O;
note = Ocircumflex;
rightKerningGroup = O;
unicode = 00D4;
},
{
glyphname = Ocircumflexacute;
lastChange = "2015-12-01 09:49:18 +0000";
layers = (
{
layerId = "0B1DFD06-3317-40CA-B510-4969A0718C16";
name = Regular;
paths = (
{
closed = 1;
nodes = (
"601 -10 OFFCURVE",
"719 124 OFFCURVE",
"719 350 CURVE SMOOTH",
"719 574 OFFCURVE",
"601 710 OFFCURVE",
"378 710 CURVE SMOOTH",
"154 710 OFFCURVE",
"36 574 OFFCURVE",
"36 350 CURVE SMOOTH",
"36 124 OFFCURVE",
"154 -10 OFFCURVE",
"378 -10 CURVE SMOOTH"
);
},
{
closed = 1;
nodes = (
"215 32 OFFCURVE",
"135 158 OFFCURVE",
"135 350 CURVE SMOOTH",
"135 541 OFFCURVE",
"215 668 OFFCURVE",
"377 668 CURVE SMOOTH",
"541 668 OFFCURVE",
"620 541 OFFCURVE",
"620 350 CURVE SMOOTH",
"620 158 OFFCURVE",
"541 32 OFFCURVE",
"377 32 CURVE SMOOTH"
);
},
{
closed = 1;
nodes = (
"348 861 LINE SMOOTH",
"358 869 OFFCURVE",
"368 877 OFFCURVE",
"376 877 CURVE SMOOTH",
"382 877 OFFCURVE",
"390 872 OFFCURVE",
"399 866 CURVE",
"505 780 LINE",
"524 802 LINE",
"402 931 LINE",
"351 931 LINE",
"229 802 LINE",
"247 780 LINE"
);
},
{
closed = 1;
nodes = (
"613 959 LINE SMOOTH",
"636 971 OFFCURVE",
"649 987 OFFCURVE",
"649 1002 CURVE SMOOTH",
"649 1016 OFFCURVE",
"638 1033 OFFCURVE",
"615 1033 CURVE SMOOTH",
"596 1033 OFFCURVE",
"579 1017 OFFCURVE",
"569 1007 CURVE SMOOTH",
"473 914 LINE",
"491 892 LINE"
);
}
);
width = 755;
}
);
leftKerningGroup = O;
note = Ocircumflexacute;
rightKerningGroup = O;
unicode = 1ED0;
},
{
glyphname = Ocircumflexdotbelow;
lastChange = "2015-12-01 09:52:44 +0000";
layers = (
{
layerId = "0B1DFD06-3317-40CA-B510-4969A0718C16";
name = Regular;
paths = (
{
closed = 1;
nodes = (
"36 124 OFFCURVE",
"154 -10 OFFCURVE",
"378 -10 CURVE SMOOTH",
"601 -10 OFFCURVE",
"719 124 OFFCURVE",
"719 350 CURVE SMOOTH",
"719 574 OFFCURVE",
"601 710 OFFCURVE",
"378 710 CURVE SMOOTH",
"154 710 OFFCURVE",
"36 574 OFFCURVE",
"36 350 CURVE SMOOTH"
);
},
{
closed = 1;
nodes = (
"135 541 OFFCURVE",
"215 668 OFFCURVE",
"377 668 CURVE SMOOTH",
"541 668 OFFCURVE",
"620 541 OFFCURVE",
"620 350 CURVE SMOOTH",
"620 158 OFFCURVE",
"541 32 OFFCURVE",
"377 32 CURVE SMOOTH",
"215 32 OFFCURVE",
"135 158 OFFCURVE",
"135 350 CURVE SMOOTH"
);
},
{
closed = 1;
nodes = (
"245 782 LINE",
"353 868 LINE SMOOTH",
"361 874 OFFCURVE",
"371 879 OFFCURVE",
"377 879 CURVE SMOOTH",
"383 879 OFFCURVE",
"391 874 OFFCURVE",
"400 868 CURVE",
"508 782 LINE",
"527 803 LINE",
"403 932 LINE",
"350 932 LINE",
"226 803 LINE"
);
},
{
closed = 1;
nodes = (
"330 -140 OFFCURVE",
"349 -159 OFFCURVE",
"377 -159 CURVE SMOOTH",
"405 -159 OFFCURVE",
"423 -140 OFFCURVE",
"423 -112 CURVE SMOOTH",
"423 -84 OFFCURVE",
"405 -64 OFFCURVE",
"377 -64 CURVE SMOOTH",
"349 -64 OFFCURVE",
"330 -84 OFFCURVE",
"330 -112 CURVE SMOOTH"
);
}
);
width = 755;
}
);
leftKerningGroup = O;
note = Ocircumflexdotbelow;
rightKerningGroup = O;
unicode = 1ED8;
},
{
glyphname = Ocircumflexgrave;
lastChange = "2015-12-01 09:49:19 +0000";
layers = (
{
layerId = "0B1DFD06-3317-40CA-B510-4969A0718C16";
name = Regular;
paths = (
{
closed = 1;
nodes = (
"601 -10 OFFCURVE",
"719 124 OFFCURVE",
"719 350 CURVE SMOOTH",
"719 574 OFFCURVE",
"601 710 OFFCURVE",
"378 710 CURVE SMOOTH",
"154 710 OFFCURVE",
"36 574 OFFCURVE",
"36 350 CURVE SMOOTH",
"36 124 OFFCURVE",
"154 -10 OFFCURVE",
"378 -10 CURVE SMOOTH"
);
},
{
closed = 1;
nodes = (
"215 32 OFFCURVE",
"135 158 OFFCURVE",
"135 350 CURVE SMOOTH",
"135 541 OFFCURVE",
"215 668 OFFCURVE",
"377 668 CURVE SMOOTH",
"541 668 OFFCURVE",
"620 541 OFFCURVE",
"620 350 CURVE SMOOTH",
"620 158 OFFCURVE",
"541 32 OFFCURVE",
"377 32 CURVE SMOOTH"
);
},
{
closed = 1;
nodes = (
"285 914 LINE",
"190 1007 LINE SMOOTH",
"180 1017 OFFCURVE",
"163 1033 OFFCURVE",
"143 1033 CURVE SMOOTH",
"121 1033 OFFCURVE",
"110 1016 OFFCURVE",
"110 1002 CURVE SMOOTH",
"110 987 OFFCURVE",
"123 971 OFFCURVE",
"146 959 CURVE SMOOTH",
"268 892 LINE"
);
},
{
closed = 1;
nodes = (
"348 861 LINE SMOOTH",
"358 869 OFFCURVE",
"368 877 OFFCURVE",
"376 877 CURVE SMOOTH",
"382 877 OFFCURVE",
"390 872 OFFCURVE",
"399 866 CURVE",
"505 780 LINE",
"524 802 LINE",
"402 931 LINE",
"351 931 LINE",
"229 802 LINE",
"247 780 LINE"
);
}
);
width = 755;
}
);
leftKerningGroup = O;
note = Ocircumflexgrave;
rightKerningGroup = O;
unicode = 1ED2;
},
{
glyphname = Ocircumflexhookabove;
lastChange = "2015-12-01 09:49:19 +0000";
layers = (
{
layerId = "0B1DFD06-3317-40CA-B510-4969A0718C16";
name = Regular;
paths = (
{
closed = 1;
nodes = (
"601 -10 OFFCURVE",
"719 124 OFFCURVE",
"719 350 CURVE SMOOTH",
"719 574 OFFCURVE",
"601 710 OFFCURVE",
"378 710 CURVE SMOOTH",
"154 710 OFFCURVE",
"36 574 OFFCURVE",
"36 350 CURVE SMOOTH",
"36 124 OFFCURVE",
"154 -10 OFFCURVE",
"378 -10 CURVE SMOOTH"
);
},
{
closed = 1;
nodes = (
"215 32 OFFCURVE",
"135 158 OFFCURVE",
"135 350 CURVE SMOOTH",
"135 541 OFFCURVE",
"215 668 OFFCURVE",
"377 668 CURVE SMOOTH",
"541 668 OFFCURVE",
"620 541 OFFCURVE",
"620 350 CURVE SMOOTH",
"620 158 OFFCURVE",
"541 32 OFFCURVE",
"377 32 CURVE SMOOTH"
);
},
{
closed = 1;
nodes = (
"344 858 LINE",
"355 868 OFFCURVE",
"367 878 OFFCURVE",
"376 878 CURVE SMOOTH",
"382 878 OFFCURVE",
"390 873 OFFCURVE",
"399 867 CURVE",
"505 781 LINE",
"524 803 LINE",
"402 932 LINE",
"351 932 LINE",
"229 803 LINE",
"247 781 LINE"
);
},
{
closed = 1;
nodes = (
"551 898 LINE",
"532 905 OFFCURVE",
"522 912 OFFCURVE",
"522 926 CURVE SMOOTH",
"522 954 OFFCURVE",
"602 965 OFFCURVE",
"602 1010 CURVE SMOOTH",
"602 1047 OFFCURVE",
"560 1063 OFFCURVE",
"518 1063 CURVE SMOOTH",
"487 1063 OFFCURVE",
"442 1053 OFFCURVE",
"442 1022 CURVE SMOOTH",
"442 1010 OFFCURVE",
"453 1001 OFFCURVE",
"463 1001 CURVE SMOOTH",
"492 1001 OFFCURVE",
"479 1040 OFFCURVE",
"522 1040 CURVE SMOOTH",
"541 1040 OFFCURVE",
"552 1028 OFFCURVE",
"552 1013 CURVE SMOOTH",
"552 973 OFFCURVE",
"479 965 OFFCURVE",
"479 925 CURVE SMOOTH",
"479 901 OFFCURVE",
"495 880 OFFCURVE",
"542 880 CURVE"
);
}
);
width = 755;
}
);
leftKerningGroup = O;
note = Ocircumflexhookabove;
rightKerningGroup = O;
unicode = 1ED4;
},
{
glyphname = Ocircumflextilde;
lastChange = "2015-12-01 09:49:18 +0000";
layers = (
{
layerId = "0B1DFD06-3317-40CA-B510-4969A0718C16";
name = Regular;
paths = (
{
closed = 1;
nodes = (
"601 -10 OFFCURVE",
"719 124 OFFCURVE",
"719 350 CURVE SMOOTH",
"719 574 OFFCURVE",
"601 710 OFFCURVE",
"378 710 CURVE SMOOTH",
"154 710 OFFCURVE",
"36 574 OFFCURVE",
"36 350 CURVE SMOOTH",
"36 124 OFFCURVE",
"154 -10 OFFCURVE",
"378 -10 CURVE SMOOTH"
);
},
{
closed = 1;
nodes = (
"215 32 OFFCURVE",
"135 158 OFFCURVE",
"135 350 CURVE SMOOTH",
"135 541 OFFCURVE",
"215 668 OFFCURVE",
"377 668 CURVE SMOOTH",
"541 668 OFFCURVE",
"620 541 OFFCURVE",
"620 350 CURVE SMOOTH",
"620 158 OFFCURVE",
"541 32 OFFCURVE",
"377 32 CURVE SMOOTH"
);
},
{
closed = 1;
nodes = (
"348 862 LINE SMOOTH",
"358 870 OFFCURVE",
"368 878 OFFCURVE",
"376 878 CURVE SMOOTH",
"382 878 OFFCURVE",
"390 873 OFFCURVE",
"399 867 CURVE",
"505 781 LINE",
"524 803 LINE",
"402 932 LINE",
"351 932 LINE",
"229 803 LINE",
"247 781 LINE"
);
},
{
closed = 1;
nodes = (
"251 997 OFFCURVE",
"269 1018 OFFCURVE",
"300 1018 CURVE SMOOTH",
"349 1018 OFFCURVE",
"396 964 OFFCURVE",
"445 964 CURVE SMOOTH",
"498 964 OFFCURVE",
"527 1012 OFFCURVE",
"539 1063 CURVE",
"518 1075 LINE",
"505 1035 OFFCURVE",
"489 1012 OFFCURVE",
"456 1012 CURVE SMOOTH",
"409 1012 OFFCURVE",
"360 1065 OFFCURVE",
"311 1065 CURVE SMOOTH",
"260 1065 OFFCURVE",
"228 1021 OFFCURVE",
"218 970 CURVE",
"238 958 LINE"
);
}
);
width = 755;
}
);
leftKerningGroup = O;
note = Ocircumflextilde;
rightKerningGroup = O;
unicode = 1ED6;
},
{
glyphname = Odieresis;
lastChange = "2015-12-01 09:49:17 +0000";
layers = (
{
layerId = "0B1DFD06-3317-40CA-B510-4969A0718C16";
name = Regular;
paths = (
{
closed = 1;
nodes = (
"601 -10 OFFCURVE",
"719 124 OFFCURVE",
"719 350 CURVE SMOOTH",
"719 574 OFFCURVE",
"601 710 OFFCURVE",
"378 710 CURVE SMOOTH",
"154 710 OFFCURVE",
"36 574 OFFCURVE",
"36 350 CURVE SMOOTH",
"36 124 OFFCURVE",
"154 -10 OFFCURVE",
"378 -10 CURVE SMOOTH"
);
},
{
closed = 1;
nodes = (
"215 32 OFFCURVE",
"135 158 OFFCURVE",
"135 350 CURVE SMOOTH",
"135 541 OFFCURVE",
"215 668 OFFCURVE",
"377 668 CURVE SMOOTH",
"541 668 OFFCURVE",
"620 541 OFFCURVE",
"620 350 CURVE SMOOTH",
"620 158 OFFCURVE",
"541 32 OFFCURVE",
"377 32 CURVE SMOOTH"
);
},
{
closed = 1;
nodes = (
"298 781 OFFCURVE",
"316 800 OFFCURVE",
"316 827 CURVE SMOOTH",
"316 855 OFFCURVE",
"298 875 OFFCURVE",
"269 875 CURVE SMOOTH",
"241 875 OFFCURVE",
"223 855 OFFCURVE",
"223 827 CURVE SMOOTH",
"223 800 OFFCURVE",
"241 781 OFFCURVE",
"269 781 CURVE SMOOTH"
);
},
{
closed = 1;
nodes = (
"514 781 OFFCURVE",
"532 800 OFFCURVE",
"532 827 CURVE SMOOTH",
"532 855 OFFCURVE",
"514 875 OFFCURVE",
"485 875 CURVE SMOOTH",
"456 875 OFFCURVE",
"438 855 OFFCURVE",
"438 827 CURVE SMOOTH",
"438 800 OFFCURVE",
"456 781 OFFCURVE",
"485 781 CURVE SMOOTH"
);
}
);
width = 755;
}
);
leftKerningGroup = O;
note = Odieresis;
rightKerningGroup = O;
unicode = 00D6;
},
{
glyphname = Odotbelow;
lastChange = "2015-12-01 09:52:48 +0000";
layers = (
{
layerId = "0B1DFD06-3317-40CA-B510-4969A0718C16";
name = Regular;
paths = (
{
closed = 1;
nodes = (
"36 124 OFFCURVE",
"154 -10 OFFCURVE",
"378 -10 CURVE SMOOTH",
"601 -10 OFFCURVE",
"719 124 OFFCURVE",
"719 350 CURVE SMOOTH",
"719 574 OFFCURVE",
"601 710 OFFCURVE",
"378 710 CURVE SMOOTH",
"154 710 OFFCURVE",
"36 574 OFFCURVE",
"36 350 CURVE SMOOTH"
);
},
{
closed = 1;
nodes = (
"135 541 OFFCURVE",
"215 668 OFFCURVE",
"377 668 CURVE SMOOTH",
"541 668 OFFCURVE",
"620 541 OFFCURVE",
"620 350 CURVE SMOOTH",
"620 158 OFFCURVE",
"541 32 OFFCURVE",
"377 32 CURVE SMOOTH",
"215 32 OFFCURVE",
"135 158 OFFCURVE",
"135 350 CURVE SMOOTH"
);
},
{
closed = 1;
nodes = (
"330 -140 OFFCURVE",
"349 -159 OFFCURVE",
"377 -159 CURVE SMOOTH",
"405 -159 OFFCURVE",
"423 -140 OFFCURVE",
"423 -112 CURVE SMOOTH",
"423 -84 OFFCURVE",
"405 -64 OFFCURVE",
"377 -64 CURVE SMOOTH",
"349 -64 OFFCURVE",
"330 -84 OFFCURVE",
"330 -112 CURVE SMOOTH"
);
}
);
width = 755;
}
);
leftKerningGroup = O;
note = Odotbelow;
rightKerningGroup = O;
unicode = 1ECC;
},
{
glyphname = Ograve;
lastChange = "2015-12-01 09:49:20 +0000";
layers = (
{
layerId = "0B1DFD06-3317-40CA-B510-4969A0718C16";
name = Regular;
paths = (
{
closed = 1;
nodes = (
"601 -10 OFFCURVE",
"719 124 OFFCURVE",
"719 350 CURVE SMOOTH",
"719 574 OFFCURVE",
"601 710 OFFCURVE",
"378 710 CURVE SMOOTH",
"154 710 OFFCURVE",
"36 574 OFFCURVE",
"36 350 CURVE SMOOTH",
"36 124 OFFCURVE",
"154 -10 OFFCURVE",
"378 -10 CURVE SMOOTH"
);
},
{
closed = 1;
nodes = (
"215 32 OFFCURVE",
"135 158 OFFCURVE",
"135 350 CURVE SMOOTH",
"135 541 OFFCURVE",
"215 668 OFFCURVE",
"377 668 CURVE SMOOTH",
"541 668 OFFCURVE",
"620 541 OFFCURVE",
"620 350 CURVE SMOOTH",
"620 158 OFFCURVE",
"541 32 OFFCURVE",
"377 32 CURVE SMOOTH"
);
},
{
closed = 1;
nodes = (
"459 807 LINE",
"344 913 LINE",
"335 922 OFFCURVE",
"319 937 OFFCURVE",
"299 937 CURVE SMOOTH",
"279 937 OFFCURVE",
"267 924 OFFCURVE",
"267 908 CURVE SMOOTH",
"267 890 OFFCURVE",
"279 876 OFFCURVE",
"298 865 CURVE SMOOTH",
"441 782 LINE"
);
}
);
width = 755;
}
);
leftKerningGroup = O;
note = Ograve;
rightKerningGroup = O;
unicode = 00D2;
},
{
glyphname = Ohookabove;
lastChange = "2015-12-01 09:49:18 +0000";
layers = (
{
layerId = "0B1DFD06-3317-40CA-B510-4969A0718C16";
name = Regular;
paths = (
{
closed = 1;
nodes = (
"601 -10 OFFCURVE",
"719 124 OFFCURVE",
"719 350 CURVE SMOOTH",
"719 574 OFFCURVE",
"601 710 OFFCURVE",
"378 710 CURVE SMOOTH",
"154 710 OFFCURVE",
"36 574 OFFCURVE",
"36 350 CURVE SMOOTH",
"36 124 OFFCURVE",
"154 -10 OFFCURVE",
"378 -10 CURVE SMOOTH"
);
},
{
closed = 1;
nodes = (
"215 32 OFFCURVE",
"135 158 OFFCURVE",
"135 350 CURVE SMOOTH",
"135 541 OFFCURVE",
"215 668 OFFCURVE",
"377 668 CURVE SMOOTH",
"541 668 OFFCURVE",
"620 541 OFFCURVE",
"620 350 CURVE SMOOTH",
"620 158 OFFCURVE",
"541 32 OFFCURVE",
"377 32 CURVE SMOOTH"
);
},
{
closed = 1;
nodes = (
"407 798 LINE",
"388 805 OFFCURVE",
"376 811 OFFCURVE",
"376 828 CURVE SMOOTH",
"376 861 OFFCURVE",
"465 876 OFFCURVE",
"465 927 CURVE SMOOTH",
"465 969 OFFCURVE",
"429 991 OFFCURVE",
"376 991 CURVE SMOOTH",
"329 991 OFFCURVE",
"288 974 OFFCURVE",
"288 940 CURVE SMOOTH",
"288 923 OFFCURVE",
"296 915 OFFCURVE",
"311 915 CURVE SMOOTH",
"334 915 OFFCURVE",
"336 934 OFFCURVE",
"339 942 CURVE SMOOTH",
"344 956 OFFCURVE",
"361 962 OFFCURVE",
"377 962 CURVE SMOOTH",
"398 962 OFFCURVE",
"411 947 OFFCURVE",
"411 930 CURVE SMOOTH",
"411 885 OFFCURVE",
"329 874 OFFCURVE",
"329 828 CURVE SMOOTH",
"329 801 OFFCURVE",
"347 778 OFFCURVE",
"398 778 CURVE"
);
}
);
width = 755;
}
);
leftKerningGroup = O;
note = Ohookabove;
rightKerningGroup = O;
unicode = 1ECE;
},
{
glyphname = Ohorn;
lastChange = "2015-12-01 09:52:58 +0000";
layers = (
{
layerId = "0B1DFD06-3317-40CA-B510-4969A0718C16";
name = Regular;
paths = (
{
closed = 1;
nodes = (
"602 -10 OFFCURVE",
"720 124 OFFCURVE",
"720 350 CURVE SMOOTH",
"720 574 OFFCURVE",
"602 710 OFFCURVE",
"379 710 CURVE SMOOTH",
"155 710 OFFCURVE",
"37 574 OFFCURVE",
"37 350 CURVE SMOOTH",
"37 124 OFFCURVE",
"155 -10 OFFCURVE",
"379 -10 CURVE SMOOTH"
);
},
{
closed = 1;
nodes = (
"216 32 OFFCURVE",
"136 158 OFFCURVE",
"136 350 CURVE SMOOTH",
"136 541 OFFCURVE",
"216 668 OFFCURVE",
"378 668 CURVE SMOOTH",
"542 668 OFFCURVE",
"621 541 OFFCURVE",
"621 350 CURVE SMOOTH",
"621 158 OFFCURVE",
"542 32 OFFCURVE",
"378 32 CURVE SMOOTH"
);
},
{
closed = 1;
nodes = (
"691 567 OFFCURVE",
"756 632 OFFCURVE",
"756 705 CURVE SMOOTH",
"756 752 OFFCURVE",
"729 772 OFFCURVE",
"701 772 CURVE SMOOTH",
"672 772 OFFCURVE",
"656 752 OFFCURVE",
"656 729 CURVE SMOOTH",
"656 695 OFFCURVE",
"689 688 OFFCURVE",
"689 653 CURVE SMOOTH",
"689 617 OFFCURVE",
"658 588 OFFCURVE",
"623 568 CURVE",
"623 543 LINE"
);
}
);
width = 763;
}
);
leftKerningGroup = O;
note = Ohorn;
rightKerningGroup = O;
unicode = 01A0;
},
{
glyphname = Ohornacute;
lastChange = "2015-12-01 09:49:18 +0000";
layers = (
{
layerId = "0B1DFD06-3317-40CA-B510-4969A0718C16";
name = Regular;
paths = (
{
closed = 1;
nodes = (
"602 -10 OFFCURVE",
"720 124 OFFCURVE",
"720 350 CURVE SMOOTH",
"720 574 OFFCURVE",
"602 710 OFFCURVE",
"379 710 CURVE SMOOTH",
"155 710 OFFCURVE",
"37 574 OFFCURVE",
"37 350 CURVE SMOOTH",
"37 124 OFFCURVE",
"155 -10 OFFCURVE",
"379 -10 CURVE SMOOTH"
);
},
{
closed = 1;
nodes = (
"216 32 OFFCURVE",
"136 158 OFFCURVE",
"136 350 CURVE SMOOTH",
"136 541 OFFCURVE",
"216 668 OFFCURVE",
"378 668 CURVE SMOOTH",
"542 668 OFFCURVE",
"621 541 OFFCURVE",
"621 350 CURVE SMOOTH",
"621 158 OFFCURVE",
"542 32 OFFCURVE",
"378 32 CURVE SMOOTH"
);
},
{
closed = 1;
nodes = (
"424 864 LINE SMOOTH",
"446 876 OFFCURVE",
"458 889 OFFCURVE",
"458 906 CURVE SMOOTH",
"458 921 OFFCURVE",
"446 936 OFFCURVE",
"424 936 CURVE SMOOTH",
"403 936 OFFCURVE",
"388 920 OFFCURVE",
"380 913 CURVE SMOOTH",
"265 806 LINE",
"282 781 LINE"
);
},
{
closed = 1;
nodes = (
"691 567 OFFCURVE",
"756 632 OFFCURVE",
"756 705 CURVE SMOOTH",
"756 752 OFFCURVE",
"729 772 OFFCURVE",
"701 772 CURVE SMOOTH",
"672 772 OFFCURVE",
"656 752 OFFCURVE",
"656 729 CURVE SMOOTH",
"656 695 OFFCURVE",
"689 688 OFFCURVE",
"689 653 CURVE SMOOTH",
"689 617 OFFCURVE",
"658 588 OFFCURVE",
"623 568 CURVE",
"623 543 LINE"
);
}
);
width = 763;
}
);
leftKerningGroup = O;
note = Ohornacute;
rightKerningGroup = O;
unicode = 1EDA;
},
{
glyphname = Ohorndotbelow;
lastChange = "2015-12-01 09:53:02 +0000";
layers = (
{
layerId = "0B1DFD06-3317-40CA-B510-4969A0718C16";
name = Regular;
paths = (
{
closed = 1;
nodes = (
"602 -10 OFFCURVE",
"720 124 OFFCURVE",
"720 350 CURVE SMOOTH",
"720 574 OFFCURVE",
"602 710 OFFCURVE",
"379 710 CURVE SMOOTH",
"155 710 OFFCURVE",
"37 574 OFFCURVE",
"37 350 CURVE SMOOTH",
"37 124 OFFCURVE",
"155 -10 OFFCURVE",
"379 -10 CURVE SMOOTH"
);
},
{
closed = 1;
nodes = (
"216 32 OFFCURVE",
"136 158 OFFCURVE",
"136 350 CURVE SMOOTH",
"136 541 OFFCURVE",
"216 668 OFFCURVE",
"378 668 CURVE SMOOTH",
"542 668 OFFCURVE",
"621 541 OFFCURVE",
"621 350 CURVE SMOOTH",
"621 158 OFFCURVE",
"542 32 OFFCURVE",
"378 32 CURVE SMOOTH"
);
},
{
closed = 1;
nodes = (
"691 567 OFFCURVE",
"756 632 OFFCURVE",
"756 705 CURVE SMOOTH",
"756 752 OFFCURVE",
"729 772 OFFCURVE",
"701 772 CURVE SMOOTH",
"672 772 OFFCURVE",
"656 752 OFFCURVE",
"656 729 CURVE SMOOTH",
"656 695 OFFCURVE",
"689 688 OFFCURVE",
"689 653 CURVE SMOOTH",
"689 617 OFFCURVE",
"658 588 OFFCURVE",
"623 568 CURVE",
"623 543 LINE"
);
},
{
closed = 1;
nodes = (
"395 -159 OFFCURVE",
"413 -140 OFFCURVE",
"413 -112 CURVE SMOOTH",
"413 -84 OFFCURVE",
"395 -64 OFFCURVE",
"367 -64 CURVE SMOOTH",
"339 -64 OFFCURVE",
"320 -84 OFFCURVE",
"320 -112 CURVE SMOOTH",
"320 -140 OFFCURVE",
"339 -159 OFFCURVE",
"367 -159 CURVE SMOOTH"
);
}
);
width = 763;
}
);
leftKerningGroup = O;
note = Ohorndotbelow;
rightKerningGroup = O;
unicode = 1EE2;
},
{
glyphname = Ohorngrave;
lastChange = "2015-12-01 09:49:18 +0000";
layers = (
{
layerId = "0B1DFD06-3317-40CA-B510-4969A0718C16";
name = Regular;
paths = (
{
closed = 1;
nodes = (
"602 -10 OFFCURVE",
"720 124 OFFCURVE",
"720 350 CURVE SMOOTH",
"720 574 OFFCURVE",
"602 710 OFFCURVE",
"379 710 CURVE SMOOTH",
"155 710 OFFCURVE",
"37 574 OFFCURVE",
"37 350 CURVE SMOOTH",
"37 124 OFFCURVE",
"155 -10 OFFCURVE",
"379 -10 CURVE SMOOTH"
);
},
{
closed = 1;
nodes = (
"216 32 OFFCURVE",
"136 158 OFFCURVE",
"136 350 CURVE SMOOTH",
"136 541 OFFCURVE",
"216 668 OFFCURVE",
"378 668 CURVE SMOOTH",
"542 668 OFFCURVE",
"621 541 OFFCURVE",
"621 350 CURVE SMOOTH",
"621 158 OFFCURVE",
"542 32 OFFCURVE",
"378 32 CURVE SMOOTH"
);
},
{
closed = 1;
nodes = (
"464 816 LINE",
"349 922 LINE",
"340 931 OFFCURVE",
"324 946 OFFCURVE",
"304 946 CURVE SMOOTH",
"284 946 OFFCURVE",
"272 933 OFFCURVE",
"272 917 CURVE SMOOTH",
"272 899 OFFCURVE",
"284 885 OFFCURVE",
"303 874 CURVE SMOOTH",
"446 791 LINE"
);
},
{
closed = 1;
nodes = (
"691 567 OFFCURVE",
"756 632 OFFCURVE",
"756 705 CURVE SMOOTH",
"756 752 OFFCURVE",
"729 772 OFFCURVE",
"701 772 CURVE SMOOTH",
"672 772 OFFCURVE",
"656 752 OFFCURVE",
"656 729 CURVE SMOOTH",
"656 695 OFFCURVE",
"689 688 OFFCURVE",
"689 653 CURVE SMOOTH",
"689 617 OFFCURVE",
"658 588 OFFCURVE",
"623 568 CURVE",
"623 543 LINE"
);
}
);
width = 763;
}
);
leftKerningGroup = O;
note = Ohorngrave;
rightKerningGroup = O;
unicode = 1EDC;
},
{
glyphname = Ohornhookabove;
lastChange = "2015-12-01 09:49:20 +0000";
layers = (
{
layerId = "0B1DFD06-3317-40CA-B510-4969A0718C16";
name = Regular;
paths = (
{
closed = 1;
nodes = (
"602 -10 OFFCURVE",
"720 124 OFFCURVE",
"720 350 CURVE SMOOTH",
"720 574 OFFCURVE",
"602 710 OFFCURVE",
"379 710 CURVE SMOOTH",
"155 710 OFFCURVE",
"37 574 OFFCURVE",
"37 350 CURVE SMOOTH",
"37 124 OFFCURVE",
"155 -10 OFFCURVE",
"379 -10 CURVE SMOOTH"
);
},
{
closed = 1;
nodes = (
"216 32 OFFCURVE",
"136 158 OFFCURVE",
"136 350 CURVE SMOOTH",
"136 541 OFFCURVE",
"216 668 OFFCURVE",
"378 668 CURVE SMOOTH",
"542 668 OFFCURVE",
"621 541 OFFCURVE",
"621 350 CURVE SMOOTH",
"621 158 OFFCURVE",
"542 32 OFFCURVE",
"378 32 CURVE SMOOTH"
);
},
{
closed = 1;
nodes = (
"412 809 LINE",
"393 816 OFFCURVE",
"381 822 OFFCURVE",
"381 839 CURVE SMOOTH",
"381 872 OFFCURVE",
"470 887 OFFCURVE",
"470 938 CURVE SMOOTH",
"470 980 OFFCURVE",
"434 1002 OFFCURVE",
"381 1002 CURVE SMOOTH",
"334 1002 OFFCURVE",
"293 985 OFFCURVE",
"293 951 CURVE SMOOTH",
"293 934 OFFCURVE",
"301 926 OFFCURVE",
"316 926 CURVE SMOOTH",
"339 926 OFFCURVE",
"341 945 OFFCURVE",
"344 953 CURVE SMOOTH",
"349 967 OFFCURVE",
"366 973 OFFCURVE",
"382 973 CURVE SMOOTH",
"403 973 OFFCURVE",
"416 958 OFFCURVE",
"416 941 CURVE SMOOTH",
"416 896 OFFCURVE",
"334 885 OFFCURVE",
"334 839 CURVE SMOOTH",
"334 812 OFFCURVE",
"352 789 OFFCURVE",
"403 789 CURVE"
);
},
{
closed = 1;
nodes = (
"691 567 OFFCURVE",
"756 632 OFFCURVE",
"756 705 CURVE SMOOTH",
"756 752 OFFCURVE",
"729 772 OFFCURVE",
"701 772 CURVE SMOOTH",
"672 772 OFFCURVE",
"656 752 OFFCURVE",
"656 729 CURVE SMOOTH",
"656 695 OFFCURVE",
"689 688 OFFCURVE",
"689 653 CURVE SMOOTH",
"689 617 OFFCURVE",
"658 588 OFFCURVE",
"623 568 CURVE",
"623 543 LINE"
);
}
);
width = 763;
}
);
leftKerningGroup = O;
note = Ohornhookabove;
rightKerningGroup = O;
unicode = 1EDE;
},
{
glyphname = Ohorntilde;
lastChange = "2015-12-01 09:49:18 +0000";
layers = (
{
layerId = "0B1DFD06-3317-40CA-B510-4969A0718C16";
name = Regular;
paths = (
{
closed = 1;
nodes = (
"602 -10 OFFCURVE",
"720 124 OFFCURVE",
"720 350 CURVE SMOOTH",
"720 574 OFFCURVE",
"602 710 OFFCURVE",
"379 710 CURVE SMOOTH",
"155 710 OFFCURVE",
"37 574 OFFCURVE",
"37 350 CURVE SMOOTH",
"37 124 OFFCURVE",
"155 -10 OFFCURVE",
"379 -10 CURVE SMOOTH"
);
},
{
closed = 1;
nodes = (
"216 32 OFFCURVE",
"136 158 OFFCURVE",
"136 350 CURVE SMOOTH",
"136 541 OFFCURVE",
"216 668 OFFCURVE",
"378 668 CURVE SMOOTH",
"542 668 OFFCURVE",
"621 541 OFFCURVE",
"621 350 CURVE SMOOTH",
"621 158 OFFCURVE",
"542 32 OFFCURVE",
"378 32 CURVE SMOOTH"
);
},
{
closed = 1;
nodes = (
"234 828 OFFCURVE",
"252 849 OFFCURVE",
"285 849 CURVE SMOOTH",
"336 849 OFFCURVE",
"385 795 OFFCURVE",
"436 795 CURVE SMOOTH",
"494 795 OFFCURVE",
"524 843 OFFCURVE",
"536 895 CURVE",
"515 906 LINE",
"499 866 OFFCURVE",
"483 844 OFFCURVE",
"449 844 CURVE SMOOTH",
"400 844 OFFCURVE",
"348 897 OFFCURVE",
"297 897 CURVE SMOOTH",
"243 897 OFFCURVE",
"210 853 OFFCURVE",
"198 801 CURVE",
"220 790 LINE"
);
},
{
closed = 1;
nodes = (
"691 567 OFFCURVE",
"756 632 OFFCURVE",
"756 705 CURVE SMOOTH",
"756 752 OFFCURVE",
"729 772 OFFCURVE",
"701 772 CURVE SMOOTH",
"672 772 OFFCURVE",
"656 752 OFFCURVE",
"656 729 CURVE SMOOTH",
"656 695 OFFCURVE",
"689 688 OFFCURVE",
"689 653 CURVE SMOOTH",
"689 617 OFFCURVE",
"658 588 OFFCURVE",
"623 568 CURVE",
"623 543 LINE"
);
}
);
width = 763;
}
);
leftKerningGroup = O;
note = Ohorntilde;
rightKerningGroup = O;
unicode = 1EE0;
},
{
glyphname = Ohungarumlaut;
lastChange = "2015-12-01 09:49:18 +0000";
layers = (
{
layerId = "0B1DFD06-3317-40CA-B510-4969A0718C16";
name = Regular;
paths = (
{
closed = 1;
nodes = (
"601 -10 OFFCURVE",
"719 124 OFFCURVE",
"719 350 CURVE SMOOTH",
"719 574 OFFCURVE",
"601 710 OFFCURVE",
"378 710 CURVE SMOOTH",
"154 710 OFFCURVE",
"36 574 OFFCURVE",
"36 350 CURVE SMOOTH",
"36 124 OFFCURVE",
"154 -10 OFFCURVE",
"378 -10 CURVE SMOOTH"
);
},
{
closed = 1;
nodes = (
"215 32 OFFCURVE",
"135 158 OFFCURVE",
"135 350 CURVE SMOOTH",
"135 541 OFFCURVE",
"215 668 OFFCURVE",
"377 668 CURVE SMOOTH",
"541 668 OFFCURVE",
"620 541 OFFCURVE",
"620 350 CURVE SMOOTH",
"620 158 OFFCURVE",
"541 32 OFFCURVE",
"377 32 CURVE SMOOTH"
);
},
{
closed = 1;
nodes = (
"395 864 LINE SMOOTH",
"417 877 OFFCURVE",
"429 891 OFFCURVE",
"429 908 CURVE SMOOTH",
"429 922 OFFCURVE",
"421 937 OFFCURVE",
"399 937 CURVE SMOOTH",
"378 937 OFFCURVE",
"357 919 OFFCURVE",
"350 913 CURVE",
"236 807 LINE",
"253 782 LINE"
);
},
{
closed = 1;
nodes = (
"556 864 LINE SMOOTH",
"577 877 OFFCURVE",
"589 891 OFFCURVE",
"589 908 CURVE SMOOTH",
"589 922 OFFCURVE",
"578 937 OFFCURVE",
"556 937 CURVE SMOOTH",
"534 937 OFFCURVE",
"517 919 OFFCURVE",
"510 913 CURVE",
"396 807 LINE",
"414 782 LINE"
);
}
);
width = 755;
}
);
leftKerningGroup = O;
note = Ohungarumlaut;
rightKerningGroup = O;
unicode = 0150;
},
{
glyphname = Omacron;
lastChange = "2015-12-01 09:49:19 +0000";
layers = (
{
layerId = "0B1DFD06-3317-40CA-B510-4969A0718C16";
name = Regular;
paths = (
{
closed = 1;
nodes = (
"601 -10 OFFCURVE",
"719 124 OFFCURVE",
"719 350 CURVE SMOOTH",
"719 574 OFFCURVE",
"601 710 OFFCURVE",
"378 710 CURVE SMOOTH",
"154 710 OFFCURVE",
"36 574 OFFCURVE",
"36 350 CURVE SMOOTH",
"36 124 OFFCURVE",
"154 -10 OFFCURVE",
"378 -10 CURVE SMOOTH"
);
},
{
closed = 1;
nodes = (
"215 32 OFFCURVE",
"135 158 OFFCURVE",
"135 350 CURVE SMOOTH",
"135 541 OFFCURVE",
"215 668 OFFCURVE",
"377 668 CURVE SMOOTH",
"541 668 OFFCURVE",
"620 541 OFFCURVE",
"620 350 CURVE SMOOTH",
"620 158 OFFCURVE",
"541 32 OFFCURVE",
"377 32 CURVE SMOOTH"
);
},
{
closed = 1;
nodes = (
"543 793 LINE",
"543 835 LINE",
"210 835 LINE",
"210 793 LINE"
);
}
);
width = 755;
}
);
leftKerningGroup = O;
note = Omacron;
rightKerningGroup = O;
unicode = 014C;
},
{
glyphname = Oslash;
lastChange = "2015-12-01 09:53:07 +0000";
layers = (
{
layerId = "0B1DFD06-3317-40CA-B510-4969A0718C16";
name = Regular;
paths = (
{
closed = 1;
nodes = (
"601 -10 OFFCURVE",
"719 124 OFFCURVE",
"719 350 CURVE SMOOTH",
"719 574 OFFCURVE",
"601 710 OFFCURVE",
"378 710 CURVE SMOOTH",
"154 710 OFFCURVE",
"36 574 OFFCURVE",
"36 350 CURVE SMOOTH",
"36 124 OFFCURVE",
"154 -10 OFFCURVE",
"378 -10 CURVE SMOOTH"
);
},
{
closed = 1;
nodes = (
"215 32 OFFCURVE",
"135 158 OFFCURVE",
"135 350 CURVE SMOOTH",
"135 541 OFFCURVE",
"215 668 OFFCURVE",
"377 668 CURVE SMOOTH",
"541 668 OFFCURVE",
"620 541 OFFCURVE",
"620 350 CURVE SMOOTH",
"620 158 OFFCURVE",
"541 32 OFFCURVE",
"377 32 CURVE SMOOTH"
);
},
{
closed = 1;
nodes = (
"671 699 LINE",
"632 725 LINE",
"59 4 LINE",
"97 -22 LINE"
);
}
);
width = 755;
}
);
leftKerningGroup = O;
note = Oslash;
rightKerningGroup = O;
unicode = 00D8;
},
{
glyphname = Oslashacute;
lastChange = "2015-12-01 09:53:09 +0000";
layers = (
{
layerId = "0B1DFD06-3317-40CA-B510-4969A0718C16";
name = Regular;
paths = (
{
closed = 1;
nodes = (
"601 -10 OFFCURVE",
"719 124 OFFCURVE",
"719 350 CURVE SMOOTH",
"719 574 OFFCURVE",
"601 710 OFFCURVE",
"378 710 CURVE SMOOTH",
"154 710 OFFCURVE",
"36 574 OFFCURVE",
"36 350 CURVE SMOOTH",
"36 124 OFFCURVE",
"154 -10 OFFCURVE",
"378 -10 CURVE SMOOTH"
);
},
{
closed = 1;
nodes = (
"215 32 OFFCURVE",
"135 158 OFFCURVE",
"135 350 CURVE SMOOTH",
"135 541 OFFCURVE",
"215 668 OFFCURVE",
"377 668 CURVE SMOOTH",
"541 668 OFFCURVE",
"620 541 OFFCURVE",
"620 350 CURVE SMOOTH",
"620 158 OFFCURVE",
"541 32 OFFCURVE",
"377 32 CURVE SMOOTH"
);
},
{
closed = 1;
nodes = (
"445 865 LINE SMOOTH",
"467 877 OFFCURVE",
"479 890 OFFCURVE",
"479 907 CURVE SMOOTH",
"479 922 OFFCURVE",
"467 937 OFFCURVE",
"445 937 CURVE SMOOTH",
"424 937 OFFCURVE",
"409 921 OFFCURVE",
"401 914 CURVE SMOOTH",
"286 807 LINE",
"303 782 LINE"
);
},
{
closed = 1;
nodes = (
"671 699 LINE",
"632 725 LINE",
"59 4 LINE",
"97 -22 LINE"
);
}
);
width = 755;
}
);
leftKerningGroup = O;
note = Oslashacute;
rightKerningGroup = O;
unicode = 01FE;
},
{
glyphname = Otilde;
lastChange = "2015-12-01 09:49:18 +0000";
layers = (
{
layerId = "0B1DFD06-3317-40CA-B510-4969A0718C16";
name = Regular;
paths = (
{
closed = 1;
nodes = (
"601 -10 OFFCURVE",
"719 124 OFFCURVE",
"719 350 CURVE SMOOTH",
"719 574 OFFCURVE",
"601 710 OFFCURVE",
"378 710 CURVE SMOOTH",
"154 710 OFFCURVE",
"36 574 OFFCURVE",
"36 350 CURVE SMOOTH",
"36 124 OFFCURVE",
"154 -10 OFFCURVE",
"378 -10 CURVE SMOOTH"
);
},
{
closed = 1;
nodes = (
"215 32 OFFCURVE",
"135 158 OFFCURVE",
"135 350 CURVE SMOOTH",
"135 541 OFFCURVE",
"215 668 OFFCURVE",
"377 668 CURVE SMOOTH",
"541 668 OFFCURVE",
"620 541 OFFCURVE",
"620 350 CURVE SMOOTH",
"620 158 OFFCURVE",
"541 32 OFFCURVE",
"377 32 CURVE SMOOTH"
);
},
{
closed = 1;
nodes = (
"241 818 OFFCURVE",
"259 839 OFFCURVE",
"292 839 CURVE SMOOTH",
"343 839 OFFCURVE",
"392 785 OFFCURVE",
"443 785 CURVE SMOOTH",
"501 785 OFFCURVE",
"531 833 OFFCURVE",
"543 885 CURVE",
"522 896 LINE",
"506 856 OFFCURVE",
"490 834 OFFCURVE",
"456 834 CURVE SMOOTH",
"407 834 OFFCURVE",
"355 887 OFFCURVE",
"304 887 CURVE SMOOTH",
"250 887 OFFCURVE",
"217 843 OFFCURVE",
"205 791 CURVE",
"227 780 LINE"
);
}
);
width = 755;
}
);
leftKerningGroup = O;
note = Otilde;
rightKerningGroup = O;
unicode = 00D5;
},
{
glyphname = OE;
lastChange = "2015-12-01 09:49:18 +0000";
layers = (
{
layerId = "0B1DFD06-3317-40CA-B510-4969A0718C16";
name = Regular;
paths = (
{
closed = 1;
nodes = (
"478 -10 OFFCURVE",
"558 32 OFFCURVE",
"608 99 CURVE",
"574 142 LINE",
"534 71 OFFCURVE",
"469 31 OFFCURVE",
"380 31 CURVE SMOOTH",
"217 31 OFFCURVE",
"135 158 OFFCURVE",
"135 350 CURVE SMOOTH",
"135 541 OFFCURVE",
"217 668 OFFCURVE",
"380 668 CURVE SMOOTH",
"468 668 OFFCURVE",
"534 628 OFFCURVE",
"573 558 CURVE",
"605 603 LINE",
"555 669 OFFCURVE",
"477 710 OFFCURVE",
"371 710 CURVE SMOOTH",
"157 710 OFFCURVE",
"36 574 OFFCURVE",
"36 350 CURVE SMOOTH",
"36 124 OFFCURVE",
"157 -10 OFFCURVE",
"371 -10 CURVE SMOOTH"
);
},
{
closed = 1;
nodes = (
"991 0 LINE",
"1008 179 LINE",
"982 179 LINE",
"975 124 OFFCURVE",
"956 40 OFFCURVE",
"892 40 CURVE SMOOTH",
"656 40 LINE",
"656 659 LINE",
"878 659 LINE SMOOTH",
"953 659 OFFCURVE",
"962 567 OFFCURVE",
"965 527 CURVE",
"991 527 LINE",
"991 700 LINE",
"558 700 LINE",
"558 0 LINE"
);
},
{
closed = 1;
nodes = (
"905 251 LINE",
"905 485 LINE",
"882 485 LINE",
"878 436 OFFCURVE",
"874 388 OFFCURVE",
"830 388 CURVE SMOOTH",
"632 388 LINE",
"632 348 LINE",
"830 348 LINE SMOOTH",
"874 348 OFFCURVE",
"878 300 OFFCURVE",
"882 251 CURVE"
);
}
);
width = 1044;
}
);
note = OE;
unicode = 0152;
},
{
glyphname = P;
lastChange = "2015-12-01 09:49:18 +0000";
layers = (
{
layerId = "0B1DFD06-3317-40CA-B510-4969A0718C16";
name = Regular;
paths = (
{
closed = 1;
nodes = (
"295 0 LINE",
"295 26 LINE",
"265 26 LINE SMOOTH",
"227 26 OFFCURVE",
"207 37 OFFCURVE",
"207 62 CURVE SMOOTH",
"207 274 LINE",
"364 274 LINE SMOOTH",
"525 274 OFFCURVE",
"580 363 OFFCURVE",
"580 487 CURVE SMOOTH",
"580 612 OFFCURVE",
"525 700 OFFCURVE",
"364 700 CURVE SMOOTH",
"22 700 LINE",
"22 673 LINE",
"51 673 LINE SMOOTH",
"90 673 OFFCURVE",
"109 662 OFFCURVE",
"109 637 CURVE SMOOTH",
"109 62 LINE SMOOTH",
"109 37 OFFCURVE",
"90 26 OFFCURVE",
"51 26 CURVE SMOOTH",
"22 26 LINE",
"22 0 LINE"
);
},
{
closed = 1;
nodes = (
"207 659 LINE",
"346 659 LINE SMOOTH",
"445 659 OFFCURVE",
"484 592 OFFCURVE",
"484 487 CURVE SMOOTH",
"484 383 OFFCURVE",
"445 314 OFFCURVE",
"346 314 CURVE SMOOTH",
"207 314 LINE"
);
}
);
width = 599;
}
);
note = P;
unicode = 0050;
},
{
glyphname = Thorn;
lastChange = "2015-12-01 09:49:18 +0000";
layers = (
{
layerId = "0B1DFD06-3317-40CA-B510-4969A0718C16";
name = Regular;
paths = (
{
closed = 1;
nodes = (
"295 0 LINE",
"295 26 LINE",
"265 26 LINE SMOOTH",
"227 26 OFFCURVE",
"207 37 OFFCURVE",
"207 62 CURVE SMOOTH",
"207 162 LINE",
"364 162 LINE SMOOTH",
"525 162 OFFCURVE",
"580 251 OFFCURVE",
"580 375 CURVE SMOOTH",
"580 501 OFFCURVE",
"525 588 OFFCURVE",
"364 588 CURVE SMOOTH",
"207 588 LINE",
"207 700 LINE",
"22 700 LINE",
"22 673 LINE",
"51 673 LINE SMOOTH",
"90 673 OFFCURVE",
"109 662 OFFCURVE",
"109 637 CURVE SMOOTH",
"109 62 LINE SMOOTH",
"109 37 OFFCURVE",
"90 26 OFFCURVE",
"51 26 CURVE SMOOTH",
"22 26 LINE",
"22 0 LINE"
);
},
{
closed = 1;
nodes = (
"207 548 LINE",
"346 548 LINE SMOOTH",
"445 548 OFFCURVE",
"484 480 OFFCURVE",
"484 375 CURVE SMOOTH",
"484 271 OFFCURVE",
"445 203 OFFCURVE",
"346 203 CURVE SMOOTH",
"207 203 LINE"
);
}
);
width = 599;
}
);
note = Thorn;
unicode = 00DE;
},
{
glyphname = Q;
lastChange = "2015-12-01 09:53:15 +0000";
layers = (
{
layerId = "0B1DFD06-3317-40CA-B510-4969A0718C16";
name = Regular;
paths = (
{
closed = 1;
nodes = (
"601 -10 OFFCURVE",
"719 124 OFFCURVE",
"719 350 CURVE SMOOTH",
"719 574 OFFCURVE",
"601 710 OFFCURVE",
"378 710 CURVE SMOOTH",
"154 710 OFFCURVE",
"36 574 OFFCURVE",
"36 350 CURVE SMOOTH",
"36 124 OFFCURVE",
"154 -10 OFFCURVE",
"378 -10 CURVE SMOOTH"
);
},
{
closed = 1;
nodes = (
"215 32 OFFCURVE",
"135 158 OFFCURVE",
"135 350 CURVE SMOOTH",
"135 541 OFFCURVE",
"215 668 OFFCURVE",
"377 668 CURVE SMOOTH",
"541 668 OFFCURVE",
"620 541 OFFCURVE",
"620 350 CURVE SMOOTH",
"620 158 OFFCURVE",
"541 32 OFFCURVE",
"377 32 CURVE SMOOTH"
);
},
{
closed = 1;
nodes = (
"624 -169 OFFCURVE",
"683 -113 OFFCURVE",
"683 -47 CURVE SMOOTH",
"683 -41 OFFCURVE",
"683 -35 OFFCURVE",
"682 -29 CURVE",
"663 -29 LINE",
"649 -80 OFFCURVE",
"622 -105 OFFCURVE",
"576 -105 CURVE SMOOTH",
"490 -105 OFFCURVE",
"413 -35 OFFCURVE",
"325 -35 CURVE SMOOTH",
"313 -35 LINE",
"336 -17 OFFCURVE",
"354 -9 OFFCURVE",
"374 -1 CURVE",
"374 3 LINE",
"325 3 LINE",
"266 -20 OFFCURVE",
"226 -50 OFFCURVE",
"190 -81 CURVE",
"198 -95 LINE",
"235 -72 OFFCURVE",
"265 -66 OFFCURVE",
"293 -66 CURVE SMOOTH",
"369 -66 OFFCURVE",
"442 -169 OFFCURVE",
"552 -169 CURVE SMOOTH"
);
}
);
width = 755;
}
);
leftKerningGroup = O;
note = Q;
rightKerningGroup = O;
unicode = 0051;
},
{
glyphname = R;
lastChange = "2015-12-01 09:53:18 +0000";
layers = (
{
layerId = "0B1DFD06-3317-40CA-B510-4969A0718C16";
name = Regular;
paths = (
{
closed = 1;
nodes = (
"295 0 LINE",
"295 26 LINE",
"265 26 LINE SMOOTH",
"227 26 OFFCURVE",
"207 37 OFFCURVE",
"207 62 CURVE SMOOTH",
"207 290 LINE",
"360 290 LINE SMOOTH",
"521 290 OFFCURVE",
"578 371 OFFCURVE",
"578 495 CURVE SMOOTH",
"578 620 OFFCURVE",
"521 700 OFFCURVE",
"360 700 CURVE SMOOTH",
"22 700 LINE",
"22 673 LINE",
"51 673 LINE SMOOTH",
"90 673 OFFCURVE",
"109 662 OFFCURVE",
"109 637 CURVE SMOOTH",
"109 62 LINE SMOOTH",
"109 37 OFFCURVE",
"90 26 OFFCURVE",
"51 26 CURVE SMOOTH",
"22 26 LINE",
"22 0 LINE"
);
},
{
closed = 1;
nodes = (
"207 659 LINE",
"341 659 LINE SMOOTH",
"440 659 OFFCURVE",
"482 600 OFFCURVE",
"482 495 CURVE SMOOTH",
"482 391 OFFCURVE",
"440 331 OFFCURVE",
"341 331 CURVE SMOOTH",
"207 331 LINE"
);
},
{
closed = 1;
nodes = (
"633 0 LINE",
"633 26 LINE",
"559 28 OFFCURVE",
"538 103 OFFCURVE",
"517 175 CURVE SMOOTH",
"502 227 OFFCURVE",
"487 283 OFFCURVE",
"434 305 CURVE",
"348 305 LINE",
"348 301 LINE",
"408 269 OFFCURVE",
"413 177 OFFCURVE",
"435 102 CURVE SMOOTH",
"454 38 OFFCURVE",
"486 0 OFFCURVE",
"553 0 CURVE SMOOTH"
);
}
);
width = 667;
}
);
note = R;
rightKerningGroup = R;
unicode = 0052;
},
{
glyphname = Racute;
lastChange = "2015-12-01 09:53:23 +0000";
layers = (
{
layerId = "0B1DFD06-3317-40CA-B510-4969A0718C16";
name = Regular;
paths = (
{
closed = 1;
nodes = (
"295 0 LINE",
"295 26 LINE",
"265 26 LINE SMOOTH",
"227 26 OFFCURVE",
"207 37 OFFCURVE",
"207 62 CURVE SMOOTH",
"207 290 LINE",
"360 290 LINE SMOOTH",
"521 290 OFFCURVE",
"578 371 OFFCURVE",
"578 495 CURVE SMOOTH",
"578 620 OFFCURVE",
"521 700 OFFCURVE",
"360 700 CURVE SMOOTH",
"22 700 LINE",
"22 673 LINE",
"51 673 LINE SMOOTH",
"90 673 OFFCURVE",
"109 662 OFFCURVE",
"109 637 CURVE SMOOTH",
"109 62 LINE SMOOTH",
"109 37 OFFCURVE",
"90 26 OFFCURVE",
"51 26 CURVE SMOOTH",
"22 26 LINE",
"22 0 LINE"
);
},
{
closed = 1;
nodes = (
"207 659 LINE",
"341 659 LINE SMOOTH",
"440 659 OFFCURVE",
"482 600 OFFCURVE",
"482 495 CURVE SMOOTH",
"482 391 OFFCURVE",
"440 331 OFFCURVE",
"341 331 CURVE SMOOTH",
"207 331 LINE"
);
},
{
closed = 1;
nodes = (
"633 0 LINE",
"633 26 LINE",
"559 28 OFFCURVE",
"538 103 OFFCURVE",
"517 175 CURVE SMOOTH",
"502 227 OFFCURVE",
"487 283 OFFCURVE",
"434 305 CURVE",
"348 305 LINE",
"348 301 LINE",
"408 269 OFFCURVE",
"413 177 OFFCURVE",
"435 102 CURVE SMOOTH",
"454 38 OFFCURVE",
"486 0 OFFCURVE",
"553 0 CURVE SMOOTH"
);
},
{
closed = 1;
nodes = (
"401 865 LINE SMOOTH",
"423 877 OFFCURVE",
"435 890 OFFCURVE",
"435 907 CURVE SMOOTH",
"435 922 OFFCURVE",
"423 937 OFFCURVE",
"401 937 CURVE SMOOTH",
"380 937 OFFCURVE",
"365 921 OFFCURVE",
"357 914 CURVE SMOOTH",
"242 807 LINE",
"259 782 LINE"
);
}
);
width = 667;
}
);
note = Racute;
rightKerningGroup = R;
unicode = 0154;
},
{
glyphname = Rcaron;
lastChange = "2015-12-01 09:53:28 +0000";
layers = (
{
layerId = "0B1DFD06-3317-40CA-B510-4969A0718C16";
name = Regular;
paths = (
{
closed = 1;
nodes = (
"295 0 LINE",
"295 26 LINE",
"265 26 LINE SMOOTH",
"227 26 OFFCURVE",
"207 37 OFFCURVE",
"207 62 CURVE SMOOTH",
"207 290 LINE",
"360 290 LINE SMOOTH",
"521 290 OFFCURVE",
"578 371 OFFCURVE",
"578 495 CURVE SMOOTH",
"578 620 OFFCURVE",
"521 700 OFFCURVE",
"360 700 CURVE SMOOTH",
"22 700 LINE",
"22 673 LINE",
"51 673 LINE SMOOTH",
"90 673 OFFCURVE",
"109 662 OFFCURVE",
"109 637 CURVE SMOOTH",
"109 62 LINE SMOOTH",
"109 37 OFFCURVE",
"90 26 OFFCURVE",
"51 26 CURVE SMOOTH",
"22 26 LINE",
"22 0 LINE"
);
},
{
closed = 1;
nodes = (
"207 659 LINE",
"341 659 LINE SMOOTH",
"440 659 OFFCURVE",
"482 600 OFFCURVE",
"482 495 CURVE SMOOTH",
"482 391 OFFCURVE",
"440 331 OFFCURVE",
"341 331 CURVE SMOOTH",
"207 331 LINE"
);
},
{
closed = 1;
nodes = (
"633 0 LINE",
"633 26 LINE",
"559 28 OFFCURVE",
"538 103 OFFCURVE",
"517 175 CURVE SMOOTH",
"502 227 OFFCURVE",
"487 283 OFFCURVE",
"434 305 CURVE",
"348 305 LINE",
"348 301 LINE",
"408 269 OFFCURVE",
"413 177 OFFCURVE",
"435 102 CURVE SMOOTH",
"454 38 OFFCURVE",
"486 0 OFFCURVE",
"553 0 CURVE SMOOTH"
);
},
{
closed = 1;
nodes = (
"365 782 LINE",
"489 911 LINE",
"470 932 LINE",
"362 847 LINE",
"354 840 OFFCURVE",
"345 836 OFFCURVE",
"339 836 CURVE SMOOTH",
"333 836 OFFCURVE",
"325 840 OFFCURVE",
"315 847 CURVE",
"207 932 LINE",
"188 911 LINE",
"312 782 LINE"
);
}
);
width = 667;
}
);
note = Rcaron;
rightKerningGroup = R;
unicode = 0158;
},
{
glyphname = Rcommaaccent;
lastChange = "2015-12-01 09:53:33 +0000";
layers = (
{
layerId = "0B1DFD06-3317-40CA-B510-4969A0718C16";
name = Regular;
paths = (
{
closed = 1;
nodes = (
"295 0 LINE",
"295 26 LINE",
"265 26 LINE SMOOTH",
"227 26 OFFCURVE",
"207 37 OFFCURVE",
"207 62 CURVE SMOOTH",
"207 290 LINE",
"360 290 LINE SMOOTH",
"521 290 OFFCURVE",
"578 371 OFFCURVE",
"578 495 CURVE SMOOTH",
"578 620 OFFCURVE",
"521 700 OFFCURVE",
"360 700 CURVE SMOOTH",
"22 700 LINE",
"22 673 LINE",
"51 673 LINE SMOOTH",
"90 673 OFFCURVE",
"109 662 OFFCURVE",
"109 637 CURVE SMOOTH",
"109 62 LINE SMOOTH",
"109 37 OFFCURVE",
"90 26 OFFCURVE",
"51 26 CURVE SMOOTH",
"22 26 LINE",
"22 0 LINE"
);
},
{
closed = 1;
nodes = (
"207 659 LINE",
"341 659 LINE SMOOTH",
"440 659 OFFCURVE",
"482 600 OFFCURVE",
"482 495 CURVE SMOOTH",
"482 391 OFFCURVE",
"440 331 OFFCURVE",
"341 331 CURVE SMOOTH",
"207 331 LINE"
);
},
{
closed = 1;
nodes = (
"633 0 LINE",
"633 26 LINE",
"559 28 OFFCURVE",
"538 103 OFFCURVE",
"517 175 CURVE SMOOTH",
"502 227 OFFCURVE",
"487 283 OFFCURVE",
"434 305 CURVE",
"348 305 LINE",
"348 301 LINE",
"408 269 OFFCURVE",
"413 177 OFFCURVE",
"435 102 CURVE SMOOTH",
"454 38 OFFCURVE",
"486 0 OFFCURVE",
"553 0 CURVE SMOOTH"
);
},
{
closed = 1;
nodes = (
"353 -258 OFFCURVE",
"397 -198 OFFCURVE",
"397 -135 CURVE SMOOTH",
"397 -87 OFFCURVE",
"373 -67 OFFCURVE",
"344 -67 CURVE SMOOTH",
"315 -67 OFFCURVE",
"298 -87 OFFCURVE",
"298 -111 CURVE SMOOTH",
"298 -145 OFFCURVE",
"333 -152 OFFCURVE",
"333 -187 CURVE SMOOTH",
"333 -223 OFFCURVE",
"307 -256 OFFCURVE",
"280 -282 CURVE",
"297 -299 LINE"
);
}
);
width = 667;
}
);
note = Rcommaaccent;
rightKerningGroup = R;
unicode = 0156;
},
{
glyphname = Rdotbelow;
lastChange = "2015-12-01 09:53:40 +0000";
layers = (
{
layerId = "0B1DFD06-3317-40CA-B510-4969A0718C16";
name = Regular;
paths = (
{
closed = 1;
nodes = (
"295 0 LINE",
"295 26 LINE",
"265 26 LINE SMOOTH",
"227 26 OFFCURVE",
"207 37 OFFCURVE",
"207 62 CURVE SMOOTH",
"207 290 LINE",
"360 290 LINE SMOOTH",
"521 290 OFFCURVE",
"578 371 OFFCURVE",
"578 495 CURVE SMOOTH",
"578 620 OFFCURVE",
"521 700 OFFCURVE",
"360 700 CURVE SMOOTH",
"22 700 LINE",
"22 673 LINE",
"51 673 LINE SMOOTH",
"90 673 OFFCURVE",
"109 662 OFFCURVE",
"109 637 CURVE SMOOTH",
"109 62 LINE SMOOTH",
"109 37 OFFCURVE",
"90 26 OFFCURVE",
"51 26 CURVE SMOOTH",
"22 26 LINE",
"22 0 LINE"
);
},
{
closed = 1;
nodes = (
"207 659 LINE",
"341 659 LINE SMOOTH",
"440 659 OFFCURVE",
"482 600 OFFCURVE",
"482 495 CURVE SMOOTH",
"482 391 OFFCURVE",
"440 331 OFFCURVE",
"341 331 CURVE SMOOTH",
"207 331 LINE"
);
},
{
closed = 1;
nodes = (
"633 0 LINE",
"633 26 LINE",
"559 28 OFFCURVE",
"538 103 OFFCURVE",
"517 175 CURVE SMOOTH",
"502 227 OFFCURVE",
"487 283 OFFCURVE",
"434 305 CURVE",
"348 305 LINE",
"348 301 LINE",
"408 269 OFFCURVE",
"413 177 OFFCURVE",
"435 102 CURVE SMOOTH",
"454 38 OFFCURVE",
"486 0 OFFCURVE",
"553 0 CURVE SMOOTH"
);
},
{
closed = 1;
nodes = (
"377 -159 OFFCURVE",
"395 -140 OFFCURVE",
"395 -112 CURVE SMOOTH",
"395 -84 OFFCURVE",
"377 -64 OFFCURVE",
"349 -64 CURVE SMOOTH",
"321 -64 OFFCURVE",
"302 -84 OFFCURVE",
"302 -112 CURVE SMOOTH",
"302 -140 OFFCURVE",
"321 -159 OFFCURVE",
"349 -159 CURVE SMOOTH"
);
}
);
width = 667;
}
);
note = Rdotbelow;
rightKerningGroup = R;
unicode = 1E5A;
},
{
glyphname = Rdotbelowmacron;
lastChange = "2015-12-01 09:53:48 +0000";
layers = (
{
layerId = "0B1DFD06-3317-40CA-B510-4969A0718C16";
name = Regular;
paths = (
{
closed = 1;
nodes = (
"295 0 LINE",
"295 26 LINE",
"265 26 LINE SMOOTH",
"227 26 OFFCURVE",
"207 37 OFFCURVE",
"207 62 CURVE SMOOTH",
"207 290 LINE",
"360 290 LINE SMOOTH",
"521 290 OFFCURVE",
"578 371 OFFCURVE",
"578 495 CURVE SMOOTH",
"578 620 OFFCURVE",
"521 700 OFFCURVE",
"360 700 CURVE SMOOTH",
"22 700 LINE",
"22 673 LINE",
"51 673 LINE SMOOTH",
"90 673 OFFCURVE",
"109 662 OFFCURVE",
"109 637 CURVE SMOOTH",
"109 62 LINE SMOOTH",
"109 37 OFFCURVE",
"90 26 OFFCURVE",
"51 26 CURVE SMOOTH",
"22 26 LINE",
"22 0 LINE"
);
},
{
closed = 1;
nodes = (
"207 659 LINE",
"341 659 LINE SMOOTH",
"440 659 OFFCURVE",
"482 600 OFFCURVE",
"482 495 CURVE SMOOTH",
"482 391 OFFCURVE",
"440 331 OFFCURVE",
"341 331 CURVE SMOOTH",
"207 331 LINE"
);
},
{
closed = 1;
nodes = (
"633 0 LINE",
"633 26 LINE",
"559 28 OFFCURVE",
"538 103 OFFCURVE",
"517 175 CURVE SMOOTH",
"502 227 OFFCURVE",
"487 283 OFFCURVE",
"434 305 CURVE",
"348 305 LINE",
"348 301 LINE",
"408 269 OFFCURVE",
"413 177 OFFCURVE",
"435 102 CURVE SMOOTH",
"454 38 OFFCURVE",
"486 0 OFFCURVE",
"553 0 CURVE SMOOTH"
);
},
{
closed = 1;
nodes = (
"377 -159 OFFCURVE",
"395 -140 OFFCURVE",
"395 -112 CURVE SMOOTH",
"395 -84 OFFCURVE",
"377 -64 OFFCURVE",
"349 -64 CURVE SMOOTH",
"321 -64 OFFCURVE",
"302 -84 OFFCURVE",
"302 -112 CURVE SMOOTH",
"302 -140 OFFCURVE",
"321 -159 OFFCURVE",
"349 -159 CURVE SMOOTH"
);
},
{
closed = 1;
nodes = (
"467 779 LINE",
"467 821 LINE",
"134 821 LINE",
"134 779 LINE"
);
}
);
width = 667;
}
);
note = Rdotbelowmacron;
rightKerningGroup = R;
unicode = 1E5C;
},
{
glyphname = Rlinebelow;
lastChange = "2015-12-01 09:53:57 +0000";
layers = (
{
layerId = "0B1DFD06-3317-40CA-B510-4969A0718C16";
name = Regular;
paths = (
{
closed = 1;
nodes = (
"295 0 LINE",
"295 26 LINE",
"265 26 LINE SMOOTH",
"227 26 OFFCURVE",
"207 37 OFFCURVE",
"207 62 CURVE SMOOTH",
"207 290 LINE",
"360 290 LINE SMOOTH",
"521 290 OFFCURVE",
"578 371 OFFCURVE",
"578 495 CURVE SMOOTH",
"578 620 OFFCURVE",
"521 700 OFFCURVE",
"360 700 CURVE SMOOTH",
"22 700 LINE",
"22 673 LINE",
"51 673 LINE SMOOTH",
"90 673 OFFCURVE",
"109 662 OFFCURVE",
"109 637 CURVE SMOOTH",
"109 62 LINE SMOOTH",
"109 37 OFFCURVE",
"90 26 OFFCURVE",
"51 26 CURVE SMOOTH",
"22 26 LINE",
"22 0 LINE"
);
},
{
closed = 1;
nodes = (
"207 659 LINE",
"341 659 LINE SMOOTH",
"440 659 OFFCURVE",
"482 600 OFFCURVE",
"482 495 CURVE SMOOTH",
"482 391 OFFCURVE",
"440 331 OFFCURVE",
"341 331 CURVE SMOOTH",
"207 331 LINE"
);
},
{
closed = 1;
nodes = (
"633 0 LINE",
"633 26 LINE",
"559 28 OFFCURVE",
"538 103 OFFCURVE",
"517 175 CURVE SMOOTH",
"502 227 OFFCURVE",
"487 283 OFFCURVE",
"434 305 CURVE",
"348 305 LINE",
"348 301 LINE",
"408 269 OFFCURVE",
"413 177 OFFCURVE",
"435 102 CURVE SMOOTH",
"454 38 OFFCURVE",
"486 0 OFFCURVE",
"553 0 CURVE SMOOTH"
);
},
{
closed = 1;
nodes = (
"482 -110 LINE",
"482 -72 LINE",
"150 -72 LINE",
"150 -110 LINE"
);
}
);
width = 667;
}
);
note = Rlinebelow;
rightKerningGroup = R;
unicode = 1E5E;
},
{
glyphname = S;
lastChange = "2015-12-01 09:49:14 +0000";
layers = (
{
layerId = "0B1DFD06-3317-40CA-B510-4969A0718C16";
name = Regular;
paths = (
{
closed = 1;
nodes = (
"437 -10 OFFCURVE",
"542 57 OFFCURVE",
"542 184 CURVE SMOOTH",
"542 430 OFFCURVE",
"151 385 OFFCURVE",
"151 555 CURVE SMOOTH",
"151 624 OFFCURVE",
"207 668 OFFCURVE",
"304 668 CURVE SMOOTH",
"398 668 OFFCURVE",
"473 613 OFFCURVE",
"484 515 CURVE",
"513 515 LINE",
"513 706 LINE",
"476 706 LINE",
"476 661 LINE SMOOTH",
"476 656 OFFCURVE",
"474 652 OFFCURVE",
"470 652 CURVE SMOOTH",
"455 652 OFFCURVE",
"390 710 OFFCURVE",
"283 710 CURVE SMOOTH",
"148 710 OFFCURVE",
"52 655 OFFCURVE",
"52 543 CURVE SMOOTH",
"52 319 OFFCURVE",
"443 355 OFFCURVE",
"443 170 CURVE SMOOTH",
"443 79 OFFCURVE",
"372 31 OFFCURVE",
"272 31 CURVE SMOOTH",
"178 31 OFFCURVE",
"80 93 OFFCURVE",
"68 190 CURVE",
"39 190 LINE",
"39 0 LINE",
"75 0 LINE",
"75 43 LINE SMOOTH",
"75 54 OFFCURVE",
"79 60 OFFCURVE",
"84 60 CURVE SMOOTH",
"104 60 OFFCURVE",
"175 -10 OFFCURVE",
"299 -10 CURVE SMOOTH"
);
}
);
width = 582;
}
);
leftKerningGroup = S;
note = S;
rightKerningGroup = S;
unicode = 0053;
},
{
glyphname = Sacute;
lastChange = "2015-12-01 09:49:19 +0000";
layers = (
{
layerId = "0B1DFD06-3317-40CA-B510-4969A0718C16";
name = Regular;
paths = (
{
closed = 1;
nodes = (
"437 -10 OFFCURVE",
"542 57 OFFCURVE",
"542 184 CURVE SMOOTH",
"542 430 OFFCURVE",
"151 385 OFFCURVE",
"151 555 CURVE SMOOTH",
"151 624 OFFCURVE",
"207 668 OFFCURVE",
"304 668 CURVE SMOOTH",
"398 668 OFFCURVE",
"473 613 OFFCURVE",
"484 515 CURVE",
"513 515 LINE",
"513 706 LINE",
"476 706 LINE",
"476 661 LINE SMOOTH",
"476 656 OFFCURVE",
"474 652 OFFCURVE",
"470 652 CURVE SMOOTH",
"455 652 OFFCURVE",
"390 710 OFFCURVE",
"283 710 CURVE SMOOTH",
"148 710 OFFCURVE",
"52 655 OFFCURVE",
"52 543 CURVE SMOOTH",
"52 319 OFFCURVE",
"443 355 OFFCURVE",
"443 170 CURVE SMOOTH",
"443 79 OFFCURVE",
"372 31 OFFCURVE",
"272 31 CURVE SMOOTH",
"178 31 OFFCURVE",
"80 93 OFFCURVE",
"68 190 CURVE",
"39 190 LINE",
"39 0 LINE",
"75 0 LINE",
"75 43 LINE SMOOTH",
"75 54 OFFCURVE",
"79 60 OFFCURVE",
"84 60 CURVE SMOOTH",
"104 60 OFFCURVE",
"175 -10 OFFCURVE",
"299 -10 CURVE SMOOTH"
);
},
{
closed = 1;
nodes = (
"353 865 LINE SMOOTH",
"375 877 OFFCURVE",
"387 890 OFFCURVE",
"387 907 CURVE SMOOTH",
"387 922 OFFCURVE",
"375 937 OFFCURVE",
"353 937 CURVE SMOOTH",
"332 937 OFFCURVE",
"317 921 OFFCURVE",
"309 914 CURVE SMOOTH",
"194 807 LINE",
"211 782 LINE"
);
}
);
width = 582;
}
);
leftKerningGroup = S;
note = Sacute;
rightKerningGroup = S;
unicode = 015A;
},
{
glyphname = Scaron;
lastChange = "2015-12-01 09:49:20 +0000";
layers = (
{
layerId = "0B1DFD06-3317-40CA-B510-4969A0718C16";
name = Regular;
paths = (
{
closed = 1;
nodes = (
"437 -10 OFFCURVE",
"542 57 OFFCURVE",
"542 184 CURVE SMOOTH",
"542 430 OFFCURVE",
"151 385 OFFCURVE",
"151 555 CURVE SMOOTH",
"151 624 OFFCURVE",
"207 668 OFFCURVE",
"304 668 CURVE SMOOTH",
"398 668 OFFCURVE",
"473 613 OFFCURVE",
"484 515 CURVE",
"513 515 LINE",
"513 706 LINE",
"476 706 LINE",
"476 661 LINE SMOOTH",
"476 656 OFFCURVE",
"474 652 OFFCURVE",
"470 652 CURVE SMOOTH",
"455 652 OFFCURVE",
"390 710 OFFCURVE",
"283 710 CURVE SMOOTH",
"148 710 OFFCURVE",
"52 655 OFFCURVE",
"52 543 CURVE SMOOTH",
"52 319 OFFCURVE",
"443 355 OFFCURVE",
"443 170 CURVE SMOOTH",
"443 79 OFFCURVE",
"372 31 OFFCURVE",
"272 31 CURVE SMOOTH",
"178 31 OFFCURVE",
"80 93 OFFCURVE",
"68 190 CURVE",
"39 190 LINE",
"39 0 LINE",
"75 0 LINE",
"75 43 LINE SMOOTH",
"75 54 OFFCURVE",
"79 60 OFFCURVE",
"84 60 CURVE SMOOTH",
"104 60 OFFCURVE",
"175 -10 OFFCURVE",
"299 -10 CURVE SMOOTH"
);
},
{
closed = 1;
nodes = (
"310 782 LINE",
"434 911 LINE",
"415 932 LINE",
"307 847 LINE",
"299 840 OFFCURVE",
"290 836 OFFCURVE",
"284 836 CURVE SMOOTH",
"278 836 OFFCURVE",
"270 840 OFFCURVE",
"260 847 CURVE",
"152 932 LINE",
"133 911 LINE",
"257 782 LINE"
);
}
);
width = 582;
}
);
leftKerningGroup = S;
note = Scaron;
rightKerningGroup = S;
unicode = 0160;
},
{
glyphname = Scedilla;
lastChange = "2015-12-01 09:49:20 +0000";
layers = (
{
layerId = "0B1DFD06-3317-40CA-B510-4969A0718C16";
name = Regular;
paths = (
{
closed = 1;
nodes = (
"437 -10 OFFCURVE",
"542 57 OFFCURVE",
"542 184 CURVE SMOOTH",
"542 430 OFFCURVE",
"151 385 OFFCURVE",
"151 555 CURVE SMOOTH",
"151 624 OFFCURVE",
"207 668 OFFCURVE",
"304 668 CURVE SMOOTH",
"398 668 OFFCURVE",
"473 613 OFFCURVE",
"484 515 CURVE",
"513 515 LINE",
"513 706 LINE",
"476 706 LINE",
"476 661 LINE SMOOTH",
"476 656 OFFCURVE",
"474 652 OFFCURVE",
"470 652 CURVE SMOOTH",
"455 652 OFFCURVE",
"390 710 OFFCURVE",
"283 710 CURVE SMOOTH",
"148 710 OFFCURVE",
"52 655 OFFCURVE",
"52 543 CURVE SMOOTH",
"52 319 OFFCURVE",
"443 355 OFFCURVE",
"443 170 CURVE SMOOTH",
"443 79 OFFCURVE",
"372 31 OFFCURVE",
"272 31 CURVE SMOOTH",
"178 31 OFFCURVE",
"80 93 OFFCURVE",
"68 190 CURVE",
"39 190 LINE",
"39 0 LINE",
"75 0 LINE",
"75 43 LINE SMOOTH",
"75 54 OFFCURVE",
"79 60 OFFCURVE",
"84 60 CURVE SMOOTH",
"104 60 OFFCURVE",
"175 -10 OFFCURVE",
"299 -10 CURVE SMOOTH"
);
},
{
closed = 1;
nodes = (
"300 -214 OFFCURVE",
"373 -197 OFFCURVE",
"373 -126 CURVE SMOOTH",
"373 -69 OFFCURVE",
"313 -55 OFFCURVE",
"271 -55 CURVE",
"307 13 LINE",
"264 13 LINE",
"215 -72 LINE",
"227 -88 LINE",
"251 -88 OFFCURVE",
"310 -92 OFFCURVE",
"310 -128 CURVE SMOOTH",
"310 -170 OFFCURVE",
"271 -182 OFFCURVE",
"222 -182 CURVE SMOOTH",
"212 -182 OFFCURVE",
"200 -182 OFFCURVE",
"191 -180 CURVE",
"185 -209 LINE",
"201 -212 OFFCURVE",
"215 -214 OFFCURVE",
"234 -214 CURVE SMOOTH"
);
}
);
width = 582;
}
);
leftKerningGroup = S;
note = Scedilla;
rightKerningGroup = S;
unicode = 015E;
},
{
glyphname = Scircumflex;
lastChange = "2015-12-01 09:49:20 +0000";
layers = (
{
layerId = "0B1DFD06-3317-40CA-B510-4969A0718C16";
name = Regular;
paths = (
{
closed = 1;
nodes = (
"437 -10 OFFCURVE",
"542 57 OFFCURVE",
"542 184 CURVE SMOOTH",
"542 430 OFFCURVE",
"151 385 OFFCURVE",
"151 555 CURVE SMOOTH",
"151 624 OFFCURVE",
"207 668 OFFCURVE",
"304 668 CURVE SMOOTH",
"398 668 OFFCURVE",
"473 613 OFFCURVE",
"484 515 CURVE",
"513 515 LINE",
"513 706 LINE",
"476 706 LINE",
"476 661 LINE SMOOTH",
"476 656 OFFCURVE",
"474 652 OFFCURVE",
"470 652 CURVE SMOOTH",
"455 652 OFFCURVE",
"390 710 OFFCURVE",
"283 710 CURVE SMOOTH",
"148 710 OFFCURVE",
"52 655 OFFCURVE",
"52 543 CURVE SMOOTH",
"52 319 OFFCURVE",
"443 355 OFFCURVE",
"443 170 CURVE SMOOTH",
"443 79 OFFCURVE",
"372 31 OFFCURVE",
"272 31 CURVE SMOOTH",
"178 31 OFFCURVE",
"80 93 OFFCURVE",
"68 190 CURVE",
"39 190 LINE",
"39 0 LINE",
"75 0 LINE",
"75 43 LINE SMOOTH",
"75 54 OFFCURVE",
"79 60 OFFCURVE",
"84 60 CURVE SMOOTH",
"104 60 OFFCURVE",
"175 -10 OFFCURVE",
"299 -10 CURVE SMOOTH"
);
},
{
closed = 1;
nodes = (
"260 868 LINE SMOOTH",
"268 874 OFFCURVE",
"278 879 OFFCURVE",
"284 879 CURVE SMOOTH",
"290 879 OFFCURVE",
"298 874 OFFCURVE",
"307 868 CURVE",
"415 782 LINE",
"434 803 LINE",
"310 932 LINE",
"257 932 LINE",
"133 803 LINE",
"152 782 LINE"
);
}
);
width = 582;
}
);
leftKerningGroup = S;
note = Scircumflex;
rightKerningGroup = S;
unicode = 015C;
},
{
glyphname = Scommaaccent;
lastChange = "2015-12-01 09:49:20 +0000";
layers = (
{
layerId = "0B1DFD06-3317-40CA-B510-4969A0718C16";
name = Regular;
paths = (
{
closed = 1;
nodes = (
"437 -10 OFFCURVE",
"542 57 OFFCURVE",
"542 184 CURVE SMOOTH",
"542 430 OFFCURVE",
"151 385 OFFCURVE",
"151 555 CURVE SMOOTH",
"151 624 OFFCURVE",
"207 668 OFFCURVE",
"304 668 CURVE SMOOTH",
"398 668 OFFCURVE",
"473 613 OFFCURVE",
"484 515 CURVE",
"513 515 LINE",
"513 706 LINE",
"476 706 LINE",
"476 661 LINE SMOOTH",
"476 656 OFFCURVE",
"474 652 OFFCURVE",
"470 652 CURVE SMOOTH",
"455 652 OFFCURVE",
"390 710 OFFCURVE",
"283 710 CURVE SMOOTH",
"148 710 OFFCURVE",
"52 655 OFFCURVE",
"52 543 CURVE SMOOTH",
"52 319 OFFCURVE",
"443 355 OFFCURVE",
"443 170 CURVE SMOOTH",
"443 79 OFFCURVE",
"372 31 OFFCURVE",
"272 31 CURVE SMOOTH",
"178 31 OFFCURVE",
"80 93 OFFCURVE",
"68 190 CURVE",
"39 190 LINE",
"39 0 LINE",
"75 0 LINE",
"75 43 LINE SMOOTH",
"75 54 OFFCURVE",
"79 60 OFFCURVE",
"84 60 CURVE SMOOTH",
"104 60 OFFCURVE",
"175 -10 OFFCURVE",
"299 -10 CURVE SMOOTH"
);
},
{
closed = 1;
nodes = (
"271 -243 OFFCURVE",
"317 -185 OFFCURVE",
"317 -122 CURVE SMOOTH",
"317 -74 OFFCURVE",
"293 -55 OFFCURVE",
"264 -55 CURVE SMOOTH",
"235 -55 OFFCURVE",
"218 -74 OFFCURVE",
"218 -99 CURVE SMOOTH",
"218 -132 OFFCURVE",
"253 -140 OFFCURVE",
"253 -174 CURVE SMOOTH",
"253 -210 OFFCURVE",
"227 -243 OFFCURVE",
"200 -270 CURVE",
"217 -286 LINE"
);
}
);
width = 582;
}
);
leftKerningGroup = S;
note = Scommaaccent;
rightKerningGroup = S;
unicode = 0218;
},
{
glyphname = Sdotaccent;
lastChange = "2015-12-01 09:49:19 +0000";
layers = (
{
layerId = "0B1DFD06-3317-40CA-B510-4969A0718C16";
name = Regular;
paths = (
{
closed = 1;
nodes = (
"437 -10 OFFCURVE",
"542 57 OFFCURVE",
"542 184 CURVE SMOOTH",
"542 430 OFFCURVE",
"151 385 OFFCURVE",
"151 555 CURVE SMOOTH",
"151 624 OFFCURVE",
"207 668 OFFCURVE",
"304 668 CURVE SMOOTH",
"398 668 OFFCURVE",
"473 613 OFFCURVE",
"484 515 CURVE",
"513 515 LINE",
"513 706 LINE",
"476 706 LINE",
"476 661 LINE SMOOTH",
"476 656 OFFCURVE",
"474 652 OFFCURVE",
"470 652 CURVE SMOOTH",
"455 652 OFFCURVE",
"390 710 OFFCURVE",
"283 710 CURVE SMOOTH",
"148 710 OFFCURVE",
"52 655 OFFCURVE",
"52 543 CURVE SMOOTH",
"52 319 OFFCURVE",
"443 355 OFFCURVE",
"443 170 CURVE SMOOTH",
"443 79 OFFCURVE",
"372 31 OFFCURVE",
"272 31 CURVE SMOOTH",
"178 31 OFFCURVE",
"80 93 OFFCURVE",
"68 190 CURVE",
"39 190 LINE",
"39 0 LINE",
"75 0 LINE",
"75 43 LINE SMOOTH",
"75 54 OFFCURVE",
"79 60 OFFCURVE",
"84 60 CURVE SMOOTH",
"104 60 OFFCURVE",
"175 -10 OFFCURVE",
"299 -10 CURVE SMOOTH"
);
},
{
closed = 1;
nodes = (
"324 782 OFFCURVE",
"342 801 OFFCURVE",
"342 828 CURVE SMOOTH",
"342 856 OFFCURVE",
"324 875 OFFCURVE",
"296 875 CURVE SMOOTH",
"267 875 OFFCURVE",
"249 856 OFFCURVE",
"249 828 CURVE SMOOTH",
"249 801 OFFCURVE",
"267 782 OFFCURVE",
"296 782 CURVE SMOOTH"
);
}
);
width = 582;
}
);
leftKerningGroup = S;
note = Sdotaccent;
rightKerningGroup = S;
unicode = 1E60;
},
{
glyphname = Sdotbelow;
lastChange = "2015-12-01 09:49:19 +0000";
layers = (
{
layerId = "0B1DFD06-3317-40CA-B510-4969A0718C16";
name = Regular;
paths = (
{
closed = 1;
nodes = (
"437 -10 OFFCURVE",
"542 57 OFFCURVE",
"542 184 CURVE SMOOTH",
"542 430 OFFCURVE",
"151 385 OFFCURVE",
"151 555 CURVE SMOOTH",
"151 624 OFFCURVE",
"207 668 OFFCURVE",
"304 668 CURVE SMOOTH",
"398 668 OFFCURVE",
"473 613 OFFCURVE",
"484 515 CURVE",
"513 515 LINE",
"513 706 LINE",
"476 706 LINE",
"476 661 LINE SMOOTH",
"476 656 OFFCURVE",
"474 652 OFFCURVE",
"470 652 CURVE SMOOTH",
"455 652 OFFCURVE",
"390 710 OFFCURVE",
"283 710 CURVE SMOOTH",
"148 710 OFFCURVE",
"52 655 OFFCURVE",
"52 543 CURVE SMOOTH",
"52 319 OFFCURVE",
"443 355 OFFCURVE",
"443 170 CURVE SMOOTH",
"443 79 OFFCURVE",
"372 31 OFFCURVE",
"272 31 CURVE SMOOTH",
"178 31 OFFCURVE",
"80 93 OFFCURVE",
"68 190 CURVE",
"39 190 LINE",
"39 0 LINE",
"75 0 LINE",
"75 43 LINE SMOOTH",
"75 54 OFFCURVE",
"79 60 OFFCURVE",
"84 60 CURVE SMOOTH",
"104 60 OFFCURVE",
"175 -10 OFFCURVE",
"299 -10 CURVE SMOOTH"
);
},
{
closed = 1;
nodes = (
"319 -159 OFFCURVE",
"337 -140 OFFCURVE",
"337 -112 CURVE SMOOTH",
"337 -84 OFFCURVE",
"319 -64 OFFCURVE",
"291 -64 CURVE SMOOTH",
"263 -64 OFFCURVE",
"244 -84 OFFCURVE",
"244 -112 CURVE SMOOTH",
"244 -140 OFFCURVE",
"263 -159 OFFCURVE",
"291 -159 CURVE SMOOTH"
);
}
);
width = 582;
}
);
leftKerningGroup = S;
note = Sdotbelow;
rightKerningGroup = S;
unicode = 1E62;
},
{
glyphname = Germandbls;
lastChange = "2015-12-01 09:49:14 +0000";
layers = (
{
layerId = "0B1DFD06-3317-40CA-B510-4969A0718C16";
name = Regular;
paths = (
{
closed = 1;
nodes = (
"606 -10 OFFCURVE",
"674 88 OFFCURVE",
"674 203 CURVE SMOOTH",
"674 313 OFFCURVE",
"592 385 OFFCURVE",
"445 398 CURVE",
"591 553 LINE",
"569 627 OFFCURVE",
"489 710 OFFCURVE",
"354 710 CURVE SMOOTH",
"177 710 OFFCURVE",
"92 616 OFFCURVE",
"92 470 CURVE SMOOTH",
"92 62 LINE SMOOTH",
"92 37 OFFCURVE",
"72 26 OFFCURVE",
"33 26 CURVE SMOOTH",
"5 26 LINE",
"5 0 LINE",
"255 0 LINE",
"255 26 LINE",
"227 26 LINE SMOOTH",
"202 26 OFFCURVE",
"188 44 OFFCURVE",
"188 63 CURVE SMOOTH",
"188 495 LINE SMOOTH",
"188 602 OFFCURVE",
"246 668 OFFCURVE",
"347 668 CURVE SMOOTH",
"431 668 OFFCURVE",
"479 617 OFFCURVE",
"499 555 CURVE",
"344 387 LINE",
"344 361 LINE",
"406 361 LINE SMOOTH",
"520 361 OFFCURVE",
"578 296 OFFCURVE",
"578 203 CURVE SMOOTH",
"578 100 OFFCURVE",
"521 29 OFFCURVE",
"419 29 CURVE SMOOTH",
"374 29 OFFCURVE",
"324 37 OFFCURVE",
"277 56 CURVE",
"277 14 LINE",
"318 -2 OFFCURVE",
"367 -10 OFFCURVE",
"423 -10 CURVE SMOOTH"
);
}
);
width = 703;
}
);
note = uni1E9E;
unicode = 1E9E;
},
{
glyphname = Schwa;
lastChange = "2015-12-01 09:49:14 +0000";
layers = (
{
layerId = "0B1DFD06-3317-40CA-B510-4969A0718C16";
name = Regular;
paths = (
{
closed = 1;
nodes = (
"543 -10 OFFCURVE",
"658 120 OFFCURVE",
"658 346 CURVE SMOOTH",
"658 569 OFFCURVE",
"533 710 OFFCURVE",
"323 710 CURVE SMOOTH",
"160 710 OFFCURVE",
"56 618 OFFCURVE",
"41 500 CURVE",
"84 500 LINE",
"111 616 OFFCURVE",
"202 660 OFFCURVE",
"298 660 CURVE SMOOTH",
"479 660 OFFCURVE",
"559 515 OFFCURVE",
"559 341 CURVE SMOOTH",
"559 185 OFFCURVE",
"486 39 OFFCURVE",
"327 39 CURVE SMOOTH",
"181 39 OFFCURVE",
"133 180 OFFCURVE",
"132 283 CURVE",
"573 283 LINE",
"573 333 LINE",
"33 333 LINE",
"33 303 LINE SMOOTH",
"33 132 OFFCURVE",
"119 -10 OFFCURVE",
"330 -10 CURVE SMOOTH"
);
}
);
width = 692;
}
);
note = uni018F;
unicode = 018F;
},
{
glyphname = T;
lastChange = "2015-12-01 09:49:14 +0000";
layers = (
{
layerId = "0B1DFD06-3317-40CA-B510-4969A0718C16";
name = Regular;
paths = (
{
closed = 1;
nodes = (
"462 0 LINE",
"462 26 LINE",
"433 26 LINE SMOOTH",
"395 26 OFFCURVE",
"375 37 OFFCURVE",
"375 62 CURVE SMOOTH",
"375 659 LINE",
"514 659 LINE SMOOTH",
"575 659 OFFCURVE",
"585 547 OFFCURVE",
"587 508 CURVE",
"614 508 LINE",
"614 700 LINE",
"38 700 LINE",
"38 508 LINE",
"65 508 LINE",
"66 547 OFFCURVE",
"76 659 OFFCURVE",
"138 659 CURVE SMOOTH",
"277 659 LINE",
"277 62 LINE SMOOTH",
"277 37 OFFCURVE",
"257 26 OFFCURVE",
"218 26 CURVE SMOOTH",
"190 26 LINE",
"190 0 LINE"
);
}
);
width = 652;
}
);
leftKerningGroup = T;
note = T;
rightKerningGroup = T;
unicode = 0054;
},
{
glyphname = Tbar;
lastChange = "2015-12-01 09:49:19 +0000";
layers = (
{
layerId = "0B1DFD06-3317-40CA-B510-4969A0718C16";
name = Regular;
paths = (
{
closed = 1;
nodes = (
"462 0 LINE",
"462 26 LINE",
"433 26 LINE SMOOTH",
"395 26 OFFCURVE",
"375 37 OFFCURVE",
"375 62 CURVE SMOOTH",
"375 659 LINE",
"514 659 LINE SMOOTH",
"575 659 OFFCURVE",
"585 547 OFFCURVE",
"587 508 CURVE",
"614 508 LINE",
"614 700 LINE",
"38 700 LINE",
"38 508 LINE",
"65 508 LINE",
"66 547 OFFCURVE",
"76 659 OFFCURVE",
"138 659 CURVE SMOOTH",
"277 659 LINE",
"277 62 LINE SMOOTH",
"277 37 OFFCURVE",
"257 26 OFFCURVE",
"218 26 CURVE SMOOTH",
"190 26 LINE",
"190 0 LINE"
);
},
{
closed = 1;
nodes = (
"520 317 LINE",
"520 363 LINE",
"134 363 LINE",
"134 317 LINE"
);
}
);
width = 652;
}
);
leftKerningGroup = T;
note = Tbar;
rightKerningGroup = T;
unicode = 0166;
},
{
glyphname = Tcaron;
lastChange = "2015-12-01 09:49:19 +0000";
layers = (
{
layerId = "0B1DFD06-3317-40CA-B510-4969A0718C16";
name = Regular;
paths = (
{
closed = 1;
nodes = (
"462 0 LINE",
"462 26 LINE",
"433 26 LINE SMOOTH",
"395 26 OFFCURVE",
"375 37 OFFCURVE",
"375 62 CURVE SMOOTH",
"375 659 LINE",
"514 659 LINE SMOOTH",
"575 659 OFFCURVE",
"585 547 OFFCURVE",
"587 508 CURVE",
"614 508 LINE",
"614 700 LINE",
"38 700 LINE",
"38 508 LINE",
"65 508 LINE",
"66 547 OFFCURVE",
"76 659 OFFCURVE",
"138 659 CURVE SMOOTH",
"277 659 LINE",
"277 62 LINE SMOOTH",
"277 37 OFFCURVE",
"257 26 OFFCURVE",
"218 26 CURVE SMOOTH",
"190 26 LINE",
"190 0 LINE"
);
},
{
closed = 1;
nodes = (
"352 782 LINE",
"476 911 LINE",
"457 932 LINE",
"349 847 LINE",
"341 840 OFFCURVE",
"332 836 OFFCURVE",
"326 836 CURVE SMOOTH",
"320 836 OFFCURVE",
"312 840 OFFCURVE",
"302 847 CURVE",
"194 932 LINE",
"175 911 LINE",
"299 782 LINE"
);
}
);
width = 652;
}
);
leftKerningGroup = T;
note = Tcaron;
rightKerningGroup = T;
unicode = 0164;
},
{
glyphname = Tcedilla;
lastChange = "2015-12-01 09:49:20 +0000";
layers = (
{
layerId = "0B1DFD06-3317-40CA-B510-4969A0718C16";
name = Regular;
paths = (
{
closed = 1;
nodes = (
"462 0 LINE",
"462 26 LINE",
"433 26 LINE SMOOTH",
"395 26 OFFCURVE",
"375 37 OFFCURVE",
"375 62 CURVE SMOOTH",
"375 659 LINE",
"514 659 LINE SMOOTH",
"575 659 OFFCURVE",
"585 547 OFFCURVE",
"587 508 CURVE",
"614 508 LINE",
"614 700 LINE",
"38 700 LINE",
"38 508 LINE",
"65 508 LINE",
"66 547 OFFCURVE",
"76 659 OFFCURVE",
"138 659 CURVE SMOOTH",
"277 659 LINE",
"277 62 LINE SMOOTH",
"277 37 OFFCURVE",
"257 26 OFFCURVE",
"218 26 CURVE SMOOTH",
"190 26 LINE",
"190 0 LINE"
);
},
{
closed = 1;
nodes = (
"345 -214 OFFCURVE",
"418 -197 OFFCURVE",
"418 -126 CURVE SMOOTH",
"418 -69 OFFCURVE",
"358 -55 OFFCURVE",
"316 -55 CURVE",
"352 13 LINE",
"309 13 LINE",
"260 -72 LINE",
"272 -88 LINE",
"296 -88 OFFCURVE",
"355 -92 OFFCURVE",
"355 -128 CURVE SMOOTH",
"355 -170 OFFCURVE",
"316 -182 OFFCURVE",
"267 -182 CURVE SMOOTH",
"257 -182 OFFCURVE",
"245 -182 OFFCURVE",
"236 -180 CURVE",
"230 -209 LINE",
"246 -212 OFFCURVE",
"260 -214 OFFCURVE",
"279 -214 CURVE SMOOTH"
);
}
);
width = 652;
}
);
leftKerningGroup = T;
note = Tcedilla;
rightKerningGroup = T;
unicode = 0162;
},
